<svg width="40" height="40" viewBox="0 0 40 40" fill="none" xmlns="http://www.w3.org/2000/svg">
<g clip-path="url(#clip0_107_8)">
<rect width="40" height="40" fill="#FFFCDD"/>
<g clip-path="url(#clip1_107_8)">
<path d="M-10.3419 34.0769L-8.40674 36.5606L19.578 14.576L17.6428 12.0922C12.5452 5.54961 2.14885 5.16841 -5.5787 11.2391C-13.3063 17.3099 -15.4388 27.5351 -10.3419 34.0769Z" fill="#FC753F"/>
<g style="mix-blend-mode:multiply">
<path d="M18.819 15.1723L19.578 14.576L17.6429 12.0922C15.4777 9.31326 12.354 7.64984 8.88669 7.11596L16.6584 16.8683L18.8183 15.1715L18.819 15.1723Z" fill="#FC753F"/>
</g>
<path d="M19.5781 14.576C14.4809 8.03393 4.08434 7.652 -3.64342 13.7229C-11.3712 19.7938 -13.5037 30.0186 -8.40663 36.5606C-3.30952 43.1026 7.0871 43.4845 14.8149 37.4137C22.5426 31.3428 24.6752 21.118 19.5781 14.576Z" fill="#FEF156"/>
<path d="M19.1188 14.9368C14.1888 8.60934 4.13336 8.23977 -3.34071 14.1114C-10.8148 19.9829 -12.8772 29.8722 -7.94722 36.1997C-3.01727 42.5272 7.03817 42.8968 14.5122 37.0252C21.9863 31.1536 24.0487 21.2643 19.1188 14.9368Z" fill="#FFC242"/>
<g style="mix-blend-mode:soft-light">
<path d="M21.7603 22.006L-7.26981 18.2105C-8.74993 20.2777 -9.75993 22.5439 -10.2602 24.834L20.6487 28.8754C21.5321 26.6152 21.9157 24.2663 21.7603 22.006V22.006Z" fill="white"/>
</g>
<g style="mix-blend-mode:soft-light">
<path d="M0.502876 11.7326L18.367 14.068C14.1064 9.53491 6.8964 8.70855 0.502876 11.7326V11.7326Z" fill="white"/>
</g>
<g style="mix-blend-mode:soft-light">
<path d="M10.1178 39.6574L-6.83263 37.4415C-5.77671 38.4749 -4.55797 39.2959 -3.22854 39.9035L5.33804 41.0234C6.93783 40.795 8.54958 40.3409 10.1192 39.6576L10.1178 39.6574Z" fill="white"/>
</g>
<g style="mix-blend-mode:soft-light">
<path d="M19.9422 30.4575L-10.5332 26.4737C-10.5743 26.8422 -10.5977 27.2099 -10.6122 27.5773L19.3723 31.4972C19.5738 31.1542 19.7648 30.8078 19.9422 30.4575Z" fill="white"/>
</g>
<g style="mix-blend-mode:soft-light">
<path d="M-7.895 36.159C-12.9359 29.6892 -10.9027 19.6212 -3.38371 13.5272C-3.4705 13.5927 -3.5584 13.6552 -3.64391 13.7223C-11.3715 19.7931 -13.504 30.0183 -8.40712 36.56C-3.31019 43.1018 7.08681 43.4838 14.8144 37.4131C14.8999 37.3459 14.9814 37.2753 15.0656 37.2065C7.36571 43.0683 -2.85542 42.6272 -7.89628 36.1574L-7.895 36.159Z" fill="white"/>
</g>
<g style="mix-blend-mode:soft-light">
<path d="M15.3853 17.4452C11.8788 12.9448 4.72651 12.6821 -0.58981 16.8586C-5.90613 21.0351 -7.37331 28.0691 -3.86684 32.5696C-0.360375 37.07 6.79191 37.3327 12.1082 33.1562C17.4245 28.9797 18.8917 21.9457 15.3853 17.4452Z" fill="white"/>
</g>
<path d="M15.2117 18.0061C11.7052 13.5056 4.55293 13.243 -0.763394 17.4194C-6.07971 21.5959 -7.54689 28.63 -4.04042 33.1304C-0.533959 37.6309 6.61832 37.8935 11.9346 33.7171C17.251 29.5406 18.7181 22.5065 15.2117 18.0061Z" fill="#FEF156"/>
<path d="M12.3242 32.5317C7.00822 36.7079 -0.144412 36.4456 -3.6509 31.9451C-5.54719 29.5113 -5.98628 26.3374 -5.15193 23.2745C-6.46634 26.6868 -6.18341 30.3815 -4.04116 33.1311C-0.534669 37.6316 6.61796 37.8939 11.9339 33.7177C14.3756 31.7995 16.0023 29.2783 16.7112 26.6779C15.8747 28.8499 14.3913 30.9079 12.3234 32.5324L12.3242 32.5317Z" fill="#FC753F"/>
<g clip-path="url(#clip2_107_8)">
<path d="M1.22838 23.6145C1.2186 23.7448 1.51421 23.8861 1.59712 23.9687C2.08111 24.447 2.3772 25.1175 2.87847 25.599C3.15027 25.8621 3.47148 26.0362 3.86364 26.1491C4.18261 26.2441 4.59807 26.2773 4.4851 26.7229C4.34923 27.2533 3.75404 27.7181 3.52385 28.2418C3.2533 28.8613 3.07677 29.5491 3.11115 30.1409C3.12282 30.3464 3.17288 30.544 3.21986 30.7328C3.2848 30.9829 3.40564 31.2475 3.73451 30.9362C3.9836 30.6987 4.17312 30.561 4.4784 30.3908C5.0577 30.0723 5.73803 29.7692 6.2045 29.2773C6.70375 28.7513 7.04274 28.0529 7.12355 27.4375C7.1723 27.062 7.05125 26.3208 7.39847 25.9616C7.55819 25.7999 7.77864 25.6686 7.97227 25.5694C8.40402 25.3473 8.84527 25.1707 9.29768 25.0132C9.59212 24.9101 10.0613 24.7979 10.264 24.5105C11.239 23.1425 8.48397 20.7828 7.28683 22.3894C7.08753 22.6575 6.9177 22.9777 6.72643 23.2227C6.52348 23.4909 6.27124 23.9148 5.94653 24.0695C5.44567 24.3125 5.30126 23.8462 5.07347 23.6014C4.51651 23.0104 3.63602 22.5899 2.62684 22.7472C2.32213 22.7942 1.25708 23.1989 1.22838 23.6145Z" fill="#FC753F"/>
</g>
</g>
<g clip-path="url(#clip3_107_8)">
<path d="M42.614 42.3016L44.2473 41.0906L32.9809 25.769L31.3475 26.98C28.5703 29.0391 28.8414 34.1381 31.9525 38.3689C35.0636 42.5997 39.8367 44.3607 42.614 42.3016Z" fill="#FC753F"/>
<g style="mix-blend-mode:multiply">
<path d="M33.2861 26.1849L32.9805 25.7693L31.3472 26.9803C30.1673 27.8551 29.5397 29.2795 29.4442 30.9516L34.1557 27.3675L33.2861 26.1849V26.1849Z" fill="#FC753F"/>
</g>
<g style="mix-blend-mode:soft-light">
<path d="M37.5899 37.9346L34.0351 40.6385C35.053 41.5244 36.1414 42.1946 37.2222 42.6212L39.6895 40.7443L37.5895 37.935L37.5899 37.9346Z" fill="white"/>
</g>
<path d="M32.9805 25.7693C30.2032 27.8285 30.4738 32.9276 33.585 37.1586C36.6961 41.3895 41.4696 43.1501 44.2469 41.0909C47.0242 39.0318 46.7536 33.9326 43.6424 29.7017C40.5313 25.4707 35.7577 23.7101 32.9805 25.7693Z" fill="#FEF156"/>
<path d="M33.1654 26.0208C30.4794 28.0123 30.7412 32.944 33.7502 37.0361C36.7592 41.1281 41.376 42.8309 44.062 40.8394C46.7481 38.8479 46.4863 33.9162 43.4772 29.8241C40.4682 25.7321 35.8515 24.0293 33.1654 26.0208Z" fill="#FFC242"/>
<g style="mix-blend-mode:soft-light">
<path d="M36.2895 25.2087L35.796 39.2573C36.8058 40.1305 37.8867 40.7857 38.9573 41.1909L39.4829 26.2331C38.4104 25.6406 37.318 25.2888 36.2899 25.2084L36.2895 25.2087Z" fill="white"/>
</g>
<g style="mix-blend-mode:soft-light">
<path d="M32.4967 34.9758L32.8 26.331C30.9068 28.1171 30.8378 31.6141 32.4967 34.9758V34.9758Z" fill="white"/>
</g>
<g style="mix-blend-mode:soft-light">
<path d="M40.237 26.6915L39.7191 41.4396C39.8895 41.4855 40.0592 41.5223 40.228 41.5549L40.7374 27.0446C40.572 26.9213 40.4049 26.8033 40.237 26.6915V26.6915Z" fill="white"/>
</g>
<g style="mix-blend-mode:soft-light">
<path d="M44.041 40.8109C41.2948 42.847 36.5975 41.1462 33.4847 37.0166C33.5187 37.0637 33.551 37.1114 33.5854 37.1582C36.6965 41.3891 41.4701 43.1497 44.2474 41.0906C47.0246 39.0314 46.7535 33.9325 43.6424 29.7017C43.608 29.6548 43.5721 29.6098 43.5372 29.5633C46.5515 33.766 46.7876 38.7745 44.0414 40.8106L44.041 40.8109Z" fill="white"/>
</g>
<g style="mix-blend-mode:soft-light">
<path d="M34.474 28.0355C32.5634 29.452 32.7497 32.9599 34.89 35.8706C37.0303 38.7813 40.3142 39.9925 42.2247 38.576C44.1353 37.1595 43.949 33.6515 41.8087 30.7409C39.6684 27.8302 36.3845 26.6189 34.474 28.0355Z" fill="white"/>
</g>
<path d="M34.7384 28.1598C32.8278 29.5764 33.0141 33.0843 35.1544 35.995C37.2947 38.9057 40.5786 40.1169 42.4891 38.7004C44.3997 37.2838 44.2134 33.7759 42.0731 30.8652C39.9328 27.9546 36.6489 26.7433 34.7384 28.1598Z" fill="#FEF156"/>
<path d="M41.5198 31.046C43.66 33.9565 43.8462 37.4647 41.9358 38.8811C41.7604 39.0112 41.5734 39.1189 41.3769 39.2053C41.7806 39.1133 42.1564 38.9477 42.4899 38.7005C44.4003 37.284 44.214 33.7758 42.0738 30.8653C40.1301 28.222 37.2432 26.9807 35.2984 27.8362C37.2079 27.4002 39.7531 28.6434 41.5201 31.0464L41.5198 31.046Z" fill="#FC753F"/>
<g clip-path="url(#clip4_107_8)">
<path d="M38.138 35.2705C38.1922 35.2887 38.2261 35.1663 38.2532 35.1364C38.4098 34.9619 38.6603 34.8949 38.8168 34.7127C38.9025 34.6141 38.9477 34.4832 38.9622 34.3128C38.9752 34.1746 38.9552 33.985 39.1467 34.0845C39.3749 34.2035 39.6133 34.5291 39.8464 34.6912C40.1219 34.8822 40.4177 35.0367 40.6572 35.0831C40.7404 35.0993 40.8172 35.0969 40.8907 35.095C40.9878 35.0911 41.0864 35.0629 40.9323 34.8772C40.8149 34.7364 40.7432 34.6338 40.6488 34.4741C40.4715 34.1713 40.2923 33.8232 40.0532 33.5546C39.7974 33.2671 39.484 33.036 39.2256 32.9336C39.0679 32.8714 38.7743 32.8496 38.5991 32.6504C38.52 32.5591 38.4483 32.4428 38.3921 32.3424C38.2662 32.1183 38.1581 31.8946 38.057 31.6678C37.991 31.5201 37.9071 31.2902 37.7729 31.1657C37.134 30.5685 36.3911 31.6002 37.1458 32.3259C37.2717 32.4467 37.4165 32.5594 37.5323 32.6741C37.6585 32.7967 37.8525 32.9586 37.9422 33.1258C38.0822 33.3841 37.903 33.4021 37.8212 33.4822C37.6244 33.6787 37.5236 34.0436 37.6697 34.5292C37.7137 34.6758 37.9656 35.2133 38.138 35.2705Z" fill="#FC753F"/>
</g>
</g>
<g clip-path="url(#clip5_107_8)">
<path d="M40.998 13.5311L41.1104 11.7587L24.6208 10.7051L24.5085 12.4775C24.3175 15.4913 27.8541 18.1698 32.4075 18.4608C36.9608 18.7517 40.8071 16.5448 40.998 13.5311Z" fill="#FC753F"/>
<g style="mix-blend-mode:multiply">
<path d="M25.068 10.7342L24.6207 10.7056L24.5084 12.478C24.4273 13.7584 25.0208 14.9773 26.0771 15.9791L26.3407 10.8155L25.068 10.7342V10.7342Z" fill="#FC753F"/>
</g>
<g style="mix-blend-mode:soft-light">
<path d="M35.2812 14.4441L35.082 18.3399C36.241 18.1556 37.2964 17.803 38.1857 17.3189L38.3238 14.6148L35.2811 14.4446L35.2812 14.4441Z" fill="white"/>
</g>
<g style="mix-blend-mode:soft-light">
<path d="M38.9031 14.6509L38.7851 16.9551C38.9456 16.8469 39.0988 16.7342 39.244 16.6168L39.3434 14.6756L38.9031 14.6509V14.6509Z" fill="white"/>
</g>
<path d="M24.6207 10.7056C24.4297 13.7194 27.9662 16.3984 32.5197 16.6893C37.0731 16.9803 40.9193 14.773 41.1103 11.7592C41.3012 8.74539 37.7647 6.06637 33.2113 5.77543C28.6578 5.48449 24.8117 7.69179 24.6207 10.7056Z" fill="#FEF156"/>
<path d="M24.8914 10.7229C24.7067 13.6377 28.1271 16.2287 32.5311 16.5101C36.9351 16.7915 40.6549 14.6567 40.8396 11.7419C41.0243 8.8271 37.6039 6.23609 33.2 5.9547C28.796 5.67331 25.0761 7.80809 24.8914 10.7229Z" fill="#FFC242"/>
<g style="mix-blend-mode:soft-light">
<path d="M26.1046 8.17651L35.1529 16.3868C36.2989 16.2007 37.3401 15.8448 38.2095 15.3555L28.5758 6.61386C27.5809 6.9993 26.7347 7.5331 26.1046 8.17603L26.1046 8.17651Z" fill="white"/>
</g>
<g style="mix-blend-mode:soft-light">
<path d="M30.4604 16.1934L24.8924 11.1415C25.016 13.4103 27.2985 15.418 30.4604 16.1934V16.1934Z" fill="white"/>
</g>
<g style="mix-blend-mode:soft-light">
<path d="M35.541 6.33942L40.8242 11.1332C40.7663 10.5948 40.5869 10.0734 40.3039 9.58115L37.6337 7.15874C37.0026 6.82327 36.2989 6.54558 35.5405 6.33939L35.541 6.33942Z" fill="white"/>
</g>
<g style="mix-blend-mode:soft-light">
<path d="M29.3032 6.36616L38.8021 14.9851C38.9282 14.8968 39.0478 14.8038 39.1641 14.7092L29.8183 6.22924C29.6436 6.27082 29.4716 6.31644 29.3032 6.36616V6.36616Z" fill="white"/>
</g>
<g style="mix-blend-mode:soft-light">
<path d="M40.8089 11.7399C40.62 14.7199 36.8563 16.9098 32.3692 16.6768C32.4195 16.6805 32.4693 16.6856 32.5197 16.6888C37.073 16.9798 40.9193 14.7724 41.1103 11.7587C41.3013 8.74494 37.7646 6.06637 33.2113 5.77543C33.1609 5.77221 33.1108 5.77095 33.0604 5.76821C37.5408 6.10819 40.9977 8.75942 40.8089 11.7394L40.8089 11.7399Z" fill="white"/>
</g>
<g style="mix-blend-mode:soft-light">
<path d="M26.9625 10.9771C26.8311 13.0504 29.2641 14.8933 32.3967 15.0935C35.5292 15.2936 38.1752 13.7752 38.3065 11.702C38.4379 9.62872 36.005 7.78577 32.8724 7.58562C29.7399 7.38546 27.0939 8.9039 26.9625 10.9771Z" fill="white"/>
</g>
<path d="M27.1935 10.87C27.0621 12.9432 29.495 14.7862 32.6276 14.9863C35.7602 15.1865 38.4061 13.668 38.5375 11.5948C38.6689 9.52155 36.2359 7.67859 33.1034 7.47844C29.9708 7.27828 27.3249 8.79672 27.1935 10.87Z" fill="#FEF156"/>
<path d="M32.913 7.95011C36.0454 8.15025 38.4785 9.99337 38.3471 12.0665C38.3351 12.2568 38.3016 12.4424 38.2488 12.6224C38.4142 12.3006 38.5151 11.9562 38.538 11.5943C38.6694 9.52123 36.2362 7.67812 33.1039 7.47798C30.259 7.29621 27.8158 8.53211 27.2928 10.3136C28.0745 8.79105 30.3273 7.7849 32.9135 7.95014L32.913 7.95011Z" fill="#FC753F"/>
<g clip-path="url(#clip6_107_8)">
<path d="M33.8204 12.5829C33.8629 12.5569 33.8006 12.4655 33.796 12.4307C33.7679 12.2279 33.864 12.0227 33.8308 11.8158C33.8135 11.7031 33.7519 11.5994 33.647 11.4942C33.5625 11.4079 33.4255 11.315 33.5989 11.2426C33.8059 11.1566 34.1557 11.1796 34.3941 11.1146C34.6754 11.0374 34.9439 10.926 35.109 10.7918C35.1665 10.7452 35.2079 10.6924 35.2479 10.6421C35.2998 10.575 35.3363 10.4932 35.1267 10.4922C34.9674 10.4918 34.859 10.4822 34.7 10.4558C34.3996 10.4046 34.068 10.3293 33.7556 10.3387C33.4213 10.3486 33.0922 10.4287 32.8792 10.5443C32.7495 10.6149 32.5703 10.7991 32.3398 10.8046C32.2348 10.8064 32.1175 10.7891 32.0192 10.7705C31.7999 10.7291 31.5908 10.6759 31.3836 10.6163C31.2485 10.5777 31.0488 10.5049 30.891 10.5249C30.1361 10.6175 30.4043 11.6934 31.3093 11.5953C31.4601 11.5788 31.6161 11.5451 31.7572 11.5319C31.9093 11.5162 32.1256 11.4772 32.2869 11.511C32.5369 11.5622 32.4483 11.6922 32.4556 11.7918C32.4757 12.0338 32.6614 12.306 33.0656 12.4805C33.1876 12.5333 33.6857 12.6663 33.8204 12.5829Z" fill="#FC753F"/>
</g>
</g>
<g clip-path="url(#clip7_107_8)">
<path d="M31.7456 9.55746L33.6343 7.43709L13.9073 -10.2798L12.0187 -8.15941C8.80726 -4.55398 10.6205 2.33449 16.0678 7.22674C21.5151 12.119 28.5342 13.1629 31.7456 9.55746Z" fill="#FC753F"/>
<g style="mix-blend-mode:soft-light">
<path d="M23.6466 5.02508L19.5554 9.7331C21.1966 10.653 22.8732 11.2581 24.4704 11.5324L27.31 8.26435L23.6461 5.02566L23.6466 5.02508Z" fill="white"/>
</g>
<g style="mix-blend-mode:soft-light">
<path d="M28.0038 8.88555L25.5836 11.67C25.8926 11.6932 26.1964 11.7036 26.4952 11.7L28.5339 9.35434L28.0038 8.88555V8.88555Z" fill="white"/>
</g>
<path d="M13.9069 -10.2792C10.6955 -6.67372 12.5081 0.215151 17.9555 5.10753C23.403 9.99991 30.4224 11.0431 33.6339 7.43767C36.8453 3.83219 35.0327 -3.05668 29.5853 -7.94906C24.1378 -12.8414 17.1184 -13.8847 13.9069 -10.2792Z" fill="#FEF156"/>
<path d="M14.2307 -9.98839C11.1247 -6.50135 12.8779 0.161305 18.1465 4.89307C23.4151 9.62484 30.204 10.6339 33.31 7.14686C36.416 3.65982 34.6628 -3.00283 29.3942 -7.7346C24.1256 -12.4664 17.3366 -13.4754 14.2307 -9.98839Z" fill="#FFC242"/>
<g style="mix-blend-mode:soft-light">
<path d="M18.2687 -11.9891L21.5697 7.34387C23.1964 8.24865 24.8584 8.83539 26.4356 9.08343L22.9211 -11.5008C21.2883 -12.0042 19.6964 -12.1731 18.2692 -11.9897L18.2687 -11.9891Z" fill="white"/>
</g>
<g style="mix-blend-mode:soft-light">
<path d="M15.8512 2.43613L13.8194 -9.46033C11.7385 -6.48017 12.6337 -1.68315 15.8512 2.43613V2.43613Z" fill="white"/>
</g>
<g style="mix-blend-mode:soft-light">
<path d="M31.9631 -4.92322L33.8908 6.36502C34.3485 5.6295 34.6366 4.79448 34.7655 3.89332L33.7909 -1.81127C33.3268 -2.86109 32.7143 -3.91028 31.9626 -4.92374L31.9631 -4.92322Z" fill="white"/>
</g>
<g style="mix-blend-mode:soft-light">
<path d="M24.0813 -11.0897L27.5471 9.2058C27.7928 9.21999 28.0351 9.22176 28.2749 9.21819L24.865 -10.7501C24.6041 -10.8714 24.3425 -10.9849 24.0813 -11.0897V-11.0897Z" fill="white"/>
</g>
<g style="mix-blend-mode:soft-light">
<path d="M33.2733 7.11386C30.0978 10.6789 23.1994 9.69565 17.7783 4.94216C17.8381 4.99688 17.8957 5.05281 17.956 5.10695C23.4033 9.9992 30.4229 11.0425 33.6344 7.43709C36.8458 3.83166 35.0326 -3.05681 29.5853 -7.94906C29.525 -8.0032 29.4632 -8.05452 29.4024 -8.10809C34.7095 -3.22661 36.4493 3.5482 33.2738 7.11328L33.2733 7.11386Z" fill="white"/>
</g>
<g style="mix-blend-mode:soft-light">
<path d="M16.5883 -7.60942C14.3791 -5.12914 15.6262 -0.390029 19.3738 2.97569C23.1213 6.34141 27.9503 7.0592 30.1595 4.57892C32.3687 2.09865 31.1217 -2.64047 27.3741 -6.00619C23.6265 -9.37191 18.7976 -10.0897 16.5883 -7.60942Z" fill="white"/>
</g>
<path d="M16.9848 -7.51495C14.7756 -5.03467 16.0227 -0.29556 19.7702 3.07016C23.5178 6.43587 28.3468 7.15367 30.556 4.67339C32.7652 2.19311 31.5181 -2.546 27.7706 -5.91172C24.023 -9.27744 19.1941 -9.99523 16.9848 -7.51495Z" fill="#FEF156"/>
<g clip-path="url(#clip8_107_8)">
<path d="M26.4637 -0.274158C26.3233 -0.268582 26.3383 -0.147063 26.3195 -0.0375339C26.3038 0.0523207 26.2362 0.165555 26.0748 0.0889607C26.0342 0.0697463 25.9583 0.0104554 25.9566 -0.0250148C25.9548 -0.0616191 26.0475 -0.0598244 26.0706 -0.0782649C26.117 -0.115436 26.2073 -0.166992 26.1193 -0.279973C26.0745 -0.338006 26.0198 -0.388706 25.9664 -0.408471C25.8856 -0.438671 25.8547 -0.415218 25.8161 -0.386752C25.7416 -0.33557 25.6968 -0.264062 25.5402 -0.317477C25.3901 -0.368203 25.252 -0.479721 25.1057 -0.587069C24.9455 -0.70375 24.7946 -0.834569 24.6382 -0.95787C24.5979 -0.989875 24.5351 -1.04891 24.4944 -1.05931C24.3107 -1.10726 24.6173 -0.807384 24.6875 -0.739151C24.8735 -0.55689 25.0811 -0.340192 25.1013 -0.158571C25.1083 -0.0916933 25.0849 -0.0354613 25.0419 -0.00717866C24.9928 0.0255098 24.8916 0.0307323 24.922 0.13115C24.9986 0.385305 25.293 0.427237 25.4029 0.386014C25.4524 0.36667 25.4396 0.256464 25.4938 0.252915C25.6258 0.24299 25.5847 0.460994 25.5726 0.484574C25.5452 0.537775 25.4897 0.572601 25.4275 0.591395C25.3819 0.605253 25.3227 0.60068 25.2766 0.61256C25.2063 0.630406 25.2102 0.703324 25.2345 0.789397C25.2739 0.928236 25.4731 1.07212 25.5925 1.07017C25.6398 1.06934 25.6848 1.05492 25.7128 1.03353C25.7405 1.01356 25.7585 0.946092 25.812 0.957049C25.9017 0.977094 25.9167 1.06367 25.9111 1.10613C25.9022 1.17338 25.7414 1.20075 25.8766 1.3379C26.0951 1.55974 26.2505 1.45637 26.3061 1.36898C26.4323 1.17 26.2615 0.832266 26.0144 0.481845C25.991 0.448306 25.8778 0.322567 25.879 0.291289L25.8808 0.285566C25.8982 0.270951 26.0447 0.348182 26.0785 0.361306C26.3295 0.458236 26.587 0.519219 26.7494 0.463978C26.8926 0.414017 27.0075 0.227798 26.8346 -0.0240904C26.7337 -0.170007 26.5871 -0.2782 26.4637 -0.274158V-0.274158ZM25.5687 -1.20903L25.5591 -1.18948C25.5414 -1.1385 25.5656 -1.05981 25.6538 -0.980639C25.7709 -0.875445 25.8958 -0.859919 25.93 -0.925779C25.9625 -0.989609 25.8775 -1.12596 25.7477 -1.19818C25.6698 -1.24152 25.5944 -1.24656 25.5687 -1.20903V-1.20903ZM25.9391 1.80715L25.9286 1.82643C25.9116 1.87797 25.936 1.95637 26.0236 2.03499C26.1407 2.14018 26.2658 2.15542 26.2996 2.09013C26.3324 2.02715 26.2462 1.88969 26.1181 1.818C26.0396 1.77411 25.9648 1.76962 25.9391 1.80715ZM26.3078 -0.978705C26.2943 -0.873845 26.4188 -0.714563 26.5728 -0.67444C26.6762 -0.64733 26.7536 -0.713071 26.6752 -0.833096C26.6102 -0.933267 26.5138 -1.00315 26.4358 -1.02774C26.3681 -1.04887 26.3151 -1.03541 26.3078 -0.978705ZM25.3012 1.3361C25.236 1.23622 25.1392 1.16549 25.0616 1.14175C24.9945 1.12117 24.9408 1.13408 24.9338 1.19049C24.9201 1.29564 25.0445 1.45493 25.1985 1.49505C25.3026 1.52271 25.38 1.45697 25.3012 1.3361ZM24.5013 0.516325C24.4899 0.603804 24.5936 0.736587 24.7229 0.770757C24.8086 0.792887 24.8731 0.737963 24.8081 0.637792C24.7539 0.554127 24.6729 0.495523 24.6078 0.475182C24.5512 0.457765 24.507 0.468747 24.5013 0.516325ZM27.157 -0.176846C27.1454 -0.0890761 27.2494 0.0434166 27.3778 0.0773232C27.4639 0.100297 27.5286 0.0450821 27.4636 -0.0550887C27.409 -0.139597 27.3284 -0.197357 27.2633 -0.217699C27.207 -0.235406 27.1634 -0.22387 27.157 -0.176846V-0.176846Z" fill="#FC753F"/>
<path fill-rule="evenodd" clip-rule="evenodd" d="M24.3506 -2.33543C24.5587 -1.72444 24.408 -1.26381 24.0832 -1.00872C23.5084 -0.556576 22.4073 -0.573554 21.2097 -1.04904C20.9508 -1.15203 20.7637 -1.34564 20.6303 -1.57459C20.3281 -2.09359 19.8671 -3.4023 20.7963 -4.51902C21.1836 -4.9838 21.8991 -5.15547 22.2631 -4.90382C22.6787 -4.61673 23.9496 -3.50976 24.3506 -2.33543ZM23.0771 -3.67133C22.9824 -3.67336 22.9601 -3.57739 23.0236 -3.44053C23.1266 -3.2174 23.3928 -2.98929 23.5485 -2.97222C23.7105 -2.95359 23.7304 -3.12167 23.5473 -3.36082C23.4106 -3.53998 23.2464 -3.64094 23.1244 -3.66591C23.1077 -3.66935 23.0919 -3.67116 23.0771 -3.67133ZM22.0093 -2.53856C22.0045 -2.52567 22.0013 -2.51338 21.9991 -2.49969C21.985 -2.40163 22.054 -2.24985 22.2378 -2.09623C22.4816 -1.89033 22.7099 -1.85764 22.7482 -1.9841C22.7847 -2.10598 22.5862 -2.37147 22.3333 -2.51238C22.1784 -2.59879 22.0428 -2.6098 22.0093 -2.53856Z" fill="#FC753F"/>
</g>
<path d="M27.0658 -5.50692C30.8131 -2.14144 32.0603 2.59808 29.8512 5.07819C29.6484 5.30591 29.4233 5.50639 29.1793 5.68054C29.7049 5.43968 30.1713 5.10628 30.557 4.67333C32.766 2.19322 31.5189 -2.5463 27.7715 -5.91178C24.3681 -8.96841 20.073 -9.8405 17.6583 -8.11684C20.1435 -9.25725 23.9724 -8.28511 27.0663 -5.50641L27.0658 -5.50692Z" fill="#FC753F"/>
</g>
</g>
<defs>
<clipPath id="clip0_107_8">
<rect width="40" height="40" fill="white"/>
</clipPath>
<clipPath id="clip1_107_8">
<rect width="35.6228" height="35.5875" fill="white" transform="matrix(-0.614607 -0.788834 0.786364 -0.617764 1.5752 49.3719)"/>
</clipPath>
<clipPath id="clip2_107_8">
<rect width="10.4642" height="14.235" fill="white" transform="matrix(-0.614607 -0.788834 0.786364 -0.617764 2.85474 33.6436)"/>
</clipPath>
<clipPath id="clip3_107_8">
<rect width="18.9949" height="19.018" fill="white" transform="matrix(-0.803293 0.595585 -0.59241 -0.805637 51.0398 36.0544)"/>
</clipPath>
<clipPath id="clip4_107_8">
<rect width="3.56155" height="7.60721" fill="white" transform="matrix(-0.803293 0.595585 -0.59241 -0.805637 42.1284 35.559)"/>
</clipPath>
<clipPath id="clip5_107_8">
<rect width="16.591" height="16.5232" fill="white" transform="matrix(-0.0632425 0.997998 -0.997965 -0.0637649 41.5774 4.38774)"/>
</clipPath>
<clipPath id="clip6_107_8">
<rect width="3.11082" height="6.60928" fill="white" transform="matrix(-0.0632425 0.997998 -0.997965 -0.0637649 36.2502 10.074)"/>
</clipPath>
<clipPath id="clip7_107_8">
<rect width="26.5271" height="26.5149" fill="white" transform="matrix(-0.665127 0.74673 -0.743994 -0.668186 41.4888 -1.38098)"/>
</clipPath>
<clipPath id="clip8_107_8">
<rect width="4.97382" height="10.606" fill="white" transform="matrix(-0.665127 0.74673 -0.743994 -0.668186 29.23 0.422653)"/>
</clipPath>
</defs>
</svg>
