<svg width="20" height="20" viewBox="0 0 20 20" fill="none" xmlns="http://www.w3.org/2000/svg">
<path d="M13.75 18.9583H6.25C3.5 18.9583 3.125 17.4583 3.125 15.8333V8.51667C3.125 8.175 3.40833 7.89167 3.75 7.89167C4.09167 7.89167 4.375 8.175 4.375 8.51667V15.8333C4.375 17.2833 4.625 17.7083 6.25 17.7083H13.75C15.375 17.7083 15.625 17.2833 15.625 15.8333V8.51667C15.625 8.175 15.9083 7.89167 16.25 7.89167C16.5917 7.89167 16.875 8.175 16.875 8.51667V15.8333C16.875 17.4583 16.5 18.9583 13.75 18.9583Z" fill="current"/>
<path d="M15.8333 8.95833H4.16666C2.15 8.95833 1.04166 7.85 1.04166 5.83333V4.16667C1.04166 2.15 2.15 1.04167 4.16666 1.04167H15.8333C17.85 1.04167 18.9583 2.15 18.9583 4.16667V5.83333C18.9583 7.85 17.85 8.95833 15.8333 8.95833ZM4.16666 2.29167C2.85 2.29167 2.29166 2.85 2.29166 4.16667V5.83333C2.29166 7.15 2.85 7.70833 4.16666 7.70833H15.8333C17.15 7.70833 17.7083 7.15 17.7083 5.83333V4.16667C17.7083 2.85 17.15 2.29167 15.8333 2.29167H4.16666Z" fill="current"/>
<path d="M11.5167 12.2917H8.48334C8.14167 12.2917 7.85834 12.0083 7.85834 11.6667C7.85834 11.325 8.14167 11.0417 8.48334 11.0417H11.5167C11.8583 11.0417 12.1417 11.325 12.1417 11.6667C12.1417 12.0083 11.8583 12.2917 11.5167 12.2917Z" fill="current"/>
</svg>
