<svg width="21" height="20" viewBox="0 0 21 20" fill="none" xmlns="http://www.w3.org/2000/svg">
<path d="M14.5 18.9584H7C4.25 18.9584 3.875 17.4584 3.875 15.8334V8.51672C3.875 8.17506 4.15833 7.89172 4.5 7.89172C4.84167 7.89172 5.125 8.17506 5.125 8.51672V15.8334C5.125 17.2834 5.375 17.7084 7 17.7084H14.5C16.125 17.7084 16.375 17.2834 16.375 15.8334V8.51672C16.375 8.17506 16.6583 7.89172 17 7.89172C17.3417 7.89172 17.625 8.17506 17.625 8.51672V15.8334C17.625 17.4584 17.25 18.9584 14.5 18.9584Z" fill="#96A5C0"/>
<path d="M16.5833 8.45829H4.91666C3.9974 8.45829 3.36001 8.20704 2.95146 7.79849C2.54291 7.38994 2.29166 6.75255 2.29166 5.83329V4.16663C2.29166 3.24737 2.54291 2.60998 2.95146 2.20143C3.36001 1.79288 3.9974 1.54163 4.91666 1.54163H16.5833C17.5026 1.54163 18.14 1.79288 18.5485 2.20143C18.9571 2.60998 19.2083 3.24737 19.2083 4.16663V5.83329C19.2083 6.75255 18.9571 7.38994 18.5485 7.79849C18.14 8.20704 17.5026 8.45829 16.5833 8.45829ZM4.91666 1.79163C4.20186 1.79163 3.57256 1.94111 3.13185 2.38182C2.69114 2.82253 2.54166 3.45183 2.54166 4.16663V5.83329C2.54166 6.54809 2.69114 7.17739 3.13185 7.6181C3.57256 8.0588 4.20186 8.20829 4.91666 8.20829H16.5833C17.2981 8.20829 17.9274 8.0588 18.3681 7.6181C18.8088 7.17739 18.9583 6.54809 18.9583 5.83329V4.16663C18.9583 3.45183 18.8088 2.82253 18.3681 2.38182C17.9274 1.94111 17.2981 1.79163 16.5833 1.79163H4.91666Z" fill="#96A5C0" stroke="#96A5C0"/>
<path d="M12.2667 12.2916H9.23334C8.89167 12.2916 8.60834 12.0083 8.60834 11.6666C8.60834 11.325 8.89167 11.0416 9.23334 11.0416H12.2667C12.6083 11.0416 12.8917 11.325 12.8917 11.6666C12.8917 12.0083 12.6083 12.2916 12.2667 12.2916Z" fill="#96A5C0"/>
</svg>
