<svg width="20" height="20" viewBox="0 0 20 20" fill="none" xmlns="http://www.w3.org/2000/svg">
    <path
        d="M9.26647 15.2084C9.10814 15.2084 8.9498 15.15 8.8248 15.025L7.5748 13.775C7.33314 13.5334 7.33314 13.1334 7.5748 12.8917C7.81647 12.65 8.21647 12.65 8.45814 12.8917L9.28314 13.7167L11.5498 11.625C11.7998 11.3917 12.1998 11.4084 12.4331 11.6584C12.6665 11.9084 12.6498 12.3084 12.3998 12.5417L9.69147 15.0417C9.5748 15.15 9.4248 15.2084 9.26647 15.2084Z"
        fill="current" />
    <path
        d="M4.32507 4.81662C4.29733 4.81662 4.25844 4.80122 4.23695 4.77973C4.21542 4.7582 4.20215 4.72747 4.20215 4.69162C4.20215 4.65577 4.21542 4.62503 4.23695 4.6035L7.26195 1.5785C7.28348 1.55698 7.31421 1.5437 7.35007 1.5437C7.38592 1.5437 7.41665 1.55698 7.43818 1.5785L7.79173 1.22495L7.43818 1.5785C7.45971 1.60003 7.47298 1.63077 7.47298 1.66662C7.47298 1.70247 7.45971 1.7332 7.43818 1.75473L4.42091 4.772C4.37993 4.80833 4.34258 4.81662 4.32507 4.81662Z"
        fill="current" stroke="current" />
    <path
        d="M15.6753 5.31662C15.5169 5.31662 15.3586 5.25828 15.2336 5.13328L12.2086 2.10828C11.9669 1.86662 11.9669 1.46662 12.2086 1.22495C12.4503 0.983285 12.8503 0.983285 13.0919 1.22495L16.1169 4.24995C16.3586 4.49162 16.3586 4.89162 16.1169 5.13328C16.0003 5.24995 15.8336 5.31662 15.6753 5.31662Z"
        fill="current" />
    <path
        d="M16.842 8.83333C16.7837 8.83333 16.7253 8.83333 16.667 8.83333H16.4753H3.33366C2.75033 8.84167 2.08366 8.84167 1.60033 8.35833C1.21699 7.98333 1.04199 7.4 1.04199 6.54167C1.04199 4.25 2.71699 4.25 3.51699 4.25H16.4837C17.2837 4.25 18.9587 4.25 18.9587 6.54167C18.9587 7.40833 18.7837 7.98333 18.4003 8.35833C17.967 8.79167 17.3837 8.83333 16.842 8.83333ZM3.51699 7.58333H16.6753C17.0503 7.59167 17.4003 7.59167 17.517 7.475C17.5753 7.41667 17.7003 7.21667 17.7003 6.54167C17.7003 5.6 17.467 5.5 16.4753 5.5H3.51699C2.52533 5.5 2.29199 5.6 2.29199 6.54167C2.29199 7.21667 2.42533 7.41667 2.47533 7.475C2.59199 7.58333 2.95033 7.58333 3.31699 7.58333H3.51699Z"
        fill="current" />
    <path
        d="M12.4083 18.9584H7.38329C4.39996 18.9584 3.73329 17.1834 3.47496 15.6417L2.29996 8.43337C2.24162 8.09171 2.47496 7.77504 2.81662 7.71671C3.14996 7.65837 3.47496 7.89171 3.53329 8.23337L4.70829 15.4334C4.94996 16.9084 5.44996 17.7084 7.38329 17.7084H12.4083C14.55 17.7084 14.7916 16.9584 15.0666 15.5084L16.4666 8.21671C16.5333 7.87504 16.8583 7.65004 17.2 7.72504C17.5416 7.79171 17.7583 8.11671 17.6916 8.45837L16.2916 15.75C15.9666 17.4417 15.425 18.9584 12.4083 18.9584Z"
        fill="current" />
</svg>