<svg width="21" height="20" viewBox="0 0 21 20" fill="none" xmlns="http://www.w3.org/2000/svg">
<path d="M10.375 1.95811L5.96666 6.36644C5.8 6.53311 5.8 6.79144 5.96666 6.95811L7.04166 8.03311C7.20832 8.19977 7.46666 8.19977 7.63333 8.03311L10.375 5.29144C10.5417 5.12477 10.8 5.12477 10.9667 5.29144L13.7083 8.03311C13.875 8.19977 14.1333 8.19977 14.3 8.03311L15.375 6.95811C15.5417 6.79144 15.5417 6.53311 15.375 6.36644L10.9667 1.95811C10.8 1.79977 10.5333 1.79977 10.375 1.95811Z" fill="#FC753F"/>
<path d="M10.375 18.0414L5.96666 13.6331C5.8 13.4664 5.8 13.2081 5.96666 13.0414L7.04166 11.9664C7.20832 11.7998 7.46666 11.7998 7.63333 11.9664L10.375 14.7081C10.5417 14.8748 10.8 14.8748 10.9667 14.7081L13.7083 11.9664C13.875 11.7998 14.1333 11.7998 14.3 11.9664L15.375 13.0414C15.5417 13.2081 15.5417 13.4664 15.375 13.6331L10.9667 18.0414C10.8 18.1998 10.5333 18.1998 10.375 18.0414Z" fill="#FC753F"/>
<path d="M17.4167 8.41644L18.7 9.69977C18.8667 9.86644 18.8667 10.1248 18.7 10.2914L17.4167 11.5748C17.25 11.7414 16.9917 11.7414 16.825 11.5748L15.5417 10.2914C15.375 10.1248 15.375 9.86644 15.5417 9.69977L16.825 8.41644C16.9917 8.25811 17.2583 8.25811 17.4167 8.41644Z" fill="#FC753F"/>
<path d="M4.5 8.41644L5.78333 9.69977C5.94999 9.86644 5.94999 10.1248 5.78333 10.2914L4.5 11.5748C4.33333 11.7414 4.07499 11.7414 3.90833 11.5748L2.625 10.2914C2.45833 10.1248 2.45833 9.86644 2.625 9.69977L3.90833 8.41644C4.07499 8.25811 4.34167 8.25811 4.5 8.41644Z" fill="#FC753F"/>
<path d="M10.9583 8.23311L12.4333 9.70811C12.6 9.87477 12.6 10.1331 12.4333 10.2998L10.9583 11.7748C10.7917 11.9414 10.5333 11.9414 10.3667 11.7748L8.89166 10.2998C8.72499 10.1331 8.72499 9.87477 8.89166 9.70811L10.3667 8.23311C10.5333 8.06644 10.8 8.06644 10.9583 8.23311Z" fill="#FC753F"/>
</svg>
