<svg width="16" height="16" viewBox="0 0 16 16" fill="none" xmlns="http://www.w3.org/2000/svg">
<path d="M7.59998 1.56668L4.16665 5.00001C4.03332 5.13335 4.03332 5.34001 4.16665 5.47335L5.31999 6.62668C5.45332 6.76001 5.65999 6.76001 5.79332 6.62668L9.22665 3.19335C9.35998 3.06001 9.35998 2.85335 9.22665 2.72001L8.07331 1.56668C7.93997 1.44001 7.73331 1.44001 7.59998 1.56668Z" fill="#7071B3"/>
<path d="M10.2 4.17336L4.16665 10.2067C4.03332 10.34 4.03332 10.5467 4.16665 10.68L5.31999 11.8334C5.45332 11.9667 5.65999 11.9667 5.79332 11.8334L11.8266 5.80003C11.96 5.6667 11.96 5.46003 11.8266 5.3267L10.6733 4.17336C10.5467 4.04003 10.3333 4.04003 10.2 4.17336Z" fill="#7071B3"/>
<path d="M12.8067 6.77334L6.77334 12.8067C6.64001 12.94 6.64001 13.1467 6.77334 13.28L7.92668 14.4333C8.06001 14.5667 8.26667 14.5667 8.40001 14.4333L14.4333 8.40001C14.5667 8.26667 14.5667 8.06001 14.4333 7.92667L13.28 6.77334C13.1467 6.64001 12.9333 6.64001 12.8067 6.77334Z" fill="#7071B3"/>
<path d="M2.72673 9.22668L1.57339 8.07335C1.44006 7.94001 1.44006 7.73335 1.57339 7.60001L2.72673 6.44668C2.86006 6.31335 3.06672 6.31335 3.20006 6.44668L4.3534 7.60001C4.48673 7.73335 4.48673 7.94001 4.3534 8.07335L3.20006 9.22668C3.06672 9.36001 2.8534 9.36001 2.72673 9.22668Z" fill="#7071B3"/>
</svg>
