<svg width="24" height="24" viewBox="0 0 24 24" fill="none" xmlns="http://www.w3.org/2000/svg">
<path d="M19.8999 4.7C18.1514 2.80131 15.7777 1.5956 13.2131 1.3034C10.6485 1.0112 8.06439 1.65205 5.93351 3.10873C3.80264 4.56541 2.2674 6.74054 1.60863 9.23625C0.949856 11.732 1.21159 14.3814 2.34594 16.7C2.4779 16.9532 2.51343 17.2456 2.44594 17.523L1.72094 20.187C1.64091 20.4788 1.63797 20.7864 1.7124 21.0797C1.78683 21.3731 1.93608 21.642 2.14558 21.8604C2.35507 22.0788 2.61764 22.239 2.90761 22.3256C3.19758 22.4121 3.50505 22.4219 3.79994 22.354L6.75994 21.671C7.01418 21.6226 7.27727 21.6577 7.50994 21.771C8.91838 22.4175 10.4502 22.7512 11.9999 22.749C12.6137 22.7488 13.2264 22.6983 13.8319 22.598C15.7395 22.2703 17.5231 21.4336 18.9947 20.1763C20.4662 18.9191 21.571 17.2879 22.1924 15.4549C22.8139 13.6219 22.9289 11.6551 22.5254 9.76211C22.1219 7.86916 21.2149 6.12025 19.8999 4.7Z" fill="#29B6F6"/>
<path d="M16 10.75H8C7.80109 10.75 7.61032 10.671 7.46967 10.5303C7.32902 10.3897 7.25 10.1989 7.25 10C7.25 9.80109 7.32902 9.61032 7.46967 9.46967C7.61032 9.32902 7.80109 9.25 8 9.25H16C16.1989 9.25 16.3897 9.32902 16.5303 9.46967C16.671 9.61032 16.75 9.80109 16.75 10C16.75 10.1989 16.671 10.3897 16.5303 10.5303C16.3897 10.671 16.1989 10.75 16 10.75Z" fill="#E1F5FE"/>
<path d="M12 14.75H8C7.80109 14.75 7.61032 14.671 7.46967 14.5303C7.32902 14.3897 7.25 14.1989 7.25 14C7.25 13.8011 7.32902 13.6103 7.46967 13.4697C7.61032 13.329 7.80109 13.25 8 13.25H12C12.1989 13.25 12.3897 13.329 12.5303 13.4697C12.671 13.6103 12.75 13.8011 12.75 14C12.75 14.1989 12.671 14.3897 12.5303 14.5303C12.3897 14.671 12.1989 14.75 12 14.75Z" fill="#E1F5FE"/>
</svg>
