<svg viewBox="0 0 16 16" fill="none" xmlns="http://www.w3.org/2000/svg">
<g id="calculator">
<g id="vuesax/outline/calculator">
<g id="calculator_2">
<path id="Vector" d="M9.33333 15.1663H6.66667C3.04667 15.1663 1.5 13.6197 1.5 9.99967V5.99967C1.5 2.37967 3.04667 0.833008 6.66667 0.833008H9.33333C12.9533 0.833008 14.5 2.37967 14.5 5.99967V9.99967C14.5 13.6197 12.9533 15.1663 9.33333 15.1663ZM6.66667 1.83301C3.59333 1.83301 2.5 2.92634 2.5 5.99967V9.99967C2.5 13.073 3.59333 14.1663 6.66667 14.1663H9.33333C12.4067 14.1663 13.5 13.073 13.5 9.99967V5.99967C13.5 2.92634 12.4067 1.83301 9.33333 1.83301H6.66667Z" fill="currentColor"/>
<path id="Vector_2" d="M10 7.22038H6C5.17333 7.22038 4.5 6.54704 4.5 5.72038V5.05371C4.5 4.22704 5.17333 3.55371 6 3.55371H10C10.8267 3.55371 11.5 4.22704 11.5 5.05371V5.72038C11.5 6.54704 10.8267 7.22038 10 7.22038ZM6 4.55371C5.72667 4.55371 5.5 4.78038 5.5 5.05371V5.72038C5.5 5.99371 5.72667 6.22038 6 6.22038H10C10.2733 6.22038 10.5 5.99371 10.5 5.72038V5.05371C10.5 4.78038 10.2733 4.55371 10 4.55371H6Z" fill="currentColor"/>
<path id="Vector_3" d="M5.43344 9.94623C5.34677 9.94623 5.2601 9.92623 5.1801 9.89289C5.1001 9.85956 5.02677 9.81289 4.96677 9.75289C4.8401 9.62623 4.77344 9.45956 4.77344 9.27956C4.77344 9.19289 4.78677 9.10623 4.8201 9.02623C4.85344 8.93956 4.9001 8.87289 4.96677 8.80623C4.99344 8.77956 5.02677 8.74623 5.06677 8.72623C5.1001 8.69956 5.1401 8.67956 5.1801 8.66623C5.2201 8.64623 5.26677 8.63289 5.30677 8.62623C5.5201 8.57956 5.75344 8.65289 5.90677 8.80623C5.96677 8.86623 6.0201 8.93956 6.05344 9.02623C6.08677 9.10623 6.10677 9.19289 6.10677 9.27956C6.10677 9.45956 6.03344 9.62623 5.90677 9.75289C5.7801 9.87956 5.61344 9.94623 5.43344 9.94623Z" fill="currentColor"/>
<path id="Vector_4" d="M8.10661 9.94661C7.92661 9.94661 7.75994 9.87995 7.63327 9.75328C7.50661 9.62661 7.43994 9.45995 7.43994 9.27995C7.43994 9.19328 7.45327 9.10661 7.48661 9.02661C7.51994 8.93995 7.56661 8.87328 7.63327 8.80661C7.65994 8.77995 7.69328 8.74661 7.73328 8.72661C7.76661 8.69995 7.80661 8.67995 7.84661 8.66661C7.88661 8.64661 7.93327 8.63328 7.97327 8.62661C8.09994 8.59995 8.23327 8.61328 8.35994 8.66661C8.43994 8.69995 8.51327 8.74661 8.57327 8.80661C8.63327 8.87328 8.68661 8.93995 8.71994 9.02661C8.75327 9.10661 8.77327 9.19328 8.77327 9.27995C8.77327 9.45995 8.69994 9.62661 8.57327 9.75328C8.44661 9.87995 8.27994 9.94661 8.10661 9.94661Z" fill="currentColor"/>
<path id="Vector_5" d="M10.7664 9.94707C10.6798 9.94707 10.5931 9.92707 10.5131 9.89374C10.4331 9.8604 10.3598 9.81374 10.2998 9.75374C10.2331 9.68707 10.1864 9.61374 10.1531 9.53374C10.1198 9.45374 10.1064 9.36707 10.1064 9.2804C10.1064 9.19374 10.1198 9.10707 10.1531 9.02707C10.1864 8.9404 10.2331 8.87374 10.2998 8.80707C10.5464 8.5604 10.9931 8.5604 11.2398 8.80707C11.3664 8.93374 11.4398 9.10707 11.4398 9.2804C11.4398 9.4604 11.3664 9.62707 11.2398 9.75374C11.1198 9.87374 10.9531 9.94707 10.7664 9.94707Z" fill="currentColor"/>
<path id="Vector_6" d="M5.43993 12.6136C5.25993 12.6136 5.09327 12.5469 4.9666 12.4203C4.83993 12.2936 4.7666 12.1269 4.7666 11.9469C4.7666 11.7736 4.83993 11.6003 4.9666 11.4736C4.99327 11.4469 5.03327 11.4136 5.0666 11.3936C5.09993 11.3669 5.13993 11.3469 5.17993 11.3336C5.21993 11.3136 5.2666 11.3003 5.3066 11.2936C5.5266 11.2536 5.75327 11.3203 5.9066 11.4736C5.93993 11.5069 5.9666 11.5403 5.99327 11.5736C6.01327 11.6136 6.03327 11.6536 6.05327 11.6936C6.0666 11.7336 6.07993 11.7736 6.09327 11.8136C6.09993 11.8603 6.1066 11.9003 6.1066 11.9469C6.1066 12.1269 6.03327 12.2936 5.9066 12.4203C5.77993 12.5469 5.61327 12.6136 5.43993 12.6136Z" fill="currentColor"/>
<path id="Vector_7" d="M8.10644 12.6136C7.92644 12.6136 7.75977 12.5469 7.63311 12.4203C7.50644 12.2936 7.43311 12.1269 7.43311 11.9469C7.43311 11.7736 7.50644 11.6003 7.63311 11.4736C7.78644 11.3203 8.01977 11.2536 8.23311 11.2936C8.27311 11.3003 8.31977 11.3136 8.35977 11.3336C8.39977 11.3469 8.43977 11.3669 8.47311 11.3936C8.50644 11.4136 8.53977 11.4469 8.57311 11.4736C8.69977 11.6003 8.76644 11.7736 8.76644 11.9469C8.76644 12.1269 8.69977 12.2936 8.57311 12.4203C8.44644 12.5469 8.27977 12.6136 8.10644 12.6136Z" fill="currentColor"/>
<path id="Vector_8" d="M10.7664 12.6138C10.5931 12.6138 10.4264 12.5471 10.2998 12.4205C10.1731 12.2938 10.1064 12.1271 10.1064 11.9471C10.1064 11.7738 10.1731 11.6005 10.2998 11.4738C10.3598 11.4138 10.4331 11.3671 10.5131 11.3338C10.7598 11.2338 11.0598 11.2871 11.2398 11.4738C11.3664 11.6005 11.4331 11.7738 11.4331 11.9471C11.4331 12.1271 11.3664 12.2938 11.2398 12.4205C11.1798 12.4805 11.1064 12.5271 11.0264 12.5605C10.9464 12.5938 10.8598 12.6138 10.7664 12.6138Z" fill="currentColor"/>
</g>
</g>
</g>
</svg>
