<svg width="20" height="20" viewBox="0 0 20 20" fill="none" xmlns="http://www.w3.org/2000/svg">
<path d="M9.99984 1.66669C5.40817 1.66669 1.6665 5.40835 1.6665 10C1.6665 14.5917 5.40817 18.3334 9.99984 18.3334C14.5915 18.3334 18.3332 14.5917 18.3332 10C18.3332 5.40835 14.5915 1.66669 9.99984 1.66669ZM13.6248 12.975C13.5082 13.175 13.2998 13.2834 13.0832 13.2834C12.9748 13.2834 12.8665 13.2584 12.7665 13.1917L10.1832 11.65C9.5415 11.2667 9.0665 10.425 9.0665 9.68335V6.26669C9.0665 5.92502 9.34984 5.64169 9.6915 5.64169C10.0332 5.64169 10.3165 5.92502 10.3165 6.26669V9.68335C10.3165 9.98335 10.5665 10.425 10.8248 10.575L13.4082 12.1167C13.7082 12.2917 13.8082 12.675 13.6248 12.975Z" fill="white"/>
</svg>
