<svg width="20" height="20" viewBox="0 0 20 20" fill="none" xmlns="http://www.w3.org/2000/svg">
<path d="M7.64165 12.9834C7.48332 12.9834 7.32499 12.925 7.19999 12.8C6.95832 12.5584 6.95832 12.1584 7.19999 11.9167L11.9167 7.20005C12.1583 6.95838 12.5583 6.95838 12.8 7.20005C13.0417 7.44172 13.0417 7.84172 12.8 8.08338L8.08332 12.8C7.96665 12.925 7.79999 12.9834 7.64165 12.9834Z" fill="white"/>
<path d="M12.3583 12.9834C12.2 12.9834 12.0417 12.925 11.9167 12.8L7.19999 8.08338C6.95832 7.84172 6.95832 7.44172 7.19999 7.20005C7.44165 6.95838 7.84165 6.95838 8.08332 7.20005L12.8 11.9167C13.0417 12.1584 13.0417 12.5584 12.8 12.8C12.675 12.925 12.5167 12.9834 12.3583 12.9834Z" fill="white"/>
<path d="M12.5 18.9584H7.50002C2.97502 18.9584 1.04169 17.0251 1.04169 12.5001V7.50008C1.04169 2.97508 2.97502 1.04175 7.50002 1.04175H12.5C17.025 1.04175 18.9584 2.97508 18.9584 7.50008V12.5001C18.9584 17.0251 17.025 18.9584 12.5 18.9584ZM7.50002 2.29175C3.65835 2.29175 2.29169 3.65841 2.29169 7.50008V12.5001C2.29169 16.3417 3.65835 17.7084 7.50002 17.7084H12.5C16.3417 17.7084 17.7084 16.3417 17.7084 12.5001V7.50008C17.7084 3.65841 16.3417 2.29175 12.5 2.29175H7.50002Z" fill="white"/>
</svg>
