<svg width="48" height="48" viewBox="0 0 48 48" fill="none" xmlns="http://www.w3.org/2000/svg">
<path opacity="0.4" d="M24 44C35.0457 44 44 35.0457 44 24C44 12.9543 35.0457 4 24 4C12.9543 4 4 12.9543 4 24C4 35.0457 12.9543 44 24 44Z" fill="#FF6F61"/>
<path d="M26.1207 24L30.7207 19.4C31.3007 18.82 31.3007 17.86 30.7207 17.28C30.1407 16.7 29.1807 16.7 28.6007 17.28L24.0007 21.88L19.4007 17.28C18.8207 16.7 17.8607 16.7 17.2807 17.28C16.7007 17.86 16.7007 18.82 17.2807 19.4L21.8807 24L17.2807 28.6C16.7007 29.18 16.7007 30.14 17.2807 30.72C17.5807 31.02 17.9607 31.16 18.3407 31.16C18.7207 31.16 19.1007 31.02 19.4007 30.72L24.0007 26.12L28.6007 30.72C28.9007 31.02 29.2807 31.16 29.6607 31.16C30.0407 31.16 30.4207 31.02 30.7207 30.72C31.3007 30.14 31.3007 29.18 30.7207 28.6L26.1207 24Z" fill="#FF6F61"/>
</svg>
