<svg width="40" height="40" viewBox="0 0 40 40" fill="none" xmlns="http://www.w3.org/2000/svg">
<path d="M20.0002 3.33334C10.8168 3.33334 3.3335 10.8167 3.3335 20C3.3335 29.1833 10.8168 36.6667 20.0002 36.6667C29.1835 36.6667 36.6668 29.1833 36.6668 20C36.6668 10.8167 29.1835 3.33334 20.0002 3.33334ZM25.6002 23.8333C26.0835 24.3167 26.0835 25.1167 25.6002 25.6C25.3502 25.85 25.0335 25.9667 24.7168 25.9667C24.4002 25.9667 24.0835 25.85 23.8335 25.6L20.0002 21.7667L16.1668 25.6C15.9168 25.85 15.6002 25.9667 15.2835 25.9667C14.9668 25.9667 14.6502 25.85 14.4002 25.6C13.9168 25.1167 13.9168 24.3167 14.4002 23.8333L18.2335 20L14.4002 16.1667C13.9168 15.6833 13.9168 14.8833 14.4002 14.4C14.8835 13.9167 15.6835 13.9167 16.1668 14.4L20.0002 18.2333L23.8335 14.4C24.3168 13.9167 25.1168 13.9167 25.6002 14.4C26.0835 14.8833 26.0835 15.6833 25.6002 16.1667L21.7668 20L25.6002 23.8333Z" fill="#FC753F"/>
</svg>
