<svg width="20" height="20" viewBox="0 0 20 20" fill="none" xmlns="http://www.w3.org/2000/svg">
<path d="M9.99992 18.9584C6.66659 18.9584 3.95825 16.5667 3.95825 13.625V10.5417C3.95825 10.2 4.24159 9.91669 4.58325 9.91669C4.92492 9.91669 5.20825 10.2 5.20825 10.5417C5.20825 12.725 7.26659 14.375 9.99992 14.375C12.7333 14.375 14.7916 12.725 14.7916 10.5417C14.7916 10.2 15.0749 9.91669 15.4166 9.91669C15.7583 9.91669 16.0416 10.2 16.0416 10.5417V13.625C16.0416 16.5667 13.3333 18.9584 9.99992 18.9584ZM5.20825 13.7167C5.26659 15.925 7.39159 17.7084 9.99992 17.7084C12.6083 17.7084 14.7333 15.925 14.7916 13.7167C13.7083 14.8917 11.9916 15.625 9.99992 15.625C8.00825 15.625 6.29992 14.8917 5.20825 13.7167Z" fill="current"/>
<path d="M9.99992 11.4583C7.69992 11.4583 5.63324 10.425 4.62491 8.75834C4.19158 8.05 3.95825 7.22501 3.95825 6.37501C3.95825 4.94167 4.59992 3.59167 5.75826 2.57501C6.89159 1.58334 8.39992 1.04167 9.99992 1.04167C11.5999 1.04167 13.0999 1.58334 14.2416 2.56667C15.3999 3.59167 16.0416 4.94167 16.0416 6.37501C16.0416 7.22501 15.8083 8.04167 15.3749 8.75834C14.3666 10.425 12.2999 11.4583 9.99992 11.4583ZM9.99992 2.29167C8.69992 2.29167 7.48326 2.725 6.57493 3.525C5.6916 4.29167 5.20825 5.30834 5.20825 6.37501C5.20825 7.00001 5.37491 7.58334 5.69157 8.10834C6.48324 9.40834 8.13325 10.2083 9.99992 10.2083C11.8666 10.2083 13.5166 9.4 14.3083 8.10834C14.6333 7.58334 14.7916 7.00001 14.7916 6.37501C14.7916 5.30834 14.3083 4.29167 13.4166 3.50834C12.5083 2.725 11.2999 2.29167 9.99992 2.29167Z" fill="current"/>
<path d="M9.99992 15.625C6.55825 15.625 3.95825 13.4417 3.95825 10.5417V6.37501C3.95825 3.43334 6.66659 1.04167 9.99992 1.04167C11.5999 1.04167 13.0999 1.58334 14.2416 2.56667C15.3999 3.59167 16.0416 4.94167 16.0416 6.37501V10.5417C16.0416 13.4417 13.4416 15.625 9.99992 15.625ZM9.99992 2.29167C7.35825 2.29167 5.20825 4.12501 5.20825 6.37501V7.20834C5.20825 9.39167 7.26659 11.0417 9.99992 11.0417C12.7333 11.0417 14.7916 9.39167 14.7916 7.20834V6.37501C14.7916 5.30834 14.3083 4.29167 13.4166 3.50834C12.5083 2.725 11.2999 2.29167 9.99992 2.29167Z" fill="current"/>
</svg>
