<svg width="21" height="20" viewBox="0 0 21 20" fill="none" xmlns="http://www.w3.org/2000/svg">
<path d="M9.875 15.2081H8C7.08333 15.2081 6.33333 15.9581 6.33333 16.8748V17.0831H5.5C5.15833 17.0831 4.875 17.3665 4.875 17.7081C4.875 18.0498 5.15833 18.3331 5.5 18.3331H15.5C15.8417 18.3331 16.125 18.0498 16.125 17.7081C16.125 17.3665 15.8417 17.0831 15.5 17.0831H14.6667V16.8748C14.6667 15.9581 13.9167 15.2081 13 15.2081H11.125V13.2998C10.9167 13.3248 10.7083 13.3331 10.5 13.3331C10.2917 13.3331 10.0833 13.3248 9.875 13.2998V15.2081Z" fill="#FC753F"/>
<path d="M15.8999 9.69984C16.4499 9.4915 16.9332 9.14984 17.3166 8.7665C18.0916 7.90817 18.5999 6.88317 18.5999 5.68317C18.5999 4.48317 17.6582 3.5415 16.4582 3.5415H15.9916C15.4499 2.43317 14.3166 1.6665 12.9999 1.6665H7.9999C6.68324 1.6665 5.5499 2.43317 5.00824 3.5415H4.54157C3.34157 3.5415 2.3999 4.48317 2.3999 5.68317C2.3999 6.88317 2.90824 7.90817 3.68324 8.7665C4.06657 9.14984 4.5499 9.4915 5.0999 9.69984C5.96657 11.8332 8.0499 13.3332 10.4999 13.3332C12.9499 13.3332 15.0332 11.8332 15.8999 9.69984ZM12.8666 7.0415L12.3499 7.67484C12.2666 7.7665 12.2082 7.94984 12.2166 8.07484L12.2666 8.8915C12.2999 9.3915 11.9416 9.64984 11.4749 9.4665L10.7166 9.1665C10.5999 9.12484 10.3999 9.12484 10.2832 9.1665L9.5249 9.4665C9.05824 9.64984 8.6999 9.3915 8.73324 8.8915L8.78324 8.07484C8.79157 7.94984 8.73324 7.7665 8.6499 7.67484L8.13324 7.0415C7.80824 6.65817 7.9499 6.23317 8.43324 6.10817L9.2249 5.90817C9.3499 5.87484 9.4999 5.75817 9.56657 5.64984L10.0082 4.9665C10.2832 4.5415 10.7166 4.5415 10.9916 4.9665L11.4332 5.64984C11.4999 5.75817 11.6499 5.87484 11.7749 5.90817L12.5666 6.10817C13.0499 6.23317 13.1916 6.65817 12.8666 7.0415Z" fill="#FC753F"/>
</svg>
