<svg width="21" height="20" viewBox="0 0 21 20" fill="none" xmlns="http://www.w3.org/2000/svg">
<path d="M9.875 15.2084H8C7.08333 15.2084 6.33333 15.9584 6.33333 16.875V17.0834H5.5C5.15833 17.0834 4.875 17.3667 4.875 17.7084C4.875 18.05 5.15833 18.3334 5.5 18.3334H15.5C15.8417 18.3334 16.125 18.05 16.125 17.7084C16.125 17.3667 15.8417 17.0834 15.5 17.0834H14.6667V16.875C14.6667 15.9584 13.9167 15.2084 13 15.2084H11.125V13.3C10.9167 13.325 10.7083 13.3334 10.5 13.3334C10.2917 13.3334 10.0833 13.325 9.875 13.3V15.2084Z" fill="#181536"/>
<path d="M15.8999 9.69996C16.4499 9.49163 16.9332 9.14996 17.3166 8.76663C18.0916 7.90829 18.5999 6.88329 18.5999 5.68329C18.5999 4.48329 17.6582 3.54163 16.4582 3.54163H15.9916C15.4499 2.43329 14.3166 1.66663 12.9999 1.66663H7.9999C6.68324 1.66663 5.5499 2.43329 5.00824 3.54163H4.54157C3.34157 3.54163 2.3999 4.48329 2.3999 5.68329C2.3999 6.88329 2.90824 7.90829 3.68324 8.76663C4.06657 9.14996 4.5499 9.49163 5.0999 9.69996C5.96657 11.8333 8.0499 13.3333 10.4999 13.3333C12.9499 13.3333 15.0332 11.8333 15.8999 9.69996ZM12.8666 7.04163L12.3499 7.67496C12.2666 7.76663 12.2082 7.94996 12.2166 8.07496L12.2666 8.89163C12.2999 9.39163 11.9416 9.64996 11.4749 9.46663L10.7166 9.16663C10.5999 9.12496 10.3999 9.12496 10.2832 9.16663L9.5249 9.46663C9.05824 9.64996 8.6999 9.39163 8.73324 8.89163L8.78324 8.07496C8.79157 7.94996 8.73324 7.76663 8.6499 7.67496L8.13324 7.04163C7.80824 6.65829 7.9499 6.23329 8.43324 6.10829L9.2249 5.90829C9.3499 5.87496 9.4999 5.75829 9.56657 5.64996L10.0082 4.96663C10.2832 4.54163 10.7166 4.54163 10.9916 4.96663L11.4332 5.64996C11.4999 5.75829 11.6499 5.87496 11.7749 5.90829L12.5666 6.10829C13.0499 6.23329 13.1916 6.65829 12.8666 7.04163Z" fill="#181536"/>
</svg>
