<svg width="21" height="20" viewBox="0 0 21 20" fill="none" xmlns="http://www.w3.org/2000/svg">
<path d="M9.875 15.2083H8C7.08333 15.2083 6.33333 15.9583 6.33333 16.875V17.0833H5.5C5.15833 17.0833 4.875 17.3667 4.875 17.7083C4.875 18.05 5.15833 18.3333 5.5 18.3333H15.5C15.8417 18.3333 16.125 18.05 16.125 17.7083C16.125 17.3667 15.8417 17.0833 15.5 17.0833H14.6667V16.875C14.6667 15.9583 13.9167 15.2083 13 15.2083H11.125V13.3C10.9167 13.325 10.7083 13.3333 10.5 13.3333C10.2917 13.3333 10.0833 13.325 9.875 13.3V15.2083Z" fill="#FEF156"/>
<path d="M15.8999 9.70002C16.4499 9.49169 16.9332 9.15002 17.3166 8.76669C18.0916 7.90835 18.5999 6.88335 18.5999 5.68335C18.5999 4.48335 17.6582 3.54169 16.4582 3.54169H15.9916C15.4499 2.43335 14.3166 1.66669 12.9999 1.66669H7.9999C6.68324 1.66669 5.5499 2.43335 5.00824 3.54169H4.54157C3.34157 3.54169 2.3999 4.48335 2.3999 5.68335C2.3999 6.88335 2.90824 7.90835 3.68324 8.76669C4.06657 9.15002 4.5499 9.49169 5.0999 9.70002C5.96657 11.8334 8.0499 13.3334 10.4999 13.3334C12.9499 13.3334 15.0332 11.8334 15.8999 9.70002ZM12.8666 7.04169L12.3499 7.67502C12.2666 7.76669 12.2082 7.95002 12.2166 8.07502L12.2666 8.89169C12.2999 9.39169 11.9416 9.65002 11.4749 9.46669L10.7166 9.16669C10.5999 9.12502 10.3999 9.12502 10.2832 9.16669L9.5249 9.46669C9.05824 9.65002 8.6999 9.39169 8.73324 8.89169L8.78324 8.07502C8.79157 7.95002 8.73324 7.76669 8.6499 7.67502L8.13324 7.04169C7.80824 6.65835 7.9499 6.23335 8.43324 6.10835L9.2249 5.90835C9.3499 5.87502 9.4999 5.75835 9.56657 5.65002L10.0082 4.96669C10.2832 4.54169 10.7166 4.54169 10.9916 4.96669L11.4332 5.65002C11.4999 5.75835 11.6499 5.87502 11.7749 5.90835L12.5666 6.10835C13.0499 6.23335 13.1916 6.65835 12.8666 7.04169Z" fill="#FEF156"/>
</svg>
