<svg width="20" height="20" viewBox="0 0 20 20" fill="none" xmlns="http://www.w3.org/2000/svg">
<path d="M12.5 18.9582H7.49996C2.97496 18.9582 1.04163 17.0248 1.04163 12.4998V7.49984C1.04163 2.97484 2.97496 1.0415 7.49996 1.0415H12.5C17.025 1.0415 18.9583 2.97484 18.9583 7.49984V12.4998C18.9583 17.0248 17.025 18.9582 12.5 18.9582ZM7.49996 2.2915C3.65829 2.2915 2.29163 3.65817 2.29163 7.49984V12.4998C2.29163 16.3415 3.65829 17.7082 7.49996 17.7082H12.5C16.3416 17.7082 17.7083 16.3415 17.7083 12.4998V7.49984C17.7083 3.65817 16.3416 2.2915 12.5 2.2915H7.49996Z" fill="#5A6178"/>
<path d="M12.9166 8.75C11.8833 8.75 11.0416 7.90833 11.0416 6.875C11.0416 5.84167 11.8833 5 12.9166 5C13.95 5 14.7916 5.84167 14.7916 6.875C14.7916 7.90833 13.95 8.75 12.9166 8.75ZM12.9166 6.25C12.575 6.25 12.2916 6.53333 12.2916 6.875C12.2916 7.21667 12.575 7.5 12.9166 7.5C13.2583 7.5 13.5416 7.21667 13.5416 6.875C13.5416 6.53333 13.2583 6.25 12.9166 6.25Z" fill="#5A6178"/>
<path d="M7.08337 8.75C6.05004 8.75 5.20837 7.90833 5.20837 6.875C5.20837 5.84167 6.05004 5 7.08337 5C8.11671 5 8.95837 5.84167 8.95837 6.875C8.95837 7.90833 8.11671 8.75 7.08337 8.75ZM7.08337 6.25C6.74171 6.25 6.45837 6.53333 6.45837 6.875C6.45837 7.21667 6.74171 7.5 7.08337 7.5C7.42504 7.5 7.70837 7.21667 7.70837 6.875C7.70837 6.53333 7.42504 6.25 7.08337 6.25Z" fill="#5A6178"/>
<path d="M10 16.2085C7.58333 16.2085 5.625 14.2418 5.625 11.8335C5.625 11.0752 6.24167 10.4585 7 10.4585H13C13.7583 10.4585 14.375 11.0752 14.375 11.8335C14.375 14.2418 12.4167 16.2085 10 16.2085ZM7 11.7085C6.93333 11.7085 6.875 11.7668 6.875 11.8335C6.875 13.5585 8.275 14.9585 10 14.9585C11.725 14.9585 13.125 13.5585 13.125 11.8335C13.125 11.7668 13.0667 11.7085 13 11.7085H7Z" fill="#5A6178"/>
</svg>
