<svg width="40" height="40" viewBox="0 0 40 40" fill="none" xmlns="http://www.w3.org/2000/svg">
    <path
        d="M36.6663 26.9833C36.6663 33.0499 33.0497 36.6666 26.983 36.6666H24.9997C24.083 36.6666 23.333 35.9166 23.333 34.9999V25.3833C23.333 24.9333 23.6997 24.5499 24.1497 24.5499L27.083 24.4999C27.3163 24.4833 27.5164 24.3166 27.5664 24.0833L28.1497 20.8999C28.1997 20.5999 27.9663 20.3166 27.6497 20.3166L24.0997 20.3666C23.633 20.3666 23.2664 19.9999 23.2497 19.5499L23.183 15.4666C23.183 15.1999 23.3997 14.9666 23.683 14.9666L27.683 14.8999C27.9663 14.8999 28.183 14.6833 28.183 14.3999L28.1163 10.3999C28.1163 10.1166 27.8997 9.89992 27.6164 9.89992L23.1163 9.9666C20.3497 10.0166 18.1497 12.2833 18.1997 15.0499L18.283 19.6333C18.2997 20.0999 17.933 20.4666 17.4664 20.4833L15.4663 20.5166C15.183 20.5166 14.9664 20.7332 14.9664 21.0166L15.0164 24.1833C15.0164 24.4666 15.233 24.6832 15.5163 24.6832L17.5164 24.6499C17.983 24.6499 18.3497 25.0166 18.3663 25.4666L18.5163 34.9666C18.533 35.8999 17.783 36.6666 16.8497 36.6666H13.0163C6.94967 36.6666 3.33301 33.0499 3.33301 26.9666V13.0166C3.33301 6.94991 6.94967 3.33325 13.0163 3.33325H26.983C33.0497 3.33325 36.6663 6.94991 36.6663 13.0166V26.9833Z"
        fill="current" />
</svg>