<svg width="33" height="32" viewBox="0 0 33 32" fill="none" xmlns="http://www.w3.org/2000/svg">
<path d="M16.7 30.3334C11.3667 30.3334 7.03334 26.5067 7.03334 21.8V16.8667C7.03334 16.32 7.48667 15.8667 8.03334 15.8667C8.58 15.8667 9.03334 16.32 9.03334 16.8667C9.03334 20.36 12.3267 23 16.7 23C21.0733 23 24.3667 20.36 24.3667 16.8667C24.3667 16.32 24.82 15.8667 25.3667 15.8667C25.9133 15.8667 26.3667 16.32 26.3667 16.8667V21.8C26.3667 26.5067 22.0333 30.3334 16.7 30.3334ZM9.03334 21.9467C9.12667 25.48 12.5267 28.3334 16.7 28.3334C20.8733 28.3334 24.2733 25.48 24.3667 21.9467C22.6333 23.8267 19.8867 25 16.7 25C13.5133 25 10.78 23.8267 9.03334 21.9467Z" fill="current"/>
<path d="M16.7 18.3334C13.02 18.3334 9.71332 16.6801 8.09999 14.0134C7.40665 12.8801 7.03334 11.5601 7.03334 10.2001C7.03334 7.90675 8.06001 5.74675 9.91334 4.12008C11.7267 2.53341 14.14 1.66675 16.7 1.66675C19.26 1.66675 21.66 2.53342 23.4867 4.10675C25.34 5.74675 26.3667 7.90675 26.3667 10.2001C26.3667 11.5601 25.9934 12.8667 25.3 14.0134C23.6867 16.6801 20.38 18.3334 16.7 18.3334ZM16.7 3.66675C14.62 3.66675 12.6734 4.36008 11.22 5.64008C9.80669 6.86675 9.03334 8.49342 9.03334 10.2001C9.03334 11.2001 9.29999 12.1334 9.80665 12.9734C11.0733 15.0534 13.7133 16.3334 16.7 16.3334C19.6867 16.3334 22.3267 15.0401 23.5934 12.9734C24.1134 12.1334 24.3667 11.2001 24.3667 10.2001C24.3667 8.49342 23.5933 6.86675 22.1667 5.61341C20.7133 4.36008 18.78 3.66675 16.7 3.66675Z" fill="current"/>
<path d="M16.7 25.0001C11.1933 25.0001 7.03334 21.5068 7.03334 16.8668V10.2001C7.03334 5.49342 11.3667 1.66675 16.7 1.66675C19.26 1.66675 21.66 2.53342 23.4867 4.10675C25.34 5.74675 26.3667 7.90675 26.3667 10.2001V16.8668C26.3667 21.5068 22.2067 25.0001 16.7 25.0001ZM16.7 3.66675C12.4733 3.66675 9.03334 6.60008 9.03334 10.2001V16.8668C9.03334 20.3601 12.3267 23.0001 16.7 23.0001C21.0733 23.0001 24.3667 20.3601 24.3667 16.8668V10.2001C24.3667 8.49342 23.5933 6.86675 22.1667 5.61341C20.7133 4.36008 18.78 3.66675 16.7 3.66675Z" fill="current"/>
</svg>
