<svg width="33" height="32" viewBox="0 0 33 32" fill="none" xmlns="http://www.w3.org/2000/svg">
<path d="M19.364 6.29336C19.0688 5.79685 18.6496 5.38561 18.1475 5.1C17.6454 4.81439 17.0777 4.66422 16.5 4.66422C15.9224 4.66422 15.3547 4.81439 14.8526 5.1C14.3505 5.38561 13.9312 5.79685 13.636 6.29336C13.042 5.97166 12.4093 5.72702 11.7534 5.56536C12.2009 4.69175 12.8809 3.95861 13.7184 3.44666C14.5559 2.93471 15.5184 2.66382 16.5 2.66382C17.4816 2.66382 18.4442 2.93471 19.2817 3.44666C20.1192 3.95861 20.7991 4.69175 21.2467 5.56536C20.5907 5.727 19.9581 5.97164 19.364 6.29336ZM13.012 9.91603C13.7287 9.66857 14.4698 9.49871 15.2227 9.40936C14.6554 8.63158 13.9265 7.98586 13.0859 7.51662C12.2454 7.04739 11.3132 6.76575 10.3534 6.69109C9.39363 6.61643 8.42908 6.75051 7.52607 7.08411C6.62306 7.41771 5.80301 7.94293 5.1223 8.62363C4.44159 9.30434 3.91638 10.1244 3.58278 11.0274C3.24918 11.9304 3.1151 12.895 3.18976 13.8547C3.26442 14.8145 3.54605 15.7467 4.01529 16.5873C4.48453 17.4278 5.13024 18.1568 5.90803 18.724C5.99773 17.9706 6.16804 17.2291 6.41603 16.512C5.58889 15.6278 5.13777 14.4568 5.15794 13.2462C5.17811 12.0356 5.66799 10.8803 6.52413 10.0241C7.38027 9.16799 8.53563 8.67811 9.74622 8.65794C10.9568 8.63777 12.1278 9.08889 13.012 9.91603ZM27.092 18.7227C27.8698 18.1554 28.5155 17.4265 28.9848 16.5859C29.454 15.7454 29.7356 14.8132 29.8103 13.8534C29.885 12.8936 29.7509 11.9291 29.4173 11.0261C29.0837 10.1231 28.5585 9.303 27.8778 8.6223C27.1971 7.94159 26.377 7.41638 25.474 7.08278C24.571 6.74918 23.6064 6.6151 22.6467 6.68976C21.6869 6.76442 20.7547 7.04605 19.9141 7.51529C19.0736 7.98453 18.3446 8.63024 17.7774 9.40803C18.5303 9.49782 19.2714 9.66813 19.988 9.91603C20.8722 9.08889 22.0433 8.63777 23.2538 8.65794C24.4644 8.67811 25.6198 9.16799 26.4759 10.0241C27.3321 10.8803 27.8219 12.0356 27.8421 13.2462C27.8623 14.4568 27.4112 15.6278 26.584 16.512C26.828 17.2187 27.0014 17.9587 27.092 18.7227ZM13.1667 17.6667C13.1667 17.4015 13.2721 17.1471 13.4596 16.9596C13.6471 16.7721 13.9015 16.6667 14.1667 16.6667H19.8334C20.0365 16.6668 20.2348 16.7288 20.4018 16.8445C20.5689 16.9601 20.6967 17.1238 20.7684 17.3139C20.8401 17.504 20.8521 17.7114 20.803 17.9085C20.7539 18.1057 20.6459 18.2831 20.4934 18.4174V18.4187L20.476 18.4334L20.4054 18.5C19.9607 18.935 19.5484 19.4021 19.172 19.8974C18.4294 20.872 17.588 22.2574 17.132 23.9294C17.0975 24.0561 17.0384 24.1749 16.958 24.2788C16.8777 24.3827 16.7776 24.4698 16.6636 24.535C16.5495 24.6003 16.4238 24.6424 16.2934 24.6591C16.1631 24.6757 16.0308 24.6665 15.904 24.632C15.7773 24.5975 15.6585 24.5384 15.5546 24.458C15.4507 24.3776 15.3636 24.2776 15.2984 24.1636C15.2331 24.0495 15.191 23.9238 15.1743 23.7934C15.1577 23.6631 15.1669 23.5308 15.2014 23.404C15.7454 21.4094 16.7374 19.7947 17.5787 18.6867L17.5934 18.6667H14.1667C13.9015 18.6667 13.6471 18.5613 13.4596 18.3738C13.2721 18.1863 13.1667 17.9319 13.1667 17.6667ZM16.5 29.3334C18.9754 29.3334 21.3494 28.35 23.0997 26.5997C24.85 24.8493 25.8334 22.4754 25.8334 20C25.8334 17.5247 24.85 15.1507 23.0997 13.4004C21.3494 11.65 18.9754 10.6667 16.5 10.6667C14.0247 10.6667 11.6507 11.65 9.90037 13.4004C8.15003 15.1507 7.1667 17.5247 7.1667 20C7.1667 22.4754 8.15003 24.8493 9.90037 26.5997C11.6507 28.35 14.0247 29.3334 16.5 29.3334ZM16.5 27.3334C14.5551 27.3334 12.6898 26.5607 11.3146 25.1855C9.93931 23.8102 9.1667 21.9449 9.1667 20C9.1667 18.0551 9.93931 16.1898 11.3146 14.8146C12.6898 13.4393 14.5551 12.6667 16.5 12.6667C18.445 12.6667 20.3102 13.4393 21.6855 14.8146C23.0607 16.1898 23.8334 18.0551 23.8334 20C23.8334 21.9449 23.0607 23.8102 21.6855 25.1855C20.3102 26.5607 18.445 27.3334 16.5 27.3334Z" fill="current"/>
</svg>
