<svg viewBox="0 0 32 32" fill="none" xmlns="http://www.w3.org/2000/svg">
<path d="M7.89793 18.8261C7.61346 18.8261 7.32474 18.7873 7.03794 18.7058C6.49124 18.5505 6.17418 17.9821 6.32972 17.4361C6.48527 16.8902 7.05489 16.5736 7.60125 16.7288C8.17863 16.8928 8.78139 16.5575 8.94558 15.9812C9.10977 15.405 8.77391 14.8028 8.19688 14.6388C6.17294 14.0711 4.34311 12.6669 3.04778 10.6857C1.74517 8.69335 1.05664 6.29164 1.05664 3.74028V3.73232C1.06021 2.7292 1.45329 1.79093 2.1635 1.08669C2.87048 0.385603 3.80759 0 4.80337 0C4.80796 0 4.81236 6.86126e-05 4.81695 6.86126e-05C6.88315 0.00741016 8.55819 1.69192 8.55092 3.7551C8.54893 4.32143 8.08847 4.77921 7.5218 4.77921C7.52056 4.77921 7.51933 4.77921 7.51809 4.77921C6.94971 4.77722 6.49055 4.31546 6.49254 3.74789C6.49583 2.81799 5.74089 2.05879 4.80968 2.0555C4.35745 2.05248 3.93391 2.22778 3.61383 2.54518C3.29375 2.86259 3.1166 3.28544 3.11495 3.73589V3.74028C3.11495 5.86082 3.70317 7.92839 4.77133 9.56206C5.79406 11.1264 7.20947 12.2269 8.75683 12.6609C10.4289 13.1361 11.4001 14.8775 10.9253 16.5438C10.5322 17.9237 9.26833 18.826 7.89793 18.8261Z" fill="#FBAC5B"/>
<path d="M24.1021 18.8261C22.7314 18.8263 21.4679 17.9239 21.0746 16.5437C20.5997 14.8775 21.571 13.136 23.2397 12.6618C24.7904 12.2268 26.2059 11.1264 27.2286 9.56206C28.2968 7.92832 28.885 5.86075 28.885 3.74028V3.73232C28.8834 3.28551 28.7062 2.86265 28.3861 2.54518C28.0675 2.22922 27.6451 2.0555 27.1963 2.0555C27.1943 2.0555 27.1923 2.0555 27.1902 2.0555C26.259 2.05879 25.5042 2.81799 25.5074 3.74789C25.5094 4.31546 25.0503 4.77722 24.4819 4.77921C24.4807 4.77921 24.4794 4.77921 24.4782 4.77921C23.9114 4.77921 23.4511 4.3215 23.4491 3.7551C23.4418 1.69192 25.1168 0.00741016 27.183 6.86126e-05C27.1875 6.86126e-05 27.192 0 27.1966 0C28.1925 0 29.1294 0.385603 29.8365 1.08669C30.5468 1.79093 30.9398 2.7292 30.9433 3.72868V3.74028C30.9433 6.29164 30.2548 8.69335 28.9521 10.6857C27.6569 12.6669 25.827 14.0711 23.7997 14.6398C23.226 14.8028 22.8902 15.405 23.0543 15.9812C23.2186 16.5575 23.8216 16.8928 24.3987 16.7289C24.945 16.5736 25.5147 16.8902 25.6702 17.4362C25.8257 17.9821 25.5087 18.5506 24.962 18.7059C24.6755 18.7873 24.3863 18.8261 24.1021 18.8261Z" fill="#FD8F32"/>
<path d="M21.1994 29H10.804C10.2357 29 9.77486 28.5399 9.77486 27.9723C9.77486 25.7216 10.9868 23.67 12.9142 22.5718V18.2743C12.4692 18.0852 12.0428 17.8557 11.6403 17.5885C9.43907 16.1268 8.125 13.6783 8.125 11.0387V1.02775C8.125 0.460185 8.5858 0 9.15419 0H22.8494C23.4178 0 23.8786 0.460116 23.8786 1.02775V11.0387C23.8786 13.6784 22.5644 16.1269 20.3633 17.5885C19.9607 17.8557 19.5343 18.0852 19.0894 18.2743V22.5718C21.0168 23.67 22.2287 25.7216 22.2287 27.9723C22.2286 28.5399 21.7679 29 21.1994 29Z" fill="#FEF156"/>
<path opacity="0.3" d="M20.3634 17.5885C22.5645 16.1269 23.8787 13.6784 23.8787 11.0387V1.02775C23.8787 0.460185 23.4179 0 22.8495 0H16.002V28.9999H21.1996C21.768 28.9999 22.2288 28.5398 22.2288 27.9722C22.2288 25.7215 21.0168 23.6699 19.0895 22.5718V18.2743C19.5345 18.0852 19.9609 17.8557 20.3634 17.5885Z" fill="#FBAC5B"/>
<path d="M18.7457 21.3641H13.2567C12.6883 21.3641 12.2275 20.9039 12.2275 20.3363C12.2275 19.7687 12.6883 19.3086 13.2567 19.3086H18.7457C19.3141 19.3086 19.7749 19.7687 19.7749 20.3363C19.7749 20.9039 19.3141 21.3641 18.7457 21.3641Z" fill="#FBAC5B"/>
<path d="M18.7455 19.3085H16.001V21.3639H18.7455C19.3139 21.3639 19.7747 20.9038 19.7747 20.3362C19.7747 19.7685 19.3139 19.3085 18.7455 19.3085Z" fill="#FD8F32"/>
<path d="M25.0309 32H6.97102C6.4353 32 6.00098 31.7189 6.00098 31.3722V27.6278C6.00098 27.2811 6.4353 27 6.97102 27H25.0309C25.5667 27 26.001 27.2811 26.001 27.6278V31.3722C26.0009 31.7189 25.5666 32 25.0309 32Z" fill="#BA602B"/>
<path d="M25.0309 27H16.001V32H25.0309C25.5667 32 26.001 31.7189 26.001 31.3722V27.6278C26.001 27.2811 25.5667 27 25.0309 27Z" fill="#964C22"/>
<path d="M25.9773 32H6.02344C5.50569 32 5.08594 31.5809 5.08594 31.0638C5.08594 30.5467 5.50569 30.1276 6.02344 30.1276H25.9774C26.4951 30.1276 26.9149 30.5467 26.9149 31.0638C26.9149 31.5809 26.4951 32 25.9773 32Z" fill="#964C22"/>
<path d="M25.9769 30.1277H16V32H25.9769C26.4947 32 26.9144 31.5809 26.9144 31.0638C26.9144 30.5467 26.4947 30.1277 25.9769 30.1277Z" fill="#6F3716"/>
<path d="M15.8246 3.17501L13.1796 5.82001C13.0796 5.92001 13.0796 6.07501 13.1796 6.17501L13.8246 6.82001C13.9246 6.92001 14.0796 6.92001 14.1796 6.82001L15.8246 5.17501C15.9246 5.07501 16.0796 5.07501 16.1796 5.17501L17.8246 6.82001C17.9246 6.92001 18.0796 6.92001 18.1796 6.82001L18.8246 6.17501C18.9246 6.07501 18.9246 5.92001 18.8246 5.82001L16.1796 3.17501C16.0796 3.08001 15.9196 3.08001 15.8246 3.17501Z" fill="#FC753F"/>
<path d="M15.8246 12.825L13.1796 10.18C13.0796 10.08 13.0796 9.92501 13.1796 9.82501L13.8246 9.18001C13.9246 9.08001 14.0796 9.08001 14.1796 9.18001L15.8246 10.825C15.9246 10.925 16.0796 10.925 16.1796 10.825L17.8246 9.18001C17.9246 9.08001 18.0796 9.08001 18.1796 9.18001L18.8246 9.82501C18.9246 9.92501 18.9246 10.08 18.8246 10.18L16.1796 12.825C16.0796 12.92 15.9196 12.92 15.8246 12.825Z" fill="#FC753F"/>
<path d="M20.0496 7.05001L20.8196 7.82001C20.9196 7.92001 20.9196 8.07501 20.8196 8.17501L20.0496 8.94501C19.9496 9.04501 19.7946 9.04501 19.6946 8.94501L18.9246 8.17501C18.8246 8.07501 18.8246 7.92001 18.9246 7.82001L19.6946 7.05001C19.7946 6.95501 19.9546 6.95501 20.0496 7.05001Z" fill="#FC753F"/>
<path d="M12.2996 7.05001L13.0696 7.82001C13.1696 7.92001 13.1696 8.07501 13.0696 8.17501L12.2996 8.94501C12.1996 9.04501 12.0446 9.04501 11.9446 8.94501L11.1746 8.17501C11.0746 8.07501 11.0746 7.92001 11.1746 7.82001L11.9446 7.05001C12.0446 6.95501 12.2046 6.95501 12.2996 7.05001Z" fill="#FC753F"/>
<path d="M16.1746 6.94001L17.0596 7.82501C17.1596 7.92501 17.1596 8.08001 17.0596 8.18001L16.1746 9.06501C16.0746 9.16501 15.9196 9.16501 15.8196 9.06501L14.9346 8.18001C14.8346 8.08001 14.8346 7.92501 14.9346 7.82501L15.8196 6.94001C15.9196 6.84001 16.0796 6.84001 16.1746 6.94001Z" fill="#FC753F"/>
</svg>
