<svg viewBox="0 0 32 32" fill="none" xmlns="http://www.w3.org/2000/svg">
<path d="M17.1412 10.7955C16.2872 8.46749 12.8082 7.70599 9.3697 9.09549C5.9312 10.485 3.8367 13.4955 4.6907 15.824L9.9907 15.647L17.1412 10.7955Z" fill="#FC753F"/>
<path d="M21.2048 14.859C23.5323 15.7125 24.2938 19.192 22.9048 22.63C21.5158 26.068 18.5048 28.163 16.1758 27.3095L16.3523 22.0095L21.2048 14.859Z" fill="#FC753F"/>
<path d="M27.0944 16.2825C24.5629 18.814 19.6099 21.158 15.1339 22.9115L9.08789 16.866C10.8419 12.39 13.1879 7.43649 15.7174 4.90499C20.9999 -0.377012 29.9374 2.06249 29.9374 2.06249C29.9374 2.06249 32.3769 11 27.0944 16.2825Z" fill="#FEF156"/>
<path d="M18.6259 21.45C17.4659 21.97 16.2859 22.46 15.1359 22.91L9.08594 16.865C9.54094 15.715 10.0309 14.535 10.5459 13.375L18.6259 21.45Z" fill="#96A5C0"/>
<path d="M10.339 27.318C7.6055 30.05 1.5 30.5 1.5 30.5C1.5 30.5 1.95 24.3945 4.682 21.661C7.414 18.9275 9.8375 19.0385 11.4 20.6C12.9625 22.1615 13.073 24.5845 10.339 27.318Z" fill="#FF7043"/>
<path d="M10.6873 24.1415C8.92977 25.9 5.03027 26.97 5.03027 26.97C5.03027 26.97 6.10127 23.07 7.85877 21.313C9.61627 19.556 10.6873 19.8985 11.3943 20.606C12.1013 21.3135 12.4443 22.384 10.6873 24.1415Z" fill="#FDD835"/>
<path d="M25.2878 6.46445L21.5472 6.46446C21.4058 6.46446 21.2961 6.57406 21.2961 6.71548L21.2961 7.62765C21.2961 7.76907 21.4058 7.87867 21.5472 7.87867L23.8736 7.87867C24.015 7.87867 24.1246 7.98827 24.1246 8.12969L24.1246 10.4561C24.1246 10.5975 24.2342 10.7071 24.3756 10.7071L25.2878 10.7071C25.4292 10.7071 25.5388 10.5975 25.5388 10.4561L25.5388 6.71548C25.5353 6.57759 25.4221 6.46445 25.2878 6.46445Z" fill="#FC753F"/>
<path d="M18.4642 13.288L18.4642 9.54744C18.4642 9.40602 18.5738 9.29642 18.7152 9.29642L19.6274 9.29642C19.7688 9.29642 19.8784 9.40602 19.8784 9.54744L19.8784 11.8738C19.8784 12.0152 19.988 12.1248 20.1294 12.1248L22.4558 12.1248C22.5972 12.1248 22.7068 12.2344 22.7068 12.3759L22.7068 13.288C22.7068 13.4295 22.5972 13.5391 22.4558 13.5391L18.7152 13.5391C18.5773 13.5355 18.4642 13.4224 18.4642 13.288Z" fill="#FC753F"/>
<path d="M25.5353 12.192L25.5353 13.281C25.5353 13.4224 25.4257 13.532 25.2842 13.532L24.1953 13.532C24.0539 13.532 23.9443 13.4224 23.9443 13.281L23.9443 12.192C23.9443 12.0506 24.0539 11.941 24.1953 11.941L25.2842 11.941C25.4221 11.9445 25.5353 12.0577 25.5353 12.192Z" fill="#FC753F"/>
<path d="M20.0552 6.71195L20.0552 7.80089C20.0552 7.94231 19.9456 8.05191 19.8042 8.05191L18.7152 8.05191C18.5738 8.05191 18.4642 7.94231 18.4642 7.80089L18.4642 6.71195C18.4642 6.57052 18.5738 6.46092 18.7152 6.46092L19.8042 6.46092C19.942 6.46446 20.0552 6.5776 20.0552 6.71195Z" fill="#FC753F"/>
<path d="M22.873 9.3742L22.873 10.6258C22.873 10.7672 22.7634 10.8768 22.622 10.8768L21.3704 10.8768C21.229 10.8768 21.1194 10.7672 21.1194 10.6258L21.1194 9.3742C21.1194 9.23278 21.229 9.12318 21.3704 9.12318L22.622 9.12318C22.7634 9.12318 22.8765 9.23632 22.873 9.3742Z" fill="#FC753F"/>
</svg>
