<svg width="112" height="112" viewBox="0 0 112 112" fill="none" xmlns="http://www.w3.org/2000/svg">
<path d="M56 112C86.9279 112 112 86.9279 112 56C112 25.0721 86.9279 0 56 0C25.0721 0 0 25.0721 0 56C0 86.9279 25.0721 112 56 112Z" fill="#FEF156"/>
<path d="M56 110.568C86.137 110.568 110.568 86.137 110.568 56C110.568 25.863 86.137 1.43213 56 1.43213C25.863 1.43213 1.43213 25.863 1.43213 56C1.43213 86.137 25.863 110.568 56 110.568Z" fill="#FFC242"/>
<g style="mix-blend-mode:soft-light">
<path d="M94.6934 17.5264L17.5272 94.6893C22.6989 99.832 28.8971 103.932 35.7841 106.68L106.684 35.7833C103.936 28.8963 99.836 22.6948 94.6934 17.5264Z" fill="white"/>
</g>
<g style="mix-blend-mode:soft-light">
<path d="M109.195 68.1487L68.1497 109.194C88.5273 104.559 104.557 88.5264 109.195 68.1487Z" fill="white"/>
</g>
<g style="mix-blend-mode:soft-light">
<path d="M29.2029 8.4702L8.47117 29.2019C6.18625 33.2439 4.39371 37.6014 3.19653 42.2002L42.2012 3.19556C37.6024 4.39273 33.2449 6.18527 29.2029 8.4702Z" fill="white"/>
</g>
<g style="mix-blend-mode:soft-light">
<path d="M87.5039 11.4568L11.4576 87.503C12.3426 88.7549 13.2759 89.9681 14.2639 91.1396L91.1372 14.2631C89.9658 13.2783 88.7525 12.345 87.5006 11.4568H87.5039Z" fill="white"/>
</g>
<g style="mix-blend-mode:soft-light">
<path d="M57.0726 96.5494C78.9093 96.5494 96.6115 78.8473 96.6115 57.0106C96.6115 35.1738 78.9093 17.4717 57.0726 17.4717C35.2359 17.4717 17.5337 35.1738 17.5337 57.0106C17.5337 78.8473 35.2359 96.5494 57.0726 96.5494Z" fill="white"/>
</g>
<path d="M56.0001 95.5389C77.8368 95.5389 95.5389 77.8368 95.5389 56.0001C95.5389 34.1633 77.8368 16.4612 56.0001 16.4612C34.1633 16.4612 16.4612 34.1633 16.4612 56.0001C16.4612 77.8368 34.1633 95.5389 56.0001 95.5389Z" fill="#FEF156"/>
<path d="M18.6086 58.1466C18.6086 36.3111 36.3119 18.6077 58.1475 18.6077C68.5197 18.6077 77.9555 22.608 85.0066 29.1409C77.785 21.3464 67.4642 16.4612 56.0009 16.4612C34.1654 16.4612 16.462 34.1645 16.462 56.0001C16.462 67.4633 21.3473 77.7841 29.1418 85.0058C22.6088 77.9515 18.6086 68.5189 18.6086 58.1466Z" fill="#FC753F"/>
<g style="mix-blend-mode:soft-light">
<path d="M56.0006 2.14654C86.5671 2.14654 111.399 26.6435 111.972 57.0717C111.978 56.7144 111.997 56.3572 111.997 55.9968C111.997 25.073 86.9276 0 56.0006 0C25.0737 0 0.000610352 25.073 0.000610352 56C0.000610352 56.3604 0.0199196 56.7145 0.026356 57.0749C0.602415 26.6435 25.4309 2.14654 56.0006 2.14654Z" fill="white"/>
</g>
<path d="M45.5813 44.2839C46.4633 44.7109 47.1878 44.3224 48.0348 44.0739C48.7313 43.8709 49.8968 43.7659 50.3553 44.4904C50.4708 44.6724 50.5303 45.0784 50.3028 45.1834C50.0683 45.2919 49.5223 44.9944 49.2598 44.9734C48.7313 44.9314 47.8423 44.7914 47.6148 45.3864C47.4958 45.6909 47.4853 46.0059 47.6743 46.2299C47.9578 46.5694 48.3008 46.6009 48.7243 46.6429C49.5153 46.7339 50.2643 46.6744 50.8489 47.3184C51.4123 47.9344 51.4964 48.6834 51.6574 49.4464C51.8394 50.2794 51.8709 51.1229 51.9864 51.9629C52.0143 52.1799 51.9969 52.5439 52.1718 52.7014C52.9558 53.4154 53.1203 51.6059 53.1554 51.1929C53.2569 50.0939 53.4599 48.8304 54.5554 48.2564C54.9614 48.0464 55.4794 47.9624 55.9274 48.0184C56.4419 48.0814 57.0859 48.3859 57.5759 48.0079C58.8184 47.0524 57.3274 46.0059 56.3893 45.7749C55.9623 45.6734 55.3009 46.0234 54.9509 45.8624C54.0899 45.4739 55.7979 44.9909 56.0289 44.9629C56.5504 44.8999 57.1174 44.9769 57.6179 45.1204C57.9854 45.2254 58.3109 45.4249 58.6679 45.5369C59.2104 45.7084 59.6759 45.4914 60.1064 45.1729C60.7994 44.6584 60.5648 43.6259 59.8334 43.2549C59.5429 43.1079 59.1754 43.0064 58.8639 42.9784C58.5629 42.9469 58.0029 43.0799 57.7544 42.8804C57.3484 42.5409 57.8384 42.2504 58.1569 42.1489C58.6609 41.9879 59.8124 42.4184 59.9174 41.6064C60.0889 40.2939 58.4614 40.0944 57.5408 40.1644C55.4479 40.3254 54.2124 41.8129 53.3514 43.5769C53.2674 43.7449 53.1063 44.4554 52.8893 44.5394L52.8404 44.5499C52.6374 44.5359 52.2733 43.8569 52.1578 43.7134C51.2968 42.6494 50.1558 41.6659 48.8083 41.3089C47.6113 40.9974 45.6723 41.1584 45.0248 42.4114C44.6538 43.1394 44.8113 43.9059 45.5813 44.2839ZM44.7028 49.7334L44.8918 49.7089C45.3398 49.6214 45.7213 49.3239 45.7213 48.8234C45.7213 48.1584 45.0738 47.7209 44.4263 47.7979C43.8033 47.8749 43.4008 48.5259 43.6983 49.1384C43.8768 49.5059 44.2968 49.7579 44.7028 49.7334ZM62.6859 40.0909L62.8784 40.0699C63.3264 39.9789 63.7044 39.6814 63.7044 39.1844C63.7044 38.5194 63.0534 38.0819 62.4129 38.1589C61.7934 38.2324 61.3909 38.8904 61.6814 39.4959C61.8599 39.8669 62.2799 40.1154 62.6859 40.0909ZM41.7978 46.7549C42.5818 46.5029 42.9003 45.6629 42.2423 45.0644C41.8013 44.6619 40.8948 44.6024 40.5623 45.1869C40.2823 45.6734 40.3943 46.1739 40.6988 46.4889C40.9648 46.7619 41.3743 46.8914 41.7978 46.7549ZM63.3684 43.4264C63.0919 43.9129 63.2004 44.4169 63.5084 44.7284C63.7744 44.9979 64.1839 45.1309 64.6039 44.9944C65.3914 44.7424 65.7099 43.9024 65.0519 43.3039C64.6109 42.8979 63.7044 42.8384 63.3684 43.4264ZM62.6894 48.2529C63.3439 48.0429 63.6099 47.3429 63.0604 46.8389C62.6929 46.5064 61.9369 46.4574 61.6569 46.9439C61.4224 47.3499 61.5169 47.7699 61.7724 48.0324C61.9964 48.2599 62.3359 48.3684 62.6894 48.2529ZM42.0603 41.8234C42.7183 41.6134 42.9808 40.9134 42.4348 40.4129C42.0708 40.0769 41.3113 40.0279 41.0313 40.5144C40.7933 40.9239 40.8913 41.3404 41.1468 41.6029C41.3673 41.8304 41.7068 41.9354 42.0603 41.8234Z" fill="#FC753F"/>
<path fill-rule="evenodd" clip-rule="evenodd" d="M44.4859 56.7405C47.3279 54.3675 51.3214 53.5485 54.9859 53.8565C61.4749 54.399 67.9884 57.92 72.0099 63.0335C72.8779 64.1395 72.7064 65.2735 71.9749 66.3375C70.3159 68.749 64.3204 73.88 51.2444 74.0865C45.7984 74.1705 40.3419 72.396 39.8379 70.541C39.2604 68.4235 39.0294 61.3045 44.4859 56.7405ZM43.1979 64.5106C43.7544 64.8151 44.5314 64.6156 45.0669 64.0311C45.9419 63.0791 45.8684 61.5986 45.0459 61.0596C44.1954 60.4961 42.9494 60.9056 42.4489 62.1551C42.0709 63.0896 42.3824 63.8911 42.9494 64.3461C43.027 64.4085 43.1101 64.4636 43.1979 64.5106ZM57.2154 64.6961C57.3309 64.6751 57.4324 64.6506 57.5374 64.6191C58.2794 64.3881 58.8814 63.7441 58.8044 62.7326C58.7169 61.3851 57.5619 60.5731 56.4839 60.8076C55.4479 61.0351 54.8634 62.4071 55.4409 63.6006C55.7944 64.3321 56.5364 64.7906 57.2154 64.6961Z" fill="#FC753F"/>
</svg>
