<svg width="112" height="112" viewBox="0 0 112 112" fill="none" xmlns="http://www.w3.org/2000/svg">
<path d="M56 112C86.9279 112 112 86.9279 112 56C112 25.0721 86.9279 0 56 0C25.0721 0 0 25.0721 0 56C0 86.9279 25.0721 112 56 112Z" fill="#A7ACB8"/>
<path d="M56 110.568C86.137 110.568 110.568 86.137 110.568 56C110.568 25.8629 86.137 1.43207 56 1.43207C25.863 1.43207 1.43213 25.8629 1.43213 56C1.43213 86.137 25.863 110.568 56 110.568Z" fill="#898E9E"/>
<g style="mix-blend-mode:soft-light">
<path d="M94.6935 17.5264L17.5273 94.6893C22.699 99.832 28.8973 103.932 35.7842 106.68L106.685 35.7833C103.936 28.8963 99.8362 22.6948 94.6935 17.5264Z" fill="#A7ACB8"/>
</g>
<g style="mix-blend-mode:soft-light">
<path d="M109.194 68.1488L68.1494 109.194C88.5271 104.56 104.557 88.5265 109.194 68.1488Z" fill="#A7ACB8"/>
</g>
<g style="mix-blend-mode:soft-light">
<path d="M29.2031 8.47032L8.47142 29.202C6.18649 33.2441 4.39395 37.6015 3.19678 42.2003L42.2014 3.19568C37.6026 4.39285 33.2452 6.18539 29.2031 8.47032Z" fill="#A7ACB8"/>
</g>
<g style="mix-blend-mode:soft-light">
<path d="M87.5037 11.4568L11.4575 87.503C12.3425 88.7549 13.2758 89.9681 14.2638 91.1396L91.1371 14.2631C89.9657 13.2783 88.7524 12.345 87.5005 11.4568H87.5037Z" fill="#A7ACB8"/>
</g>
<g style="mix-blend-mode:soft-light">
<path d="M57.0726 96.5494C78.9093 96.5494 96.6115 78.8472 96.6115 57.0105C96.6115 35.1738 78.9093 17.4716 57.0726 17.4716C35.2359 17.4716 17.5337 35.1738 17.5337 57.0105C17.5337 78.8472 35.2359 96.5494 57.0726 96.5494Z" fill="#A7ACB8"/>
</g>
<path d="M55.9998 95.5388C77.8365 95.5388 95.5387 77.8367 95.5387 55.9999C95.5387 34.1632 77.8365 16.4611 55.9998 16.4611C34.1631 16.4611 16.4609 34.1632 16.4609 55.9999C16.4609 77.8367 34.1631 95.5388 55.9998 95.5388Z" fill="#A7ACB8"/>
<path d="M18.6085 58.1465C18.6085 36.311 36.3118 18.6076 58.1473 18.6076C68.5196 18.6076 77.9554 22.6078 85.0065 29.1408C77.7848 21.3463 67.464 16.4611 56.0008 16.4611C34.1653 16.4611 16.4619 34.1644 16.4619 55.9999C16.4619 67.4632 21.3472 77.784 29.1416 85.0056C22.6087 77.9513 18.6085 68.5188 18.6085 58.1465Z" fill="#5A6178"/>
<g style="mix-blend-mode:soft-light">
<path d="M56.0005 2.14654C86.567 2.14654 111.399 26.6435 111.972 57.0717C111.978 56.7144 111.997 56.3572 111.997 55.9968C111.997 25.073 86.9275 0 56.0005 0C25.0735 0 0.000488281 25.073 0.000488281 56C0.000488281 56.3604 0.0197975 56.7145 0.0262339 57.0749C0.602293 26.6435 25.4308 2.14654 56.0005 2.14654Z" fill="#A7ACB8"/>
</g>
<path d="M45.5815 44.2837C46.4635 44.7107 47.188 44.3222 48.035 44.0737C48.7315 43.8707 49.897 43.7657 50.3555 44.4902C50.471 44.6722 50.5305 45.0782 50.303 45.1832C50.0685 45.2917 49.5225 44.9942 49.26 44.9732C48.7315 44.9312 47.8425 44.7912 47.615 45.3862C47.496 45.6907 47.4855 46.0057 47.6745 46.2297C47.958 46.5692 48.301 46.6007 48.7245 46.6427C49.5155 46.7337 50.2645 46.6742 50.849 47.3182C51.4125 47.9342 51.4965 48.6832 51.6575 49.4462C51.8395 50.2792 51.871 51.1227 51.9865 51.9627C52.0145 52.1797 51.997 52.5437 52.172 52.7012C52.956 53.4152 53.1205 51.6057 53.1555 51.1927C53.257 50.0937 53.46 48.8302 54.5555 48.2562C54.9615 48.0462 55.4795 47.9622 55.9275 48.0182C56.442 48.0812 57.086 48.3857 57.576 48.0077C58.8185 47.0522 57.3275 46.0057 56.3895 45.7747C55.9625 45.6732 55.301 46.0232 54.951 45.8622C54.09 45.4737 55.798 44.9907 56.029 44.9627C56.5505 44.8997 57.1175 44.9767 57.618 45.1202C57.9855 45.2252 58.311 45.4247 58.668 45.5367C59.2105 45.7082 59.676 45.4912 60.1065 45.1727C60.7995 44.6582 60.565 43.6257 59.8335 43.2547C59.543 43.1077 59.1755 43.0062 58.864 42.9782C58.563 42.9467 58.003 43.0797 57.7545 42.8802C57.3485 42.5407 57.8385 42.2502 58.157 42.1487C58.661 41.9877 59.8125 42.4182 59.9175 41.6062C60.089 40.2937 58.4615 40.0942 57.541 40.1642C55.448 40.3252 54.2125 41.8127 53.3515 43.5767C53.2675 43.7447 53.1065 44.4552 52.8895 44.5392L52.8405 44.5497C52.6375 44.5357 52.2735 43.8567 52.158 43.7132C51.297 42.6492 50.156 41.6657 48.8085 41.3087C47.6115 40.9972 45.6725 41.1582 45.025 42.4112C44.654 43.1392 44.8115 43.9057 45.5815 44.2837ZM44.703 49.7332L44.892 49.7087C45.34 49.6212 45.7215 49.3237 45.7215 48.8232C45.7215 48.1582 45.074 47.7207 44.4265 47.7977C43.8035 47.8747 43.401 48.5257 43.6985 49.1382C43.877 49.5057 44.297 49.7577 44.703 49.7332ZM62.686 40.0907L62.8785 40.0697C63.3265 39.9787 63.7045 39.6812 63.7045 39.1842C63.7045 38.5192 63.0535 38.0817 62.413 38.1587C61.7935 38.2322 61.391 38.8902 61.6815 39.4957C61.86 39.8667 62.28 40.1152 62.686 40.0907ZM41.798 46.7547C42.582 46.5027 42.9005 45.6627 42.2425 45.0642C41.8015 44.6617 40.895 44.6022 40.5625 45.1867C40.2825 45.6732 40.3945 46.1737 40.699 46.4887C40.965 46.7617 41.3745 46.8912 41.798 46.7547ZM63.3685 43.4262C63.092 43.9127 63.2005 44.4167 63.5085 44.7282C63.7745 44.9977 64.184 45.1307 64.604 44.9942C65.3915 44.7422 65.71 43.9022 65.052 43.3037C64.611 42.8977 63.7045 42.8382 63.3685 43.4262ZM62.6895 48.2527C63.344 48.0427 63.61 47.3427 63.0605 46.8387C62.693 46.5062 61.937 46.4572 61.657 46.9437C61.4225 47.3497 61.517 47.7697 61.7725 48.0322C61.9965 48.2597 62.336 48.3682 62.6895 48.2527ZM42.0605 41.8232C42.7185 41.6132 42.981 40.9132 42.435 40.4127C42.071 40.0767 41.3115 40.0277 41.0315 40.5142C40.7935 40.9237 40.8915 41.3402 41.147 41.6027C41.3675 41.8302 41.707 41.9352 42.0605 41.8232Z" fill="#5A6178"/>
<path fill-rule="evenodd" clip-rule="evenodd" d="M44.4861 56.7403C47.3281 54.3673 51.3216 53.5483 54.9861 53.8563C61.4751 54.3988 67.9886 57.9198 72.0101 63.0333C72.8781 64.1393 72.7066 65.2733 71.9751 66.3373C70.3161 68.7488 64.3206 73.8798 51.2446 74.0863C45.7986 74.1703 40.3421 72.3958 39.8381 70.5408C39.2606 68.4233 39.0296 61.3043 44.4861 56.7403ZM43.1981 64.5104C43.7546 64.8148 44.5316 64.6153 45.0671 64.0308C45.9421 63.0788 45.8686 61.5983 45.0461 61.0593C44.1956 60.4958 42.9496 60.9053 42.4491 62.1548C42.0711 63.0893 42.3826 63.8908 42.9496 64.3458C43.0272 64.4082 43.1104 64.4633 43.1981 64.5104ZM57.2156 64.6958C57.3311 64.6748 57.4326 64.6503 57.5376 64.6188C58.2796 64.3878 58.8816 63.7438 58.8046 62.7323C58.7171 61.3848 57.5621 60.5728 56.4841 60.8073C55.4481 61.0348 54.8636 62.4068 55.4411 63.6004C55.7946 64.3318 56.5366 64.7903 57.2156 64.6958Z" fill="#5A6178"/>
</svg>
