<svg width="33" height="32" viewBox="0 0 33 32" fill="none" xmlns="http://www.w3.org/2000/svg">
<path d="M26.1933 7.10668C24.42 6.28001 22.5 5.68001 20.5 5.33334C20.4825 5.33278 20.465 5.33607 20.4489 5.34298C20.4328 5.3499 20.4183 5.36026 20.4067 5.37334C20.1667 5.81334 19.8867 6.38668 19.7 6.82668C17.5787 6.50668 15.4213 6.50668 13.3 6.82668C13.1133 6.37334 12.8333 5.81334 12.58 5.37334C12.5667 5.34668 12.5267 5.33334 12.4867 5.33334C10.4867 5.68001 8.57999 6.28001 6.79333 7.10668C6.77999 7.10668 6.76666 7.12001 6.75333 7.13334C3.12666 12.56 2.12666 17.84 2.61999 23.0667C2.61999 23.0933 2.63333 23.12 2.65999 23.1333C5.05999 24.8933 7.36666 25.96 9.64666 26.6667C9.68666 26.68 9.72666 26.6667 9.73999 26.64C10.2733 25.9067 10.7533 25.1333 11.1667 24.32C11.1933 24.2667 11.1667 24.2133 11.1133 24.2C10.3533 23.9067 9.63333 23.56 8.92666 23.16C8.87333 23.1333 8.87333 23.0533 8.91333 23.0133C9.05999 22.9067 9.20666 22.7867 9.35333 22.68C9.37999 22.6533 9.41999 22.6533 9.44666 22.6667C14.0333 24.76 18.98 24.76 23.5133 22.6667C23.54 22.6533 23.58 22.6533 23.6067 22.68C23.7533 22.8 23.9 22.9067 24.0467 23.0267C24.1 23.0667 24.1 23.1467 24.0333 23.1733C23.34 23.5867 22.6067 23.92 21.8467 24.2133C21.7933 24.2267 21.78 24.2933 21.7933 24.3333C22.22 25.1467 22.7 25.92 23.22 26.6533C23.26 26.6667 23.3 26.68 23.34 26.6667C25.6333 25.96 27.94 24.8933 30.34 23.1333C30.3667 23.12 30.38 23.0933 30.38 23.0667C30.9667 17.0267 29.4067 11.7867 26.2467 7.13334C26.2333 7.12001 26.22 7.10668 26.1933 7.10668ZM11.86 19.88C10.4867 19.88 9.33999 18.6133 9.33999 17.0533C9.33999 15.4933 10.46 14.2267 11.86 14.2267C13.2733 14.2267 14.3933 15.5067 14.38 17.0533C14.38 18.6133 13.26 19.88 11.86 19.88ZM21.1533 19.88C19.78 19.88 18.6333 18.6133 18.6333 17.0533C18.6333 15.4933 19.7533 14.2267 21.1533 14.2267C22.5667 14.2267 23.6867 15.5067 23.6733 17.0533C23.6733 18.6133 22.5667 19.88 21.1533 19.88Z" fill="#FEF156"/>
</svg>
