<svg width="33" height="32" viewBox="0 0 33 32" fill="none" xmlns="http://www.w3.org/2000/svg">
<path d="M16.5001 2.66666C9.14008 2.66666 3.16675 8.63999 3.16675 16C3.16675 23.36 9.14008 29.3333 16.5001 29.3333C23.8601 29.3333 29.8334 23.36 29.8334 16C29.8334 8.63999 23.8601 2.66666 16.5001 2.66666ZM22.6867 11.7333C22.4867 13.84 21.6201 18.96 21.1801 21.32C20.9934 22.32 20.6201 22.6533 20.2734 22.6933C19.5001 22.76 18.9134 22.1867 18.1667 21.6933C16.9934 20.92 16.3267 20.44 15.1934 19.6933C13.8734 18.8267 14.7267 18.3467 15.4867 17.5733C15.6867 17.3733 19.1001 14.2667 19.1667 13.9867C19.176 13.9442 19.1748 13.9002 19.1632 13.8584C19.1515 13.8166 19.1299 13.7782 19.1001 13.7467C19.0201 13.68 18.9134 13.7067 18.8201 13.72C18.7001 13.7467 16.8334 14.9867 13.1934 17.44C12.6601 17.8 12.1801 17.9867 11.7534 17.9733C11.2734 17.96 10.3667 17.7067 9.68675 17.48C8.84675 17.2133 8.19341 17.0667 8.24675 16.6C8.27341 16.36 8.60675 16.12 9.23341 15.8667C13.1267 14.1733 15.7134 13.0533 17.0067 12.52C20.7134 10.9733 21.4734 10.7067 21.9801 10.7067C22.0867 10.7067 22.3401 10.7333 22.5001 10.8667C22.6334 10.9733 22.6734 11.12 22.6867 11.2267C22.6734 11.3067 22.7001 11.5467 22.6867 11.7333V11.7333Z" fill="#FEF156"/>
</svg>
