<svg viewBox="0 0 20 20" fill="none" xmlns="http://www.w3.org/2000/svg">
<g id="info-circle">
<g id="vuesax/outline/info-circle">
<g id="info-circle_2">
<path id="Vector" d="M9.99984 18.9587C5.05817 18.9587 1.0415 14.942 1.0415 10.0003C1.0415 5.05866 5.05817 1.04199 9.99984 1.04199C14.9415 1.04199 18.9582 5.05866 18.9582 10.0003C18.9582 14.942 14.9415 18.9587 9.99984 18.9587ZM9.99984 2.29199C5.74984 2.29199 2.2915 5.75033 2.2915 10.0003C2.2915 14.2503 5.74984 17.7087 9.99984 17.7087C14.2498 17.7087 17.7082 14.2503 17.7082 10.0003C17.7082 5.75033 14.2498 2.29199 9.99984 2.29199Z" fill="currentColor"/>
<path id="Vector_2" d="M10 11.4587C9.65833 11.4587 9.375 11.1753 9.375 10.8337V6.66699C9.375 6.32533 9.65833 6.04199 10 6.04199C10.3417 6.04199 10.625 6.32533 10.625 6.66699V10.8337C10.625 11.1753 10.3417 11.4587 10 11.4587Z" fill="currentColor"/>
<path id="Vector_3" d="M9.99984 14.1664C9.8915 14.1664 9.78317 14.1414 9.68317 14.0997C9.58317 14.0581 9.4915 13.9997 9.40817 13.9247C9.33317 13.8414 9.27484 13.7581 9.23317 13.6497C9.1915 13.5497 9.1665 13.4414 9.1665 13.3331C9.1665 13.2247 9.1915 13.1164 9.23317 13.0164C9.27484 12.9164 9.33317 12.8247 9.40817 12.7414C9.4915 12.6664 9.58317 12.6081 9.68317 12.5664C9.88317 12.4831 10.1165 12.4831 10.3165 12.5664C10.4165 12.6081 10.5082 12.6664 10.5915 12.7414C10.6665 12.8247 10.7248 12.9164 10.7665 13.0164C10.8082 13.1164 10.8332 13.2247 10.8332 13.3331C10.8332 13.4414 10.8082 13.5497 10.7665 13.6497C10.7248 13.7581 10.6665 13.8414 10.5915 13.9247C10.5082 13.9997 10.4165 14.0581 10.3165 14.0997C10.2165 14.1414 10.1082 14.1664 9.99984 14.1664Z" fill="currentColor"/>
</g>
</g>
</g>
</svg>
