<svg viewBox="0 0 160 160" fill="none" xmlns="http://www.w3.org/2000/svg">
<path d="M137.026 53.0768V139.499H23.2705V53.0768C23.2705 51.1554 25.0295 49.6045 27.1792 49.6045H133.118C135.281 49.6045 137.026 51.1554 137.026 53.0768Z" fill="#F5F5FA"/>
<path d="M38.0374 49.6047C35.8904 49.6047 34.1169 51.1604 34.1169 53.0897V139.496H23.2578V53.0897C23.2578 51.1604 25.0314 49.6047 27.1783 49.6047H38.0374Z" fill="#E4EDF4"/>
<path d="M137.026 53.5132V78.8545C132.406 79.9412 127.889 78.1852 125.274 74.8806C120.475 80.7622 111.642 80.4575 107.229 74.8806C102.43 80.7625 93.5965 80.4571 89.1842 74.8806C84.3849 80.7622 75.5517 80.4575 71.1389 74.8806C66.3401 80.7625 57.5063 80.4571 53.094 74.8806C48.2948 80.7622 39.4615 80.4575 35.0487 74.8806C32.1428 78.4419 27.484 79.9079 23.2705 78.8545V53.5132C23.2705 51.3503 25.0295 49.6045 27.1792 49.6045H133.118C135.281 49.6045 137.026 51.3503 137.026 53.5132Z" fill="#C6C6F7"/>
<path d="M141.143 144.177V150.014H19.166V144.177C19.166 141.597 21.2635 139.499 23.8432 139.499H136.466C139.045 139.499 141.143 141.597 141.143 144.177Z" fill="#FF5870"/>
<path d="M42.9855 139.496C40.434 139.496 38.3182 141.611 38.3182 144.163V150.012H19.1514V144.163C19.1514 141.611 21.2672 139.496 23.8497 139.496H42.9855Z" fill="#E23246"/>
<path d="M84.0359 90.2641V126.747H33.8613V90.2641C33.8613 88.825 35.028 87.6583 36.4671 87.6583H81.4301C82.8692 87.6583 84.0359 88.825 84.0359 90.2641Z" fill="#65B9FF"/>
<path d="M46.6875 87.6583C45.2252 87.6583 44.0739 88.8095 44.0739 90.2718V126.739H33.8682V90.2718C33.8682 88.8095 35.0194 87.6583 36.4819 87.6583H46.6875Z" fill="#3E7FFF"/>
<path d="M39.5676 49.6045L35.0433 64.9135H17L22.3351 52.0188C22.9397 50.5575 24.3654 49.6045 25.9468 49.6045H39.5676Z" fill="#FF5870"/>
<path d="M55.8009 49.6045L53.0863 64.9135H35.043L39.5673 49.6045H55.8009Z" fill="#FEF156"/>
<path d="M72.0351 49.6045L71.1302 64.9135H53.0869L55.8015 49.6045H72.0351Z" fill="#FF5870"/>
<path d="M88.2684 49.6045L89.1732 64.9135H71.1299L72.0347 49.6045H88.2684Z" fill="#FEF156"/>
<path d="M104.502 49.6045L107.217 64.9135H89.1734L88.2686 49.6045H104.502Z" fill="#FF5870"/>
<path d="M120.736 49.6045L125.26 64.9135H107.217L104.502 49.6045H120.736Z" fill="#FEF156"/>
<path d="M137.968 52.0188L143.303 64.9135H125.26L120.735 49.6045H134.356C135.938 49.6045 137.363 50.5575 137.968 52.0188Z" fill="#FF5870"/>
<path d="M35.0492 64.9135V67.5584C35.0492 75.659 25.2185 79.5438 19.6488 73.9296C18.0072 72.3009 17.0039 70.0469 17.0039 67.5584V64.9135H35.0492Z" fill="#E23246"/>
<path d="M71.139 64.9135V67.5584C71.139 72.5354 67.0999 76.5745 62.1097 76.5745C57.1316 76.5745 53.0938 72.5357 53.0938 67.5584V64.9135H71.139Z" fill="#E23246"/>
<path d="M107.23 64.9135V67.5584C107.23 72.5354 103.191 76.5745 98.2005 76.5745C93.2224 76.5745 89.1846 72.5357 89.1846 67.5584V64.9135H107.23Z" fill="#E23246"/>
<path d="M143.321 64.9135V67.5584C143.321 72.5354 139.282 76.5745 134.291 76.5745C129.313 76.5745 125.275 72.5357 125.275 67.5584V64.9135H143.321Z" fill="#E23246"/>
<path d="M53.0941 64.9135V67.5584C53.0941 72.5354 49.055 76.5745 44.0648 76.5745C39.0867 76.5745 35.0488 72.5357 35.0488 67.5584V64.9135H53.0941Z" fill="#FFB32C"/>
<path d="M89.1849 64.9135V67.5584C89.1849 72.5354 85.1458 76.5745 80.1556 76.5745C75.1775 76.5745 71.1396 72.5357 71.1396 67.5584V64.9135H89.1849Z" fill="#FFB32C"/>
<path d="M125.275 64.9135V67.5584C125.275 72.5354 121.236 76.5745 116.245 76.5745C111.267 76.5745 107.229 72.5357 107.229 67.5584V64.9135H125.275Z" fill="#FFB32C"/>
<path d="M86.4273 128.076V130.825C86.4273 131.555 85.8279 132.154 85.0854 132.154H32.8C32.0574 132.154 31.458 131.555 31.458 130.825V128.076C31.458 127.346 32.0574 126.747 32.8 126.747H85.0854C85.8279 126.747 86.4273 127.346 86.4273 128.076Z" fill="#FF5870"/>
<path d="M51.9461 132.153H32.8106C32.0638 132.153 31.4727 131.561 31.4727 130.815V128.076C31.4727 127.361 32.0638 126.739 32.8106 126.739H51.9461C51.1994 126.739 50.6082 127.361 50.6082 128.076V130.815C50.6082 131.561 51.1994 132.153 51.9461 132.153Z" fill="#E23246"/>
<path d="M128.706 90.7698V139.464H93.1729V90.7698C93.1729 89.0514 94.5659 87.6584 96.2843 87.6584H125.595C127.313 87.6584 128.706 89.0514 128.706 90.7698Z" fill="#96A5C0"/>
<path d="M106.086 87.6583C104.374 87.6583 102.974 89.0585 102.974 90.7698V139.464H93.1729V90.7698C93.1729 89.0585 94.5731 87.6583 96.2843 87.6583H106.086Z" fill="#677286"/>
<path d="M125.275 111.862V119.734C125.275 120.543 124.621 121.196 123.812 121.196C123.003 121.196 122.381 120.543 122.381 119.734V111.862C122.381 111.053 123.003 110.399 123.812 110.399C124.621 110.399 125.275 111.053 125.275 111.862Z" fill="#677286"/>
<path d="M114.822 28.7901C114.822 37.2899 119.957 44.6095 127.315 47.8488C127.88 48.0999 128.219 48.6899 128.068 49.28C127.767 50.4351 127.189 51.766 126.084 53.122C125.808 53.4735 126.072 53.9882 126.511 53.938C128.746 53.712 133.454 52.8959 135.852 49.9832C136.091 49.6943 136.417 49.5186 136.781 49.4935C148.721 48.9411 157.987 38.0934 156.217 25.7642C154.873 16.3479 147.039 8.92781 137.572 8.07407C125.18 6.95664 114.822 16.6366 114.822 28.7901Z" fill="#FCB73E"/>
<path d="M114.938 28.7954C114.938 35.35 117.988 41.2134 122.803 45.0271C124.209 46.1473 125.759 47.1007 127.427 47.8396C127.975 48.1018 128.333 48.6976 128.166 49.2697C127.88 50.4377 127.284 51.7725 126.188 53.1309C125.902 53.4647 126.164 53.9891 126.617 53.9414C128.857 53.7031 133.553 52.8926 135.96 49.9848C136.199 49.6987 136.532 49.5081 136.89 49.4842C148.831 48.9361 158.079 38.091 156.315 25.7683C154.981 16.3534 147.139 8.91683 137.676 8.08266C133.1 7.67751 128.81 8.72626 125.21 10.8236C119.061 14.4466 114.938 21.1204 114.938 28.7954Z" fill="#FEF156"/>
<path opacity="0.1" d="M114.83 28.7954C114.83 21.1204 118.953 14.4466 125.103 10.8236C128.702 8.72626 132.992 7.67751 137.569 8.08266C137.712 8.10652 137.831 8.10652 137.974 8.13038C135.042 8.46396 132.301 9.41742 129.87 10.8236C123.721 14.4466 119.597 21.1204 119.597 28.7954C119.597 35.35 122.648 41.2134 127.463 45.0271C128.869 46.1473 130.418 47.1007 132.087 47.8396C132.635 48.1018 132.992 48.6976 132.826 49.2697C132.54 50.4139 131.968 51.7009 130.919 53.0357C129.25 53.5838 127.582 53.8223 126.509 53.9414C126.056 53.9891 125.794 53.4647 126.08 53.1309C127.177 51.7725 127.773 50.4377 128.059 49.2697C128.225 48.6976 127.868 48.1018 127.32 47.8396C125.651 47.1007 124.102 46.1473 122.696 45.0271C117.881 41.2134 114.83 35.35 114.83 28.7954Z" fill="#11131A"/>
<path d="M140.859 19.9845C140.328 20.3287 139.831 20.1429 139.266 20.056C138.802 19.9854 138.045 20.0161 137.811 20.5136C137.752 20.6386 137.748 20.9009 137.903 20.9485C138.062 20.9977 138.388 20.7636 138.555 20.7284C138.891 20.6577 139.45 20.4948 139.645 20.853C139.747 21.0361 139.78 21.2349 139.677 21.3927C139.524 21.6315 139.306 21.6801 139.038 21.742C138.537 21.8657 138.052 21.8905 137.73 22.3475C137.419 22.785 137.428 23.2668 137.388 23.7639C137.341 24.3071 137.391 24.8444 137.387 25.3865C137.387 25.5264 137.428 25.7557 137.329 25.8702C136.885 26.3882 136.629 25.2548 136.572 24.9959C136.415 24.3077 136.179 23.5237 135.428 23.2512C135.15 23.152 134.81 23.142 134.527 23.2148C134.202 23.2977 133.814 23.5444 133.468 23.3457C132.591 22.8436 133.461 22.0559 134.044 21.8312C134.31 21.7312 134.763 21.8979 134.975 21.7667C135.495 21.4486 134.358 21.2849 134.208 21.2864C133.868 21.2899 133.51 21.386 133.201 21.5188C132.973 21.616 132.781 21.7696 132.561 21.8704C132.227 22.0243 131.91 21.9256 131.607 21.7596C131.119 21.4913 131.184 20.8172 131.623 20.521C131.797 20.4036 132.024 20.3086 132.222 20.2649C132.413 20.2198 132.783 20.2574 132.926 20.1102C133.159 19.8611 132.82 19.7178 132.607 19.6801C132.27 19.62 131.566 19.989 131.431 19.483C131.212 18.6653 132.24 18.4031 132.837 18.3707C134.194 18.2982 135.111 19.138 135.811 20.1844C135.879 20.2839 136.042 20.7209 136.188 20.756L136.221 20.7586C136.35 20.7328 136.527 20.272 136.589 20.1714C137.053 19.4251 137.704 18.7065 138.539 18.3678C139.282 18.0705 140.54 18.0108 141.06 18.7511C141.359 19.1816 141.322 19.6806 140.859 19.9845ZM141.877 23.3657L141.754 23.3659C141.459 23.3478 141.189 23.1911 141.148 22.8738C141.092 22.4522 141.471 22.1209 141.894 22.1157C142.3 22.1125 142.613 22.4916 142.473 22.9047C142.389 23.1526 142.14 23.3474 141.877 23.3657ZM129.527 18.7533L129.402 18.756C129.107 18.7357 128.839 18.5786 128.798 18.2636C128.742 17.842 129.124 17.5104 129.542 17.5058C129.945 17.5007 130.259 17.8842 130.123 18.2923C130.039 18.5424 129.79 18.7349 129.527 18.7533ZM143.494 21.2353C142.97 21.1409 142.696 20.635 143.068 20.2007C143.318 19.9088 143.895 19.7955 144.157 20.1382C144.377 20.4233 144.347 20.7499 144.178 20.975C144.03 21.1702 143.778 21.2865 143.494 21.2353ZM129.367 20.9246C129.585 21.2099 129.557 21.5385 129.386 21.7616C129.237 21.9546 128.985 22.0731 128.704 22.0216C128.178 21.9276 127.903 21.4216 128.276 20.9874C128.525 20.6932 129.102 20.5799 129.367 20.9246ZM130.205 23.9275C129.768 23.849 129.538 23.4274 129.849 23.0621C130.057 22.8207 130.539 22.7266 130.759 23.0116C130.944 23.2494 130.918 23.5235 130.776 23.7113C130.651 23.8741 130.442 23.9712 130.205 23.9275ZM142.915 18.131C142.475 18.0528 142.248 17.631 142.557 17.2682C142.763 17.0248 143.246 16.9304 143.467 17.2154C143.653 17.4552 143.625 17.7274 143.483 17.9151C143.36 18.0777 143.151 18.1726 142.915 18.131Z" fill="#FC753F"/>
<path fill-rule="evenodd" clip-rule="evenodd" d="M142.523 27.2011C140.501 25.9339 137.868 25.7479 135.541 26.2488C131.42 27.1339 127.531 29.9093 125.375 33.4862C124.91 34.2597 125.115 34.9643 125.673 35.5777C126.939 36.968 131.216 39.7205 139.629 38.7607C143.133 38.3596 146.489 36.7796 146.658 35.5617C146.852 34.1712 146.407 29.6391 142.523 27.2011ZM143.998 32.0192C143.666 32.2586 143.15 32.197 142.758 31.8711C142.117 31.3406 142.041 30.396 142.524 29.9857C143.023 29.5576 143.857 29.7132 144.283 30.4636C144.603 31.0244 144.47 31.5585 144.144 31.8942C144.099 31.9402 144.05 31.9821 143.998 32.0192ZM135.013 33.3061C134.937 33.3024 134.87 33.2953 134.8 33.2841C134.304 33.1996 133.864 32.8415 133.829 32.1939C133.773 31.3324 134.447 30.7213 135.159 30.7801C135.843 30.8379 136.332 31.6588 136.061 32.4636C135.895 32.9568 135.457 33.3093 135.013 33.3061Z" fill="#FC753F"/>
</svg>
