<svg width="33" height="32" viewBox="0 0 33 32" fill="none" xmlns="http://www.w3.org/2000/svg">
<path d="M30.4466 8.00001C29.4199 8.46668 28.3132 8.77334 27.1666 8.92001C28.3399 8.21334 29.2466 7.09334 29.6732 5.74668C28.5666 6.41334 27.3399 6.88001 26.0466 7.14668C24.9932 6.00001 23.5132 5.33334 21.8332 5.33334C18.6999 5.33334 16.1399 7.89334 16.1399 11.0533C16.1399 11.5067 16.1932 11.9467 16.2866 12.36C11.5399 12.12 7.31322 9.84001 4.49989 6.38668C4.00656 7.22668 3.72656 8.21334 3.72656 9.25334C3.72656 11.24 4.72656 13 6.27322 14C5.32656 14 4.44656 13.7333 3.67322 13.3333V13.3733C3.67322 16.1467 5.64656 18.4667 8.25989 18.9867C7.42086 19.2163 6.54002 19.2482 5.68656 19.08C6.0487 20.2166 6.75794 21.2112 7.71458 21.9239C8.67122 22.6366 9.82715 23.0316 11.0199 23.0533C8.99806 24.6539 6.49188 25.5191 3.91322 25.5067C3.45989 25.5067 3.00656 25.48 2.55322 25.4267C5.08656 27.0533 8.09989 28 11.3266 28C21.8332 28 27.6066 19.28 27.6066 11.72C27.6066 11.4667 27.6066 11.2267 27.5932 10.9733C28.7132 10.1733 29.6732 9.16001 30.4466 8.00001Z" fill="#FEF156"/>
</svg>
