<svg width="20" height="20" viewBox="0 0 20 20" fill="none" xmlns="http://www.w3.org/2000/svg">
<path d="M17.7083 15.3917L16.3333 15.7167C16.025 15.7917 15.7833 16.025 15.7166 16.3333L15.425 17.5583C15.2666 18.225 14.4166 18.4333 13.975 17.9083L11.4833 15.0417C11.2833 14.8083 11.3916 14.4417 11.6916 14.3667C13.1666 14.0083 14.4916 13.1833 15.4666 12.0083C15.625 11.8167 15.9083 11.7917 16.0833 11.9667L17.9333 13.8167C18.5666 14.45 18.3416 15.2417 17.7083 15.3917Z" fill="current"/>
<path d="M2.24989 15.3917L3.62489 15.7167C3.93322 15.7917 4.17489 16.025 4.24156 16.3333L4.53322 17.5583C4.69156 18.225 5.54156 18.4333 5.98322 17.9083L8.47489 15.0417C8.67489 14.8083 8.56656 14.4417 8.26656 14.3667C6.79156 14.0083 5.46656 13.1833 4.49156 12.0083C4.33322 11.8167 4.04989 11.7917 3.87489 11.9667L2.02489 13.8167C1.39156 14.45 1.61656 15.2417 2.24989 15.3917Z" fill="current"/>
<path d="M10.0001 1.66667C6.77508 1.66667 4.16675 4.275 4.16675 7.5C4.16675 8.70833 4.52508 9.81667 5.14175 10.7417C6.04175 12.075 7.46675 13.0167 9.12508 13.2583C9.40841 13.3083 9.70008 13.3333 10.0001 13.3333C10.3001 13.3333 10.5917 13.3083 10.8751 13.2583C12.5334 13.0167 13.9584 12.075 14.8584 10.7417C15.4751 9.81667 15.8334 8.70833 15.8334 7.5C15.8334 4.275 13.2251 1.66667 10.0001 1.66667ZM12.5501 7.31667L11.8584 8.00833C11.7417 8.125 11.6751 8.35 11.7167 8.51667L11.9167 9.375C12.0751 10.05 11.7167 10.3167 11.1167 9.95833L10.2834 9.46667C10.1334 9.375 9.88341 9.375 9.73341 9.46667L8.90008 9.95833C8.30008 10.3083 7.94175 10.05 8.10008 9.375L8.30008 8.51667C8.33341 8.35833 8.27508 8.125 8.15841 8.00833L7.45008 7.31667C7.04175 6.90833 7.17508 6.5 7.74175 6.40833L8.63341 6.25833C8.78341 6.23333 8.95841 6.1 9.02508 5.96667L9.51675 4.98333C9.78341 4.45 10.2167 4.45 10.4834 4.98333L10.9751 5.96667C11.0417 6.1 11.2167 6.23333 11.3751 6.25833L12.2667 6.40833C12.8251 6.5 12.9584 6.90833 12.5501 7.31667Z" fill="current"/>
</svg>
