<svg width="20" height="20" viewBox="0 0 20 20" fill="none" xmlns="http://www.w3.org/2000/svg">
    <path
        d="M17.4167 8.20833L17.9083 16.45C17.925 16.675 17.8167 16.825 17.7583 16.8917C17.6917 16.9667 17.55 17.0833 17.3167 17.0833H15.0416L16.8417 8.20833H17.4167ZM18.3333 5L18.325 5.01667C18.3417 5.21667 18.325 5.425 18.275 5.63333L12.1333 16.9083C11.9333 17.75 11.1833 18.3333 10.3167 18.3333H17.3167C18.3917 18.3333 19.2417 17.425 19.1583 16.35L18.3333 5Z"
        fill="current" />
    <path
        d="M9.54178 1.86666C9.62511 1.53333 9.41678 1.19166 9.08345 1.10833C8.75011 1.03333 8.40845 1.23333 8.32511 1.56666L7.90845 3.29166H9.19178L9.54178 1.86666Z"
        fill="#96A5C0" />
    <path
        d="M15.0417 1.84167C15.1167 1.5 14.9 1.175 14.5583 1.1C14.225 1.025 13.8917 1.24167 13.8167 1.58333L13.4417 3.30833H14.725L15.0417 1.84167Z"
        fill="#96A5C0" />
    <path
        d="M18.1833 4.44167C17.9083 3.77501 17.2583 3.30001 16.4583 3.30001H14.725L14.2583 5.45834C14.1916 5.75001 13.9333 5.95001 13.65 5.95001C13.6083 5.95001 13.5583 5.95001 13.5166 5.93334C13.1833 5.85834 12.9666 5.52501 13.0333 5.19167L13.4416 3.29167H9.19162L8.66662 5.45834C8.59996 5.74167 8.34163 5.93334 8.05829 5.93334C8.00829 5.93334 7.95829 5.92501 7.90829 5.91667C7.57496 5.83334 7.36662 5.50001 7.44996 5.15834L7.89996 3.28334H6.20829C5.39162 3.28334 4.66662 3.81667 4.42496 4.60001L0.916625 15.8917C0.549958 17.1 1.44162 18.3333 2.69996 18.3333H13.65C14.5166 18.3333 15.2666 17.75 15.4666 16.9083L18.275 5.63334C18.325 5.42501 18.3416 5.21667 18.325 5.01667C18.3083 4.81667 18.2666 4.61667 18.1833 4.44167ZM12.25 13.9583H5.58329C5.24162 13.9583 4.95829 13.675 4.95829 13.3333C4.95829 12.9917 5.24162 12.7083 5.58329 12.7083H12.25C12.5916 12.7083 12.875 12.9917 12.875 13.3333C12.875 13.675 12.5916 13.9583 12.25 13.9583ZM13.0833 10.625H6.41662C6.07496 10.625 5.79162 10.3417 5.79162 10C5.79162 9.65834 6.07496 9.37501 6.41662 9.37501H13.0833C13.425 9.37501 13.7083 9.65834 13.7083 10C13.7083 10.3417 13.425 10.625 13.0833 10.625Z"
        fill="#96A5C0" />
</svg>