<svg width="33" height="32" viewBox="0 0 33 32" fill="none" xmlns="http://www.w3.org/2000/svg">
<path d="M28.9 10.3334H4.90002C4.35336 10.3334 3.90002 9.88004 3.90002 9.33337C3.90002 8.78671 4.35336 8.33337 4.90002 8.33337H28.9C29.4467 8.33337 29.9 8.78671 29.9 9.33337C29.9 9.88004 29.4467 10.3334 28.9 10.3334Z" fill="current"/>
<path d="M28.9 17H4.90002C4.35336 17 3.90002 16.5467 3.90002 16C3.90002 15.4533 4.35336 15 4.90002 15H28.9C29.4467 15 29.9 15.4533 29.9 16C29.9 16.5467 29.4467 17 28.9 17Z" fill="current"/>
<path d="M28.9 23.6666H4.90002C4.35336 23.6666 3.90002 23.2133 3.90002 22.6666C3.90002 22.12 4.35336 21.6666 4.90002 21.6666H28.9C29.4467 21.6666 29.9 22.12 29.9 22.6666C29.9 23.2133 29.4467 23.6666 28.9 23.6666Z" fill="current"/>
</svg>
