<svg width="33" height="32" viewBox="0 0 33 32" fill="none" xmlns="http://www.w3.org/2000/svg">
    <path
        d="M16.1 30.4134C15.18 30.4134 14.3133 29.9467 13.7 29.1334L11.7 26.4667C11.66 26.4134 11.5 26.3467 11.4333 26.3334H10.7667C5.20668 26.3334 1.76668 24.8267 1.76668 17.3334V10.6667C1.76668 4.77341 4.87334 1.66675 10.7667 1.66675H21.4333C27.3267 1.66675 30.4333 4.77341 30.4333 10.6667V17.3334C30.4333 23.2267 27.3267 26.3334 21.4333 26.3334H20.7667C20.66 26.3334 20.5667 26.3867 20.5 26.4667L18.5 29.1334C17.8867 29.9467 17.02 30.4134 16.1 30.4134ZM10.7667 3.66675C5.99334 3.66675 3.76668 5.89341 3.76668 10.6667V17.3334C3.76668 23.3601 5.83334 24.3334 10.7667 24.3334H11.4333C12.1133 24.3334 12.8867 24.7201 13.3 25.2668L15.3 27.9334C15.7667 28.5467 16.4333 28.5467 16.9 27.9334L18.9 25.2668C19.34 24.6801 20.0333 24.3334 20.7667 24.3334H21.4333C26.2067 24.3334 28.4333 22.1067 28.4333 17.3334V10.6667C28.4333 5.89341 26.2067 3.66675 21.4333 3.66675H10.7667Z"
        fill="current" />
    <path
        d="M16.1 15.9999C15.3533 15.9999 14.7667 15.3999 14.7667 14.6666C14.7667 13.9333 15.3667 13.3333 16.1 13.3333C16.8333 13.3333 17.4333 13.9333 17.4333 14.6666C17.4333 15.3999 16.8467 15.9999 16.1 15.9999Z"
        fill="current" />
    <path
        d="M21.4333 15.9999C20.6867 15.9999 20.1 15.3999 20.1 14.6666C20.1 13.9333 20.7 13.3333 21.4333 13.3333C22.1667 13.3333 22.7667 13.9333 22.7667 14.6666C22.7667 15.3999 22.18 15.9999 21.4333 15.9999Z"
        fill="current" />
    <path
        d="M10.7667 15.9999C10.02 15.9999 9.43335 15.3999 9.43335 14.6666C9.43335 13.9333 10.0333 13.3333 10.7667 13.3333C11.5 13.3333 12.1 13.9333 12.1 14.6666C12.1 15.3999 11.5133 15.9999 10.7667 15.9999Z"
        fill="current" />
</svg>