<svg viewBox="0 0 40 41" fill="none" xmlns="http://www.w3.org/2000/svg">
<path d="M27.0665 3.83325H12.9332C8.33317 3.83325 6.6665 5.49992 6.6665 10.1833V30.8166C6.6665 35.4999 8.33317 37.1666 12.9332 37.1666H27.0498C31.6665 37.1666 33.3332 35.4999 33.3332 30.8166V10.1833C33.3332 5.49992 31.6665 3.83325 27.0665 3.83325ZM19.9998 32.6666C18.3998 32.6666 17.0832 31.3499 17.0832 29.7499C17.0832 28.1499 18.3998 26.8333 19.9998 26.8333C21.5998 26.8333 22.9165 28.1499 22.9165 29.7499C22.9165 31.3499 21.5998 32.6666 19.9998 32.6666ZM23.3332 10.9166H16.6665C15.9832 10.9166 15.4165 10.3499 15.4165 9.66659C15.4165 8.98325 15.9832 8.41659 16.6665 8.41659H23.3332C24.0165 8.41659 24.5832 8.98325 24.5832 9.66659C24.5832 10.3499 24.0165 10.9166 23.3332 10.9166Z" fill="#FC753F"/>
</svg>
