<svg width="32" height="32" viewBox="0 0 32 32" fill="none" xmlns="http://www.w3.org/2000/svg">
<g clip-path="url(#clip0_91_12180)">
<path d="M18.05 28.2359C15.1917 31.0942 10.0392 30.579 6.54632 27.0807C3.05344 23.5824 2.53276 18.4352 5.39107 15.5769C8.24937 12.7186 13.4019 13.2339 16.9002 16.7268C20.3985 20.2196 20.9084 25.3722 18.05 28.2359Z" fill="#FEF156"/>
<path d="M16.5115 26.6977C18.5234 24.6858 18.0084 20.9088 15.3611 18.2616C12.7139 15.6144 8.93696 15.0994 6.92507 17.1112C4.91318 19.1231 5.42822 22.9001 8.07545 25.5473C10.7227 28.1945 14.4996 28.7096 16.5115 26.6977Z" fill="#F9EAB0"/>
<path d="M18.0501 28.2359L16.1301 30.1505C13.2718 33.0142 8.11927 32.4935 4.62639 29.0007C1.13351 25.5078 0.612834 20.3552 3.47656 17.4969L5.39114 15.5769C2.53283 18.4352 3.04809 23.5878 6.54639 27.0807C10.0447 30.5735 15.1918 31.0942 18.0501 28.2359Z" fill="#F0C419"/>
<path d="M25.9308 11.661C23.1538 14.4325 19.5362 15.3112 17.844 13.6136C16.1518 11.9159 17.025 8.2983 19.7965 5.52677C22.568 2.75525 26.1857 1.88203 27.8833 3.57423C29.5809 5.26644 28.7023 8.88949 25.9308 11.661Z" fill="#FEF156"/>
<path d="M10.8041 11.1837C9.48617 12.4963 6.67668 11.8183 4.52346 9.66507C2.37024 7.51185 1.69227 4.69694 3.00482 3.38439C4.31736 2.07185 7.13227 2.74439 9.28549 4.89761C11.4387 7.05083 12.1221 9.86575 10.8041 11.1837Z" fill="#F0C419"/>
<path d="M27.5579 13.2881C24.7864 16.0596 21.1633 16.9329 19.4711 15.2407L17.844 13.6135C19.5362 15.3112 23.1538 14.4325 25.9308 11.661C28.7077 8.88947 29.5755 5.26642 27.8833 3.57422L29.5104 5.20134C31.2026 6.89354 30.3294 10.5166 27.5579 13.2881Z" fill="#F0C419"/>
<path d="M9.76254 23.322C9.57464 23.3219 9.40018 23.2246 9.30142 23.0647C9.20266 22.9049 9.19367 22.7053 9.27766 22.5372L11.4472 18.1982C11.5811 17.9301 11.9069 17.8213 12.175 17.9552C12.4431 18.0891 12.5519 18.415 12.418 18.6831L10.2485 23.0221C10.1565 23.2062 9.96831 23.3223 9.76254 23.322Z" fill="white"/>
<path d="M11.9322 24.9492C11.7443 24.9491 11.5699 24.8517 11.4711 24.6919C11.3723 24.532 11.3633 24.3324 11.4473 24.1644L12.5321 21.9949C12.666 21.7268 12.9919 21.618 13.2599 21.7519C13.528 21.8858 13.6368 22.2116 13.5029 22.4797L12.4182 24.6492C12.3262 24.8333 12.138 24.9495 11.9322 24.9492Z" fill="white"/>
<path d="M20.6698 8.58521C20.4036 8.5854 20.1766 8.39239 20.134 8.12964C20.0914 7.86688 20.2458 7.61204 20.4984 7.52812L25.1004 5.99375C25.385 5.89894 25.6925 6.05278 25.7873 6.33734C25.8821 6.62191 25.7283 6.92945 25.4437 7.02426L20.8417 8.55809C20.7863 8.57652 20.7282 8.58569 20.6698 8.58521Z" fill="white"/>
<path d="M21.0531 11.27C20.7868 11.2704 20.5596 11.0775 20.5169 10.8147C20.4741 10.5518 20.6285 10.2968 20.8812 10.2129L23.1819 9.44541C23.4665 9.3506 23.774 9.50444 23.8689 9.789C23.9637 10.0736 23.8098 10.3811 23.5253 10.4759L21.2245 11.2428C21.1692 11.2609 21.1113 11.2701 21.0531 11.27Z" fill="white"/>
<path d="M13.3424 28.4621C11.2017 28.3892 9.17449 27.4812 7.69471 25.9325C4.83966 23.0774 4.32387 18.9489 6.5438 16.7284C8.76373 14.5079 12.8928 15.0237 15.7484 17.8788C18.604 20.7338 19.1193 24.8624 16.8988 27.0834C15.9463 28.0014 14.6648 28.4982 13.3424 28.4621ZM10.1066 16.4214C9.06847 16.3887 8.06081 16.7752 7.31071 17.4937C5.51383 19.2927 6.02963 22.7336 8.46109 25.1661C10.8925 27.5986 14.3334 28.1144 16.1313 26.317C17.9293 24.5196 17.4124 21.0782 14.981 18.6462C13.7065 17.3003 11.9585 16.503 10.1066 16.4231V16.4214Z" fill="#F29C1F"/>
</g>
<defs>
<clipPath id="clip0_91_12180">
<rect width="32" height="32" fill="white"/>
</clipPath>
</defs>
</svg>
