<svg width="16" height="16" viewBox="0 0 16 16" fill="none" xmlns="http://www.w3.org/2000/svg">
<path d="M10.7933 1.33325H5.20665C2.77998 1.33325 1.33331 2.77992 1.33331 5.20659V10.7866C1.33331 13.2199 2.77998 14.6666 5.20665 14.6666H10.7866C13.2133 14.6666 14.66 13.2199 14.66 10.7933V5.20659C14.6666 2.77992 13.22 1.33325 10.7933 1.33325ZM5.33331 8.66659C4.95998 8.66659 4.66665 8.36659 4.66665 7.99992C4.66665 7.63325 4.96665 7.33325 5.33331 7.33325C5.69998 7.33325 5.99998 7.63325 5.99998 7.99992C5.99998 8.36659 5.70665 8.66659 5.33331 8.66659ZM7.99998 8.66659C7.62665 8.66659 7.33331 8.36659 7.33331 7.99992C7.33331 7.63325 7.63331 7.33325 7.99998 7.33325C8.36665 7.33325 8.66665 7.63325 8.66665 7.99992C8.66665 8.36659 8.37331 8.66659 7.99998 8.66659ZM10.6666 8.66659C10.2933 8.66659 9.99998 8.36659 9.99998 7.99992C9.99998 7.63325 10.3 7.33325 10.6666 7.33325C11.0333 7.33325 11.3333 7.63325 11.3333 7.99992C11.3333 8.36659 11.04 8.66659 10.6666 8.66659Z" fill="#E4EDF4"/>
</svg>
