<svg width="20" height="20" viewBox="0 0 20 20" fill="none" xmlns="http://www.w3.org/2000/svg">
<path d="M14.6084 6.475C14.55 6.46666 14.4917 6.46666 14.4334 6.475C13.1417 6.43333 12.1167 5.375 12.1167 4.075C12.1167 2.75 13.1917 1.66666 14.525 1.66666C15.85 1.66666 16.9334 2.74166 16.9334 4.075C16.925 5.375 15.9 6.43333 14.6084 6.475Z" fill="current"/>
<path d="M17.3249 12.25C16.3916 12.875 15.0833 13.1083 13.8749 12.95C14.1916 12.2667 14.3583 11.5083 14.3666 10.7083C14.3666 9.875 14.1833 9.08333 13.8333 8.39167C15.0666 8.225 16.3749 8.45833 17.3166 9.08333C18.6333 9.95 18.6333 11.375 17.3249 12.25Z" fill="current"/>
<path d="M5.36672 6.475C5.42505 6.46666 5.48338 6.46666 5.54172 6.475C6.83338 6.43333 7.85838 5.375 7.85838 4.075C7.85838 2.74166 6.78338 1.66666 5.45005 1.66666C4.12505 1.66666 3.05005 2.74166 3.05005 4.075C3.05005 5.375 4.07505 6.43333 5.36672 6.475Z" fill="current"/>
<path d="M5.45843 10.7083C5.45843 11.5167 5.63343 12.2833 5.9501 12.975C4.7751 13.1 3.5501 12.85 2.6501 12.2583C1.33343 11.3833 1.33343 9.95833 2.6501 9.08333C3.54176 8.48333 4.8001 8.24166 5.98343 8.375C5.64176 9.075 5.45843 9.86666 5.45843 10.7083Z" fill="current"/>
<path d="M10.1 13.225C10.0333 13.2167 9.95833 13.2167 9.88333 13.225C8.35 13.175 7.125 11.9167 7.125 10.3667C7.13333 8.78333 8.40833 7.5 10 7.5C11.5833 7.5 12.8667 8.78333 12.8667 10.3667C12.8583 11.9167 11.6417 13.175 10.1 13.225Z" fill="current"/>
<path d="M7.39175 14.95C6.13341 15.7917 6.13341 17.175 7.39175 18.0083C8.82508 18.9667 11.1751 18.9667 12.6084 18.0083C13.8667 17.1667 13.8667 15.7833 12.6084 14.95C11.1834 13.9917 8.83341 13.9917 7.39175 14.95Z" fill="current"/>
</svg>
