<svg width="21" height="20" viewBox="0 0 21 20" fill="none" xmlns="http://www.w3.org/2000/svg">
<path d="M6.22467 11.6665H3.99967C3.08301 11.6665 2.33301 12.4165 2.33301 13.3332V17.4998C2.33301 17.9582 2.70801 18.3332 3.16634 18.3332H6.22467C6.68301 18.3332 7.05801 17.9582 7.05801 17.4998V12.4998C7.05801 12.0415 6.68301 11.6665 6.22467 11.6665Z" fill="#FC753F"/>
<path d="M11.775 8.3335H9.54997C8.6333 8.3335 7.8833 9.0835 7.8833 10.0002V17.5002C7.8833 17.9585 8.2583 18.3335 8.71663 18.3335H12.6083C13.0666 18.3335 13.4416 17.9585 13.4416 17.5002V10.0002C13.4416 9.0835 12.7 8.3335 11.775 8.3335Z" fill="#FC753F"/>
<path d="M17.3332 14.1665H15.1082C14.6499 14.1665 14.2749 14.5415 14.2749 14.9998V17.4998C14.2749 17.9582 14.6499 18.3332 15.1082 18.3332H18.1666C18.6249 18.3332 18.9999 17.9582 18.9999 17.4998V15.8332C18.9999 14.9165 18.2499 14.1665 17.3332 14.1665Z" fill="#FC753F"/>
<path d="M13.1749 4.04173C13.4332 3.7834 13.5332 3.47507 13.4499 3.2084C13.3665 2.94173 13.1082 2.75007 12.7415 2.69173L11.9415 2.5584C11.9082 2.5584 11.8332 2.50007 11.8165 2.46673L11.3749 1.5834C11.0415 0.908398 10.2832 0.908398 9.94987 1.5834L9.5082 2.46673C9.49987 2.50007 9.42487 2.5584 9.39154 2.5584L8.59154 2.69173C8.22487 2.75007 7.97487 2.94173 7.8832 3.2084C7.79987 3.47507 7.89987 3.7834 8.1582 4.04173L8.77487 4.66673C8.8082 4.69173 8.8332 4.79173 8.82487 4.82507L8.64987 5.59173C8.51654 6.16673 8.7332 6.42507 8.87487 6.52507C9.01654 6.62507 9.32487 6.7584 9.8332 6.4584L10.5832 6.01673C10.6165 5.99173 10.7249 5.99173 10.7582 6.01673L11.4999 6.4584C11.7332 6.60007 11.9249 6.64173 12.0749 6.64173C12.2499 6.64173 12.3749 6.57507 12.4499 6.52507C12.5915 6.42507 12.8082 6.16673 12.6749 5.59173L12.4999 4.82507C12.4915 4.7834 12.5165 4.69173 12.5499 4.66673L13.1749 4.04173Z" fill="#FC753F"/>
</svg>
