<svg width="20" height="20" viewBox="0 0 20 20" fill="none" xmlns="http://www.w3.org/2000/svg">
<path d="M15.0583 7.09178L7.92501 3.52511C3.13334 1.12511 1.16667 3.09178 3.56667 7.88345L4.29167 9.33345C4.50001 9.75845 4.50001 10.2501 4.29167 10.6751L3.56667 12.1168C1.16667 16.9084 3.12501 18.8751 7.92501 16.4751L15.0583 12.9084C18.2583 11.3084 18.2583 8.69178 15.0583 7.09178ZM12.3667 10.6251H7.86667C7.52501 10.6251 7.24167 10.3418 7.24167 10.0001C7.24167 9.65845 7.52501 9.37511 7.86667 9.37511H12.3667C12.7083 9.37511 12.9917 9.65845 12.9917 10.0001C12.9917 10.3418 12.7083 10.6251 12.3667 10.6251Z" fill="#FEF156"/>
</svg>
