<svg viewBox="0 0 20 20" fill="none" xmlns="http://www.w3.org/2000/svg">
<path d="M17.1834 10.8917C16.8667 10.8917 16.6 10.65 16.5584 10.3334C16.3584 8.45002 15.3417 6.74169 13.775 5.65836C13.4917 5.45836 13.425 5.07502 13.6167 4.79169C13.8167 4.50836 14.2084 4.44169 14.4834 4.63336C16.35 5.92502 17.55 7.95836 17.7917 10.2C17.825 10.5417 17.5834 10.85 17.2334 10.8917C17.225 10.8917 17.2 10.8917 17.1834 10.8917Z" fill="currentColor"/>
<path d="M3.02749 10.3244L3.02736 10.3244L3.02647 10.3357C3.02475 10.3574 3.01461 10.3805 2.99206 10.4008C2.96881 10.4216 2.93867 10.4333 2.90825 10.4333H2.90811H2.90796H2.90782H2.90767H2.90752H2.90738H2.90723H2.90709H2.90694H2.9068H2.90665H2.90651H2.90637H2.90622H2.90608H2.90594H2.90579H2.90565H2.90551H2.90536H2.90522H2.90508H2.90493H2.90479H2.90465H2.90451H2.90437H2.90423H2.90408H2.90394H2.9038H2.90366H2.90352H2.90338H2.90324H2.9031H2.90296H2.90282H2.90268H2.90254H2.9024H2.90226H2.90212H2.90198H2.90184H2.90171H2.90157H2.90143H2.90129H2.90115H2.90102H2.90088H2.90074H2.9006H2.90047H2.90033H2.90019H2.90006H2.89992H2.89978H2.89965H2.89951H2.89937H2.89924H2.8991H2.89897H2.89883H2.8987H2.89856H2.89843H2.89829H2.89816H2.89802H2.89789H2.89775H2.89762H2.89748H2.89735H2.89722H2.89708H2.89695H2.89682H2.89668H2.89655H2.89642H2.89628H2.89615H2.89602H2.89589H2.89575H2.89562H2.89549H2.89536H2.89522H2.89509H2.89496H2.89483H2.8947H2.89457H2.89444H2.8943H2.89417H2.89404H2.89391H2.89378H2.89365H2.89352H2.89339H2.89326H2.89313H2.893H2.89287H2.89274H2.89261H2.89248H2.89235H2.89222H2.89209H2.89196H2.89184H2.89171H2.89158H2.89145H2.89132H2.89119H2.89106H2.89094H2.89081H2.89068H2.89055H2.89042H2.8903H2.89017H2.89004H2.88991H2.88978H2.88966H2.88953H2.8894H2.88928H2.88915H2.88902H2.88889H2.88877H2.88864H2.88851H2.88839H2.88826H2.88814H2.88801H2.88788H2.88776H2.88763H2.8875H2.88738H2.88725H2.88713H2.887H2.88688H2.88675H2.88662H2.8865H2.88637H2.88625H2.88612H2.886H2.88587H2.88575H2.88562H2.8855H2.88537H2.88525H2.88512H2.885H2.88488H2.88475H2.88463H2.8845H2.88438H2.88425H2.88413H2.88401H2.88388H2.88376H2.88363H2.88351H2.88339H2.88326H2.88315C2.81792 10.4159 2.77482 10.3524 2.78089 10.2902L2.28325 10.2417L2.78076 10.2916C2.99107 8.19621 4.10495 6.30096 5.83032 5.07489C5.88903 5.03375 5.96816 5.04843 6.0081 5.10502C6.04958 5.16377 6.03496 5.24316 5.97825 5.28319L6.26659 5.69168L5.97868 5.28289C4.31044 6.45783 3.23385 8.29673 3.02749 10.3244Z" fill="currentColor" stroke="currentColor"/>
<path d="M10.0503 18.8417C8.81696 18.8417 7.64196 18.5583 6.54196 18.0083C6.23363 17.85 6.10863 17.475 6.26696 17.1667C6.4253 16.8583 6.8003 16.7333 7.10863 16.8917C8.90863 17.8 11.0753 17.8167 12.892 16.9417C13.2003 16.7917 13.5753 16.925 13.7253 17.2333C13.8753 17.5417 13.742 17.9167 13.4336 18.0667C12.367 18.5833 11.2336 18.8417 10.0503 18.8417Z" fill="currentColor"/>
<path d="M10.0501 7.03336C8.42507 7.03336 7.1084 5.71669 7.1084 4.09169C7.1084 2.46669 8.42507 1.15002 10.0501 1.15002C11.6751 1.15002 12.9917 2.46669 12.9917 4.09169C12.9917 5.71669 11.6667 7.03336 10.0501 7.03336ZM10.0501 2.40836C9.11673 2.40836 8.3584 3.16669 8.3584 4.10002C8.3584 5.03336 9.11673 5.79169 10.0501 5.79169C10.9834 5.79169 11.7417 5.03336 11.7417 4.10002C11.7417 3.16669 10.9751 2.40836 10.0501 2.40836Z" fill="currentColor"/>
<path d="M4.02467 17.225C2.39967 17.225 1.08301 15.9083 1.08301 14.2833C1.08301 12.6667 2.39967 11.3417 4.02467 11.3417C5.64967 11.3417 6.96634 12.6583 6.96634 14.2833C6.96634 15.9 5.64967 17.225 4.02467 17.225ZM4.02467 12.5917C3.09134 12.5917 2.33301 13.35 2.33301 14.2833C2.33301 15.2167 3.09134 15.975 4.02467 15.975C4.95801 15.975 5.71634 15.2167 5.71634 14.2833C5.71634 13.35 4.95801 12.5917 4.02467 12.5917Z" fill="currentColor"/>
<path d="M15.9749 17.225C14.3499 17.225 13.0332 15.9083 13.0332 14.2833C13.0332 12.6667 14.3499 11.3417 15.9749 11.3417C17.5999 11.3417 18.9165 12.6583 18.9165 14.2833C18.9082 15.9 17.5915 17.225 15.9749 17.225ZM15.9749 12.5917C15.0415 12.5917 14.2832 13.35 14.2832 14.2833C14.2832 15.2167 15.0415 15.975 15.9749 15.975C16.9082 15.975 17.6665 15.2167 17.6665 14.2833C17.6582 13.35 16.9082 12.5917 15.9749 12.5917Z" fill="currentColor"/>
</svg>
