<svg width="20" height="20" viewBox="0 0 20 20" fill="none" xmlns="http://www.w3.org/2000/svg">
    <path
        d="M18.6333 6.89163L18.3916 4.58329C18.0416 2.06663 16.9 1.04163 14.4583 1.04163H12.4916H11.2583H8.72495H7.49162H5.49162C3.04162 1.04163 1.90829 2.06663 1.54995 4.60829L1.32495 6.89996C1.24162 7.79163 1.48329 8.65829 2.00829 9.33329C2.64162 10.1583 3.61662 10.625 4.69995 10.625C5.74995 10.625 6.75829 10.1 7.39162 9.25829C7.95829 10.1 8.92495 10.625 9.99995 10.625C11.075 10.625 12.0166 10.125 12.5916 9.29163C13.2333 10.1166 14.225 10.625 15.2583 10.625C16.3666 10.625 17.3666 10.1333 17.9916 9.26663C18.4916 8.59996 18.7166 7.75829 18.6333 6.89163Z"
        fill="current" />
    <path
        d="M9.45831 13.8834C8.39998 13.9917 7.59998 14.8917 7.59998 15.9584V18.2417C7.59998 18.4667 7.78331 18.65 8.00831 18.65H11.9833C12.2083 18.65 12.3916 18.4667 12.3916 18.2417V16.25C12.4 14.5084 11.375 13.6834 9.45831 13.8834Z"
        fill="current" />
    <path
        d="M17.8083 11.9999V14.4833C17.8083 16.7833 15.9417 18.6499 13.6417 18.6499C13.4167 18.6499 13.2333 18.4666 13.2333 18.2416V16.2499C13.2333 15.1833 12.9083 14.3499 12.275 13.7833C11.7167 13.2749 10.9583 13.0249 10.0167 13.0249C9.80832 13.0249 9.59998 13.0333 9.37498 13.0583C7.89165 13.2083 6.76665 14.4583 6.76665 15.9583V18.2416C6.76665 18.4666 6.58332 18.6499 6.35832 18.6499C4.05832 18.6499 2.19165 16.7833 2.19165 14.4833V12.0166C2.19165 11.4333 2.76665 11.0416 3.30832 11.2333C3.53332 11.3083 3.75832 11.3666 3.99165 11.3999C4.09165 11.4166 4.19998 11.4333 4.29998 11.4333C4.43332 11.4499 4.56665 11.4583 4.69998 11.4583C5.66665 11.4583 6.61665 11.0999 7.36665 10.4833C8.08332 11.0999 9.01665 11.4583 9.99998 11.4583C10.9917 11.4583 11.9083 11.1166 12.625 10.4999C13.375 11.1083 14.3083 11.4583 15.2583 11.4583C15.4083 11.4583 15.5583 11.4499 15.7 11.4333C15.8 11.4249 15.8916 11.4166 15.9833 11.3999C16.2416 11.3666 16.475 11.2916 16.7083 11.2166C17.25 11.0333 17.8083 11.4333 17.8083 11.9999Z"
        fill="#96A5C0" />
</svg>