<svg width="20" height="20" viewBox="0 0 20 20" fill="none" xmlns="http://www.w3.org/2000/svg">
<g id="strongbox-2">
<g id="vuesax/bold/strongbox-2">
<g id="strongbox-2_2">
<path id="Vector" d="M13.4915 1.66699H6.50817C3.47484 1.66699 1.6665 3.47533 1.6665 6.50866V13.4837C1.6665 16.5253 3.47484 18.3337 6.50817 18.3337H13.4832C16.5165 18.3337 18.3248 16.5253 18.3248 13.492V6.50866C18.3332 3.47533 16.5248 1.66699 13.4915 1.66699ZM15.8332 6.86699C15.8332 7.32533 15.4582 7.70033 14.9998 7.70033H13.3332C12.9915 7.70033 12.7082 7.98366 12.7082 8.32533C12.7082 8.67533 12.9915 8.95033 13.3332 8.95033H14.9998C15.4582 8.95033 15.8332 9.32533 15.8332 9.78366V10.2087C15.8332 10.667 15.4582 11.042 14.9998 11.042H13.3332C12.9915 11.042 12.7082 11.3253 12.7082 11.667C12.7082 12.0087 12.9915 12.292 13.3332 12.292H14.9998C15.4582 12.292 15.8332 12.667 15.8332 13.1253V13.3337C15.8332 14.717 14.7165 15.8337 13.3332 15.8337H6.6665C5.28317 15.8337 4.1665 14.717 4.1665 13.3337V12.917C4.1665 12.4587 4.5415 12.0837 4.99984 12.0837H6.23317C7.45817 12.0837 8.43317 11.0337 8.30817 9.78366C8.19984 8.70033 7.20817 7.91699 6.1165 7.91699H4.99984C4.5415 7.91699 4.1665 7.54199 4.1665 7.08366V6.66699C4.1665 5.28366 5.28317 4.16699 6.6665 4.16699H13.3332C14.7165 4.16699 15.8332 5.28366 15.8332 6.66699V6.86699ZM4.1665 10.0003C4.1665 9.54199 4.5415 9.16699 4.99984 9.16699H5.83317C6.2915 9.16699 6.6665 9.54199 6.6665 10.0003C6.6665 10.4587 6.2915 10.8337 5.83317 10.8337H4.99984C4.5415 10.8337 4.1665 10.4587 4.1665 10.0003Z" fill="none"/>
</g>
</g>
</g>
</svg>
