<svg width="21" height="20" viewBox="0 0 21 20" fill="none" xmlns="http://www.w3.org/2000/svg">
<path d="M10.6667 15.8335C13.8883 15.8335 16.5 13.2218 16.5 10.0002C16.5 6.7785 13.8883 4.16683 10.6667 4.16683C7.44501 4.16683 4.83333 6.7785 4.83333 10.0002C4.83333 13.2218 7.44501 15.8335 10.6667 15.8335Z" fill="#181536"/>
<path d="M10.6667 19.1335C10.2083 19.1335 9.83333 18.7918 9.83333 18.3335V18.2668C9.83333 17.8085 10.2083 17.4335 10.6667 17.4335C11.125 17.4335 11.5 17.8085 11.5 18.2668C11.5 18.7252 11.125 19.1335 10.6667 19.1335ZM16.6167 16.7835C16.4 16.7835 16.1917 16.7002 16.025 16.5418L15.9167 16.4335C15.5917 16.1085 15.5917 15.5835 15.9167 15.2585C16.2417 14.9335 16.7667 14.9335 17.0917 15.2585L17.2 15.3668C17.525 15.6918 17.525 16.2168 17.2 16.5418C17.0417 16.7002 16.8333 16.7835 16.6167 16.7835ZM4.71667 16.7835C4.5 16.7835 4.29167 16.7002 4.125 16.5418C3.8 16.2168 3.8 15.6918 4.125 15.3668L4.23333 15.2585C4.55833 14.9335 5.08333 14.9335 5.40833 15.2585C5.73333 15.5835 5.73333 16.1085 5.40833 16.4335L5.3 16.5418C5.14167 16.7002 4.925 16.7835 4.71667 16.7835ZM19 10.8335H18.9333C18.475 10.8335 18.1 10.4585 18.1 10.0002C18.1 9.54183 18.475 9.16683 18.9333 9.16683C19.3917 9.16683 19.8 9.54183 19.8 10.0002C19.8 10.4585 19.4583 10.8335 19 10.8335ZM2.4 10.8335H2.33333C1.875 10.8335 1.5 10.4585 1.5 10.0002C1.5 9.54183 1.875 9.16683 2.33333 9.16683C2.79167 9.16683 3.2 9.54183 3.2 10.0002C3.2 10.4585 2.85833 10.8335 2.4 10.8335ZM16.5083 4.99183C16.2917 4.99183 16.0833 4.9085 15.9167 4.75016C15.5917 4.42516 15.5917 3.90016 15.9167 3.57516L16.025 3.46683C16.35 3.14183 16.875 3.14183 17.2 3.46683C17.525 3.79183 17.525 4.31683 17.2 4.64183L17.0917 4.75016C16.9333 4.9085 16.725 4.99183 16.5083 4.99183ZM4.825 4.99183C4.60833 4.99183 4.4 4.9085 4.23333 4.75016L4.125 4.6335C3.8 4.3085 3.8 3.7835 4.125 3.4585C4.45 3.1335 4.975 3.1335 5.3 3.4585L5.40833 3.56683C5.73333 3.89183 5.73333 4.41683 5.40833 4.74183C5.25 4.9085 5.03333 4.99183 4.825 4.99183ZM10.6667 2.5335C10.2083 2.5335 9.83333 2.19183 9.83333 1.7335V1.66683C9.83333 1.2085 10.2083 0.833496 10.6667 0.833496C11.125 0.833496 11.5 1.2085 11.5 1.66683C11.5 2.12516 11.125 2.5335 10.6667 2.5335Z" fill="#181536"/>
</svg>
