<svg width="112" height="112" viewBox="0 0 112 112" fill="none" xmlns="http://www.w3.org/2000/svg">
<path d="M56 112C86.9279 112 112 86.9279 112 56C112 25.0721 86.9279 0 56 0C25.0721 0 0 25.0721 0 56C0 86.9279 25.0721 112 56 112Z" fill="#FEF156"/>
<path d="M56 110.568C86.137 110.568 110.568 86.137 110.568 56C110.568 25.863 86.137 1.43213 56 1.43213C25.863 1.43213 1.43213 25.863 1.43213 56C1.43213 86.137 25.863 110.568 56 110.568Z" fill="#FFC242"/>
<g style="mix-blend-mode:soft-light">
<path d="M94.6934 17.5264L17.5272 94.6893C22.6989 99.832 28.8971 103.932 35.7841 106.68L106.684 35.7833C103.936 28.8963 99.836 22.6948 94.6934 17.5264Z" fill="white"/>
</g>
<g style="mix-blend-mode:soft-light">
<path d="M109.195 68.1487L68.1497 109.194C88.5273 104.559 104.557 88.5264 109.195 68.1487Z" fill="white"/>
</g>
<g style="mix-blend-mode:soft-light">
<path d="M29.2029 8.4702L8.47117 29.2019C6.18625 33.2439 4.39371 37.6014 3.19653 42.2002L42.2012 3.19556C37.6024 4.39273 33.2449 6.18527 29.2029 8.4702Z" fill="white"/>
</g>
<g style="mix-blend-mode:soft-light">
<path d="M87.5039 11.4568L11.4576 87.503C12.3426 88.7549 13.2759 89.9681 14.2639 91.1396L91.1372 14.2631C89.9658 13.2783 88.7525 12.345 87.5006 11.4568H87.5039Z" fill="white"/>
</g>
<g style="mix-blend-mode:soft-light">
<path d="M57.0726 96.5494C78.9093 96.5494 96.6115 78.8473 96.6115 57.0106C96.6115 35.1738 78.9093 17.4717 57.0726 17.4717C35.2359 17.4717 17.5337 35.1738 17.5337 57.0106C17.5337 78.8473 35.2359 96.5494 57.0726 96.5494Z" fill="white"/>
</g>
<path d="M56.0001 95.5389C77.8368 95.5389 95.5389 77.8368 95.5389 56.0001C95.5389 34.1633 77.8368 16.4612 56.0001 16.4612C34.1633 16.4612 16.4612 34.1633 16.4612 56.0001C16.4612 77.8368 34.1633 95.5389 56.0001 95.5389Z" fill="#FEF156"/>
<path d="M18.6086 58.1466C18.6086 36.3111 36.3119 18.6077 58.1475 18.6077C68.5197 18.6077 77.9555 22.608 85.0066 29.1409C77.785 21.3464 67.4642 16.4612 56.0009 16.4612C34.1654 16.4612 16.462 34.1645 16.462 56.0001C16.462 67.4633 21.3473 77.7841 29.1418 85.0058C22.6088 77.9515 18.6086 68.5189 18.6086 58.1466Z" fill="#FC753F"/>
<g style="mix-blend-mode:soft-light">
<path d="M56.0006 2.14654C86.5671 2.14654 111.399 26.6435 111.972 57.0717C111.978 56.7144 111.997 56.3572 111.997 55.9968C111.997 25.073 86.9276 0 56.0006 0C25.0737 0 0.000610352 25.073 0.000610352 56C0.000610352 56.3604 0.0199196 56.7145 0.026356 57.0749C0.602415 26.6435 25.4309 2.14654 56.0006 2.14654Z" fill="white"/>
</g>
<path d="M76.2604 48.1861C75.8078 47.88 74.4293 48.3901 73.884 48.4412C70.7155 48.7472 67.3823 48.1249 64.152 48.4718C62.3929 48.6554 60.8189 49.1655 59.2655 50.0021C57.9898 50.6755 56.6627 51.7467 55.3459 50.4816C53.7822 48.9717 53.7925 46.3395 52.5272 44.5847C51.0252 42.5136 48.9985 40.5547 46.7147 39.3815C45.9226 38.9734 45.0481 38.6877 44.2148 38.4122C43.1038 38.0552 41.7767 37.8205 41.9722 39.3917C42.1265 40.5853 42.0853 41.4015 41.8281 42.6054C41.3241 44.8805 40.4702 47.4005 40.9331 49.7368C41.4269 52.2364 43.0215 54.6646 45.0584 56.2051C46.3032 57.1437 49.3895 58.3986 49.7084 60.1228C49.8421 60.9084 49.6878 61.796 49.4923 62.5408C49.0603 64.2038 48.4327 65.7953 47.7023 67.3767C47.2291 68.4071 46.2826 69.9375 46.7559 71.1108C48.978 76.7221 65.6746 74.2021 63.2159 67.4685C62.8044 66.3463 62.1151 65.1934 61.7653 64.1426C61.3641 63.0101 60.5308 61.4083 60.9012 60.1841C61.4567 58.2864 63.5965 58.8884 65.1602 58.7863C68.9563 58.5211 73.061 57.0009 75.4066 53.8892C76.1164 52.9506 77.711 49.1553 76.2604 48.1861Z" fill="#FC753F"/>
</svg>
