<svg width="112" height="112" viewBox="0 0 112 112" fill="none" xmlns="http://www.w3.org/2000/svg">
<path d="M56 112C86.9279 112 112 86.9279 112 56C112 25.0721 86.9279 0 56 0C25.0721 0 0 25.0721 0 56C0 86.9279 25.0721 112 56 112Z" fill="#A7ACB8"/>
<path d="M56 110.568C86.137 110.568 110.568 86.137 110.568 56C110.568 25.8629 86.137 1.43207 56 1.43207C25.863 1.43207 1.43213 25.8629 1.43213 56C1.43213 86.137 25.863 110.568 56 110.568Z" fill="#898E9E"/>
<g style="mix-blend-mode:soft-light">
<path d="M94.6935 17.5264L17.5273 94.6893C22.699 99.832 28.8973 103.932 35.7842 106.68L106.685 35.7833C103.936 28.8963 99.8362 22.6948 94.6935 17.5264Z" fill="#A7ACB8"/>
</g>
<g style="mix-blend-mode:soft-light">
<path d="M109.194 68.1488L68.1494 109.194C88.5271 104.56 104.557 88.5265 109.194 68.1488Z" fill="#A7ACB8"/>
</g>
<g style="mix-blend-mode:soft-light">
<path d="M29.2031 8.47032L8.47142 29.202C6.18649 33.2441 4.39395 37.6015 3.19678 42.2003L42.2014 3.19568C37.6026 4.39285 33.2452 6.18539 29.2031 8.47032Z" fill="#A7ACB8"/>
</g>
<g style="mix-blend-mode:soft-light">
<path d="M87.5037 11.4568L11.4575 87.503C12.3425 88.7549 13.2758 89.9681 14.2638 91.1396L91.1371 14.2631C89.9657 13.2783 88.7524 12.345 87.5005 11.4568H87.5037Z" fill="#A7ACB8"/>
</g>
<g style="mix-blend-mode:soft-light">
<path d="M57.0726 96.5494C78.9093 96.5494 96.6115 78.8472 96.6115 57.0105C96.6115 35.1738 78.9093 17.4716 57.0726 17.4716C35.2359 17.4716 17.5337 35.1738 17.5337 57.0105C17.5337 78.8472 35.2359 96.5494 57.0726 96.5494Z" fill="#A7ACB8"/>
</g>
<path d="M55.9998 95.5388C77.8365 95.5388 95.5387 77.8367 95.5387 55.9999C95.5387 34.1632 77.8365 16.4611 55.9998 16.4611C34.1631 16.4611 16.4609 34.1632 16.4609 55.9999C16.4609 77.8367 34.1631 95.5388 55.9998 95.5388Z" fill="#A7ACB8"/>
<path d="M18.6085 58.1465C18.6085 36.311 36.3118 18.6076 58.1473 18.6076C68.5196 18.6076 77.9554 22.6078 85.0065 29.1408C77.7848 21.3463 67.464 16.4611 56.0008 16.4611C34.1653 16.4611 16.4619 34.1644 16.4619 55.9999C16.4619 67.4632 21.3472 77.784 29.1416 85.0056C22.6087 77.9513 18.6085 68.5188 18.6085 58.1465Z" fill="#5A6178"/>
<g style="mix-blend-mode:soft-light">
<path d="M56.0005 2.14654C86.567 2.14654 111.399 26.6435 111.972 57.0717C111.978 56.7144 111.997 56.3572 111.997 55.9968C111.997 25.073 86.9275 0 56.0005 0C25.0735 0 0.000488281 25.073 0.000488281 56C0.000488281 56.3604 0.0197975 56.7145 0.0262339 57.0749C0.602293 26.6435 25.4308 2.14654 56.0005 2.14654Z" fill="#A7ACB8"/>
</g>
<path d="M76.2607 48.1859C75.808 47.8798 74.4295 48.39 73.8843 48.441C70.7157 48.747 67.3826 48.1247 64.1523 48.4716C62.3931 48.6552 60.8191 49.1653 59.2657 50.0019C57.9901 50.6753 56.663 51.7465 55.3462 50.4814C53.7825 48.9715 53.7928 46.3393 52.5274 44.5845C51.0254 42.5134 48.9988 40.5545 46.715 39.3813C45.9228 38.9732 45.0484 38.6875 44.2151 38.4121C43.104 38.055 41.7769 37.8203 41.9724 39.3915C42.1267 40.5852 42.0856 41.4013 41.8284 42.6052C41.3243 44.8803 40.4704 47.4003 40.9334 49.7367C41.4272 52.2362 43.0217 54.6644 45.0587 56.205C46.3035 57.1436 49.3897 58.3985 49.7086 60.1227C49.8424 60.9082 49.688 61.7958 49.4926 62.5406C49.0605 64.2036 48.433 65.7952 47.7026 67.3765C47.2293 68.407 46.2829 69.9373 46.7561 71.1106C48.9782 76.7219 65.6748 74.2019 63.2161 67.4683C62.8046 66.3461 62.1154 65.1932 61.7656 64.1424C61.3644 63.0099 60.5311 61.4081 60.9014 60.1839C61.4569 58.2862 63.5968 58.8882 65.1605 58.7862C68.9565 58.5209 73.0613 57.0007 75.4068 53.889C76.1166 52.9504 77.7112 49.1551 76.2607 48.1859Z" fill="#5A6178"/>
</svg>
