<svg width="20" height="20" viewBox="0 0 20 20" fill="none" xmlns="http://www.w3.org/2000/svg">
<path d="M12.6083 15.8834H5.94165C5.59998 15.8834 5.31665 15.6 5.31665 15.2584C5.31665 14.9167 5.59998 14.6334 5.94165 14.6334H12.6083C14.5583 14.6334 16.15 13.0417 16.15 11.0917C16.15 9.14172 14.5583 7.55005 12.6083 7.55005H3.44165C3.09998 7.55005 2.81665 7.26672 2.81665 6.92505C2.81665 6.58338 3.09998 6.30005 3.44165 6.30005H12.6083C15.25 6.30005 17.4 8.45005 17.4 11.0917C17.4 13.7334 15.25 15.8834 12.6083 15.8834Z" fill="white"/>
<path d="M5.35836 9.63324C5.20003 9.63324 5.0417 9.5749 4.9167 9.4499L2.78336 7.31657C2.5417 7.0749 2.5417 6.6749 2.78336 6.43324L4.9167 4.2999C5.15836 4.05824 5.55836 4.05824 5.80003 4.2999C6.0417 4.54157 6.0417 4.94157 5.80003 5.18324L4.10836 6.8749L5.80003 8.56657C6.0417 8.80824 6.0417 9.20824 5.80003 9.4499C5.68336 9.5749 5.5167 9.63324 5.35836 9.63324Z" fill="white"/>
</svg>
