<svg viewBox="0 0 24 24" fill="none" xmlns="http://www.w3.org/2000/svg">
    <path
        d="M21.71 9.90011L19.31 5.08011C18.84 4.13011 17.59 3.36011 16.53 3.36011H7.46998C6.40998 3.36011 5.15998 4.13011 4.68998 5.08011L2.28997 9.90011C1.70997 11.0601 2.02997 12.7101 2.97997 13.5801L9.90998 19.8701C11.06 20.9101 12.93 20.9101 14.08 19.8701L21.01 13.5801C21.97 12.7101 22.29 11.0501 21.71 9.90011ZM16 9.25011H12.75V14.5001C12.75 14.9101 12.41 15.2501 12 15.2501C11.59 15.2501 11.25 14.9101 11.25 14.5001V9.25011H7.99998C7.58998 9.25011 7.24998 8.91011 7.24998 8.50011C7.24998 8.09011 7.58998 7.75011 7.99998 7.75011H16C16.41 7.75011 16.75 8.09011 16.75 8.50011C16.75 8.91011 16.41 9.25011 16 9.25011Z"
        fill="current" />
</svg>