<svg width="21" height="20" viewBox="0 0 21 20" fill="none" xmlns="http://www.w3.org/2000/svg">
<path d="M15.6663 13.9583C15.533 13.9583 15.408 13.9166 15.2913 13.8333C15.0163 13.6249 14.958 13.2333 15.1663 12.9583C16.4747 11.2166 16.4747 8.78327 15.1663 7.0416C14.958 6.7666 15.0163 6.37493 15.2913 6.1666C15.5663 5.95827 15.958 6.0166 16.1663 6.2916C17.7997 8.47493 17.7997 11.5249 16.1663 13.7083C16.0413 13.8749 15.858 13.9583 15.6663 13.9583Z" fill="#181536"/>
<path d="M17.1913 16.0416C17.058 16.0416 16.933 15.9999 16.8163 15.9166C16.5413 15.7083 16.483 15.3166 16.6913 15.0416C18.9163 12.0749 18.9163 7.92493 16.6913 4.95827C16.483 4.68327 16.5413 4.2916 16.8163 4.08327C17.0913 3.87493 17.483 3.93327 17.6913 4.20827C20.2497 7.6166 20.2497 12.3833 17.6913 15.7916C17.5747 15.9583 17.383 16.0416 17.1913 16.0416Z" fill="#181536"/>
<path d="M12.3497 3.14993C11.4163 2.63327 10.2247 2.7666 9.00801 3.52493L6.57467 5.04993C6.40801 5.14993 6.21634 5.20827 6.02467 5.20827H4.83301C2.81634 5.20827 1.70801 6.3166 1.70801 8.33327V11.6666C1.70801 13.6833 2.81634 14.7916 4.83301 14.7916H6.02467C6.21634 14.7916 6.40801 14.8499 6.57467 14.9499L9.00801 16.4749C9.74134 16.9333 10.458 17.1583 11.1247 17.1583C11.558 17.1583 11.9747 17.0583 12.3497 16.8499C13.2747 16.3333 13.7913 15.2583 13.7913 13.8249V6.17493C13.7913 4.7416 13.2747 3.6666 12.3497 3.14993Z" fill="#181536"/>
</svg>
