<svg width="20" height="20" viewBox="0 0 20 20" fill="none" xmlns="http://www.w3.org/2000/svg">
<path d="M14.9998 13.9583C14.8665 13.9583 14.7415 13.9167 14.6248 13.8333C14.3498 13.625 14.2915 13.2333 14.4998 12.9583C15.8082 11.2167 15.8082 8.78333 14.4998 7.04166C14.2915 6.76666 14.3498 6.37499 14.6248 6.16666C14.8998 5.95833 15.2915 6.01666 15.4998 6.29166C17.1332 8.47499 17.1332 11.525 15.4998 13.7083C15.3748 13.875 15.1915 13.9583 14.9998 13.9583Z" fill="#96A5C0"/>
<path d="M16.5248 16.0417C16.3915 16.0417 16.2665 16 16.1498 15.9167C15.8748 15.7083 15.8165 15.3167 16.0248 15.0417C18.2498 12.075 18.2498 7.92499 16.0248 4.95833C15.8165 4.68333 15.8748 4.29166 16.1498 4.08333C16.4248 3.87499 16.8165 3.93333 17.0248 4.20833C19.5832 7.61666 19.5832 12.3833 17.0248 15.7917C16.9082 15.9583 16.7165 16.0417 16.5248 16.0417Z" fill="#96A5C0"/>
<path d="M11.6832 3.14999C10.7498 2.63333 9.55817 2.76666 8.3415 3.52499L5.90817 5.04999C5.7415 5.14999 5.54984 5.20833 5.35817 5.20833H4.1665C2.14984 5.20833 1.0415 6.31666 1.0415 8.33333V11.6667C1.0415 13.6833 2.14984 14.7917 4.1665 14.7917H5.35817C5.54984 14.7917 5.7415 14.85 5.90817 14.95L8.3415 16.475C9.07484 16.9333 9.7915 17.1583 10.4582 17.1583C10.8915 17.1583 11.3082 17.0583 11.6832 16.85C12.6082 16.3333 13.1248 15.2583 13.1248 13.825V6.17499C13.1248 4.74166 12.6082 3.66666 11.6832 3.14999Z" fill="#96A5C0"/>
</svg>
