<svg width="20" height="20" viewBox="0 0 20 20" fill="none" xmlns="http://www.w3.org/2000/svg">
<path d="M18.3334 9.14166V10.8583C18.3334 11.3167 17.9667 11.6917 17.5 11.7083H15.8667C14.9667 11.7083 14.1417 11.05 14.0667 10.15C14.0167 9.62499 14.2167 9.13332 14.5667 8.79166C14.875 8.47499 15.3 8.29166 15.7667 8.29166H17.5C17.9667 8.30832 18.3334 8.68332 18.3334 9.14166Z" fill="#7071B3"/>
<path d="M17.0583 12.9583H15.8666C14.2833 12.9583 12.95 11.7667 12.8166 10.25C12.7416 9.38332 13.0583 8.51666 13.6916 7.89999C14.225 7.34999 14.9666 7.04166 15.7666 7.04166H17.0583C17.3 7.04166 17.5 6.84166 17.475 6.59999C17.2916 4.57499 15.95 3.19166 13.9583 2.95832C13.7583 2.92499 13.55 2.91666 13.3333 2.91666H5.83329C5.59996 2.91666 5.37496 2.93332 5.15829 2.96666C3.03329 3.23332 1.66663 4.81666 1.66663 7.08332V12.9167C1.66663 15.2167 3.53329 17.0833 5.83329 17.0833H13.3333C15.6666 17.0833 17.275 15.625 17.475 13.4C17.5 13.1583 17.3 12.9583 17.0583 12.9583ZM10.8333 8.12499H5.83329C5.49163 8.12499 5.20829 7.84166 5.20829 7.49999C5.20829 7.15832 5.49163 6.87499 5.83329 6.87499H10.8333C11.175 6.87499 11.4583 7.15832 11.4583 7.49999C11.4583 7.84166 11.175 8.12499 10.8333 8.12499Z" fill="#7071B3"/>
</svg>
