<svg width="20" height="20" viewBox="0 0 20 20" fill="none" xmlns="http://www.w3.org/2000/svg">
<path d="M10 11.4583C9.65833 11.4583 9.375 11.1749 9.375 10.8333V6.45825C9.375 6.11659 9.65833 5.83325 10 5.83325C10.3417 5.83325 10.625 6.11659 10.625 6.45825V10.8333C10.625 11.1749 10.3417 11.4583 10 11.4583Z" fill="white"/>
<path d="M10 14.375C9.77502 14.375 9.56667 14.2917 9.40834 14.1334C9.33334 14.05 9.27503 13.9584 9.22503 13.8584C9.18336 13.7584 9.16669 13.65 9.16669 13.5417C9.16669 13.325 9.25834 13.1083 9.40834 12.95C9.71667 12.6417 10.2834 12.6417 10.5917 12.95C10.7417 13.1083 10.8334 13.325 10.8334 13.5417C10.8334 13.65 10.8083 13.7584 10.7667 13.8584C10.725 13.9584 10.6667 14.05 10.5917 14.1334C10.4334 14.2917 10.225 14.375 10 14.375Z" fill="white"/>
<path d="M10.0001 18.9584C9.4418 18.9584 8.87512 18.8167 8.37512 18.5251L3.42512 15.6667C2.42512 15.0834 1.80011 14.0084 1.80011 12.8501V7.1501C1.80011 5.99176 2.42512 4.91676 3.42512 4.33342L8.37512 1.4751C9.37512 0.891764 10.6168 0.891764 11.6251 1.4751L16.5751 4.33342C17.5751 4.91676 18.2002 5.99176 18.2002 7.1501V12.8501C18.2002 14.0084 17.5751 15.0834 16.5751 15.6667L11.6251 18.5251C11.1251 18.8167 10.5585 18.9584 10.0001 18.9584ZM10.0001 2.29175C9.65846 2.29175 9.30845 2.38342 9.00012 2.55842L4.05012 5.41675C3.43345 5.77508 3.05011 6.43343 3.05011 7.1501V12.8501C3.05011 13.5584 3.43345 14.2251 4.05012 14.5834L9.00012 17.4417C9.61679 17.8001 10.3835 17.8001 10.9918 17.4417L15.9418 14.5834C16.5585 14.2251 16.9418 13.5667 16.9418 12.8501V7.1501C16.9418 6.44176 16.5585 5.77508 15.9418 5.41675L10.9918 2.55842C10.6918 2.38342 10.3418 2.29175 10.0001 2.29175Z" fill="white"/>
</svg>
