<svg width="40" height="40" viewBox="0 0 40 40" fill="none" xmlns="http://www.w3.org/2000/svg">
<path d="M32.1165 8.88374C29.8999 7.8504 27.4999 7.1004 24.9999 6.66707C24.978 6.66637 24.9561 6.67048 24.936 6.67912C24.9158 6.68776 24.8978 6.70071 24.8832 6.71707C24.5832 7.26707 24.2332 7.98374 23.9999 8.53374C21.3482 8.13374 18.6515 8.13374 15.9999 8.53374C15.7665 7.96707 15.4165 7.26707 15.0999 6.71707C15.0832 6.68374 15.0332 6.66707 14.9832 6.66707C12.4832 7.1004 10.0999 7.8504 7.86654 8.88374C7.84987 8.88374 7.8332 8.9004 7.81654 8.91707C3.2832 15.7004 2.0332 22.3004 2.64987 28.8337C2.64987 28.8671 2.66654 28.9004 2.69987 28.9171C5.69987 31.1171 8.5832 32.4504 11.4332 33.3337C11.4832 33.3504 11.5332 33.3337 11.5499 33.3004C12.2165 32.3837 12.8165 31.4171 13.3332 30.4004C13.3665 30.3337 13.3332 30.2671 13.2665 30.2504C12.3165 29.8837 11.4165 29.4504 10.5332 28.9504C10.4665 28.9171 10.4665 28.8171 10.5165 28.7671C10.6999 28.6337 10.8832 28.4837 11.0665 28.3504C11.0999 28.3171 11.1499 28.3171 11.1832 28.3337C16.9165 30.9504 23.0999 30.9504 28.7665 28.3337C28.7999 28.3171 28.8499 28.3171 28.8832 28.3504C29.0665 28.5004 29.2499 28.6337 29.4332 28.7837C29.4999 28.8337 29.4999 28.9337 29.4165 28.9671C28.5499 29.4837 27.6332 29.9004 26.6832 30.2671C26.6165 30.2837 26.5999 30.3671 26.6165 30.4171C27.1499 31.4337 27.7499 32.4004 28.3999 33.3171C28.4499 33.3337 28.4999 33.3504 28.5499 33.3337C31.4165 32.4504 34.2999 31.1171 37.2999 28.9171C37.3332 28.9004 37.3499 28.8671 37.3499 28.8337C38.0832 21.2837 36.1332 14.7337 32.1832 8.91707C32.1665 8.9004 32.1499 8.88374 32.1165 8.88374ZM14.1999 24.8504C12.4832 24.8504 11.0499 23.2671 11.0499 21.3171C11.0499 19.3671 12.4499 17.7837 14.1999 17.7837C15.9665 17.7837 17.3665 19.3837 17.3499 21.3171C17.3499 23.2671 15.9499 24.8504 14.1999 24.8504ZM25.8165 24.8504C24.0999 24.8504 22.6665 23.2671 22.6665 21.3171C22.6665 19.3671 24.0665 17.7837 25.8165 17.7837C27.5832 17.7837 28.9832 19.3837 28.9665 21.3171C28.9665 23.2671 27.5832 24.8504 25.8165 24.8504Z" fill="current"/>
</svg>
