<svg width="67" height="40" viewBox="0 0 67 40" fill="none" xmlns="http://www.w3.org/2000/svg">
<path d="M60.3557 3.04017C59.8413 3.37175 59.359 3.19275 58.8118 3.10907C58.3619 3.04108 57.6281 3.07061 57.4013 3.54982C57.3441 3.67023 57.3398 3.92291 57.4899 3.96874C57.6446 4.01615 57.9604 3.79063 58.1221 3.75672C58.4476 3.68861 58.9895 3.5317 59.1792 3.87672C59.2778 4.05309 59.3098 4.24458 59.2103 4.39653C59.0613 4.62661 58.8504 4.6734 58.5902 4.73307C58.1053 4.85219 57.6343 4.87603 57.3226 5.31622C57.0216 5.73761 57.0299 6.20169 56.9913 6.68051C56.9453 7.20375 56.9939 7.72131 56.9898 8.24348C56.9899 8.37823 57.0302 8.59908 56.934 8.70931C56.5038 9.20826 56.2552 8.11661 56.2001 7.86725C56.0482 7.20437 55.8198 6.44921 55.0916 6.18675C54.822 6.09114 54.4928 6.08147 54.2185 6.15166C53.9034 6.23147 53.5272 6.46913 53.1917 6.2777C52.3413 5.79411 53.1847 5.03534 53.7498 4.81893C54.0073 4.72264 54.4473 4.8832 54.6521 4.75678C55.1565 4.45039 54.0546 4.2927 53.9085 4.29417C53.5789 4.2976 53.2322 4.39017 52.9324 4.518C52.7121 4.61164 52.5257 4.75961 52.3125 4.85667C51.9888 5.00498 51.6815 4.90988 51.3879 4.75C50.915 4.49153 50.9776 3.84226 51.4028 3.55696C51.5718 3.44386 51.7923 3.35236 51.9839 3.31023C52.1687 3.26682 52.5279 3.30303 52.6665 3.16125C52.8917 2.92134 52.5633 2.78333 52.3569 2.74695C52.0302 2.68914 51.3483 3.04451 51.2174 2.55715C51.0047 1.76953 52.0014 1.51696 52.5799 1.48574C53.8955 1.41588 54.7846 2.22487 55.4629 3.23277C55.5288 3.3286 55.6864 3.74948 55.8282 3.78334L55.8595 3.78581C55.9847 3.76095 56.1564 3.31712 56.2167 3.22022C56.6666 2.50138 57.2973 1.80919 58.107 1.48294C58.8268 1.19657 60.0466 1.13909 60.5508 1.85213C60.8405 2.26683 60.8043 2.7475 60.3557 3.04017ZM61.3426 6.29698L61.223 6.29721C60.9371 6.27978 60.6757 6.12878 60.6352 5.82318C60.5815 5.41714 60.9491 5.09798 61.3583 5.09297C61.7523 5.08993 62.0554 5.45509 61.9197 5.85298C61.8383 6.09171 61.5973 6.27932 61.3426 6.29698ZM49.372 1.85424L49.2505 1.85689C48.9644 1.83732 48.7051 1.68604 48.6649 1.38258C48.6112 0.976534 48.981 0.657097 49.3859 0.652651C49.7773 0.647755 50.081 1.01718 49.9491 1.41023C49.868 1.6511 49.6267 1.83658 49.372 1.85424ZM62.9099 4.24494C62.4017 4.15407 62.1356 3.66676 62.4967 3.24846C62.7387 2.96726 63.298 2.8581 63.5522 3.18827C63.7657 3.46283 63.7365 3.77743 63.5724 3.99423C63.4289 4.18229 63.1845 4.29426 62.9099 4.24494ZM49.2167 3.94569C49.4281 4.22053 49.4013 4.53698 49.2347 4.75193C49.091 4.93785 48.8469 5.05196 48.5745 5.00236C48.064 4.91176 47.7979 4.42446 48.1591 4.00616C48.4007 3.72283 48.9601 3.61366 49.2167 3.94569ZM50.0291 6.83814C49.6049 6.7625 49.3828 6.35646 49.684 6.00458C49.8859 5.77203 50.3524 5.68137 50.566 5.95592C50.7447 6.18498 50.7198 6.44902 50.582 6.62983C50.461 6.78673 50.2585 6.88026 50.0291 6.83814ZM62.3482 1.25492C61.9217 1.17956 61.7018 0.773242 62.0012 0.423775C62.2006 0.189371 62.6693 0.0984299 62.8829 0.372984C63.0641 0.603898 63.0367 0.866081 62.8989 1.04689C62.7801 1.20351 62.5773 1.2949 62.3482 1.25492Z" fill="current"/>
<path fill-rule="evenodd" clip-rule="evenodd" d="M61.9687 9.9913C60.0083 8.77072 57.4568 8.59151 55.2011 9.07399C51.2065 9.9266 47.4372 12.5998 45.3475 16.0452C44.8967 16.7902 45.095 17.4688 45.6362 18.0597C46.8635 19.3989 51.0092 22.0501 59.1637 21.1256C62.5598 20.7393 65.8123 19.2174 65.9761 18.0443C66.1645 16.705 65.7332 12.3396 61.9687 9.9913ZM63.3979 14.6321C63.0762 14.8628 62.5765 14.8034 62.196 14.4895C61.5746 13.9785 61.5007 13.0687 61.9691 12.6735C62.4529 12.2611 63.2614 12.411 63.6738 13.1337C63.9845 13.6739 63.8554 14.1883 63.5393 14.5117C63.4961 14.5561 63.4487 14.5964 63.3979 14.6321ZM54.6891 15.8716C54.6156 15.8681 54.5504 15.8613 54.4825 15.8505C54.0021 15.7691 53.5754 15.4242 53.5416 14.8004C53.4872 13.9706 54.1405 13.382 54.8303 13.4386C55.4934 13.4943 55.968 14.285 55.705 15.0602C55.5441 15.5352 55.1194 15.8748 54.6891 15.8716Z" fill="current"/>
<path d="M1.3082 11.4601C1.47301 11.2787 2.1261 11.3555 2.36861 11.3201C3.77893 11.1186 5.16354 10.4948 6.60498 10.3046C7.38942 10.1987 8.12753 10.2548 8.89091 10.4555C9.51636 10.6144 10.2059 10.9413 10.6461 10.2503C11.168 9.42629 10.8876 8.27917 11.2541 7.37992C11.6903 6.31769 12.3666 5.24895 13.237 4.4957C13.5388 4.23393 13.8892 4.01687 14.2228 3.80861C14.6686 3.53538 15.2213 3.29271 15.3009 3.99874C15.3589 4.53575 15.4624 4.88744 15.7004 5.38539C16.1582 6.32454 16.7937 7.33352 16.8372 8.4016C16.8844 9.54416 16.4453 10.7719 15.7208 11.6593C15.2777 12.2003 14.0668 13.074 14.1088 13.8599C14.1329 14.2167 14.2931 14.5876 14.4562 14.8918C14.8184 15.5715 15.2582 16.1994 15.7416 16.812C16.0555 17.2115 16.6276 17.779 16.5447 18.3408C16.1663 21.0235 8.63954 21.6895 9.00326 18.4922C9.06463 17.9592 9.24361 17.3834 9.28561 16.8881C9.34143 16.3516 9.53601 15.5648 9.2466 15.0699C8.80606 14.3009 7.9384 14.7897 7.24754 14.9105C5.56853 15.1961 3.62376 14.967 2.27736 13.8576C1.87022 13.5232 0.77884 12.0363 1.3082 11.4601Z" fill="current"/>
<path d="M22.0444 19.9998V8.48865H26.8044C27.7585 8.48865 28.5933 8.65457 29.3089 8.98643C30.0348 9.30791 30.6363 9.74346 31.1133 10.2931C31.6007 10.8427 31.9637 11.4598 32.2022 12.1442C32.4407 12.8286 32.56 13.5286 32.56 14.2442C32.56 14.9598 32.4407 15.6598 32.2022 16.3442C31.9637 17.0286 31.6007 17.6457 31.1133 18.1953C30.6363 18.7449 30.0348 19.1857 29.3089 19.5175C28.5933 19.839 27.7585 19.9998 26.8044 19.9998H22.0444ZM26.6644 11.102H25.0311V17.3398H26.6644C27.3385 17.3398 27.8881 17.1894 28.3133 16.8886C28.7385 16.5775 29.0496 16.1835 29.2467 15.7064C29.4541 15.2294 29.5578 14.7316 29.5578 14.2131C29.5578 13.6946 29.4541 13.202 29.2467 12.7353C29.0496 12.2583 28.7385 11.8694 28.3133 11.5686C27.8881 11.2575 27.3385 11.102 26.6644 11.102Z" fill="white"/>
<path d="M33.9542 19.9998V8.48865H42.2919V11.0709H36.9408V12.9375H41.5919V15.3953H36.9408V17.4175H42.3697V19.9998H33.9542Z" fill="current2"/>
<path d="M14.8483 39.9999C13.3035 39.9999 11.9519 39.7504 10.7933 39.2514C9.63477 38.7368 8.6693 38.0584 7.89693 37.2163C7.12455 36.3586 6.53722 35.3996 6.13495 34.3391C5.74876 33.2787 5.55566 32.1949 5.55566 31.0877C5.55566 29.9805 5.74876 28.9044 6.13495 27.8596C6.53722 26.7992 7.12455 25.8479 7.89693 25.0058C8.6693 24.1637 9.63477 23.4931 10.7933 22.9941C11.9519 22.4795 13.3035 22.2222 14.8483 22.2222C16.393 22.2222 17.7447 22.4795 18.9033 22.9941C20.0618 23.4931 21.0273 24.1637 21.7997 25.0058C22.5881 25.8479 23.1755 26.7992 23.5617 27.8596C23.9478 28.9044 24.1409 29.9805 24.1409 31.0877C24.1409 32.1949 23.9478 33.2787 23.5617 34.3391C23.1755 35.3996 22.5881 36.3586 21.7997 37.2163C21.0273 38.0584 20.0618 38.7368 18.9033 39.2514C17.7447 39.7504 16.393 39.9999 14.8483 39.9999ZM14.8483 35.9999C15.846 35.9999 16.6746 35.766 17.3344 35.2982C17.9941 34.8148 18.4849 34.1988 18.8067 33.4502C19.1446 32.6861 19.3136 31.8986 19.3136 31.0877C19.3136 30.2767 19.1446 29.497 18.8067 28.7485C18.4849 27.9999 17.9941 27.3918 17.3344 26.9239C16.6746 26.4405 15.846 26.1988 14.8483 26.1988C13.8667 26.1988 13.0461 26.4405 12.3864 26.9239C11.7266 27.3918 11.2278 27.9999 10.8899 28.7485C10.5681 29.497 10.4071 30.2767 10.4071 31.0877C10.4071 31.8986 10.5681 32.6861 10.8899 33.4502C11.2278 34.1988 11.7266 34.8148 12.3864 35.2982C13.0461 35.766 13.8667 35.9999 14.8483 35.9999Z" fill="current"/>
<path d="M28.5373 39.766V22.4561H35.9232C37.4036 22.4561 38.6989 22.7056 39.8092 23.2046C40.9356 23.6881 41.8689 24.343 42.6091 25.1695C43.3653 25.996 43.9285 26.9239 44.2986 27.9532C44.6687 28.9824 44.8538 30.035 44.8538 31.1111C44.8538 32.1871 44.6687 33.2397 44.2986 34.269C43.9285 35.2982 43.3653 36.2261 42.6091 37.0526C41.8689 37.8791 40.9356 38.5419 39.8092 39.0409C38.6989 39.5243 37.4036 39.766 35.9232 39.766H28.5373ZM35.7059 26.3859H33.1716V35.766H35.7059C36.7519 35.766 37.6047 35.5399 38.2644 35.0877C38.9242 34.6198 39.4069 34.0272 39.7126 33.3099C40.0345 32.5925 40.1954 31.844 40.1954 31.0643C40.1954 30.2845 40.0345 29.5438 39.7126 28.8421C39.4069 28.1247 38.9242 27.5399 38.2644 27.0877C37.6047 26.6198 36.7519 26.3859 35.7059 26.3859Z" fill="current"/>
<path d="M49.2392 39.766V22.4561H56.6251C58.1055 22.4561 59.4008 22.7056 60.5111 23.2046C61.6375 23.6881 62.5707 24.343 63.3109 25.1695C64.0672 25.996 64.6304 26.9239 65.0005 27.9532C65.3706 28.9824 65.5557 30.035 65.5557 31.1111C65.5557 32.1871 65.3706 33.2397 65.0005 34.269C64.6304 35.2982 64.0672 36.2261 63.3109 37.0526C62.5707 37.8791 61.6375 38.5419 60.5111 39.0409C59.4008 39.5243 58.1055 39.766 56.6251 39.766H49.2392ZM56.4078 26.3859H53.8735V35.766H56.4078C57.4538 35.766 58.3066 35.5399 58.9663 35.0877C59.6261 34.6198 60.1088 34.0272 60.4145 33.3099C60.7364 32.5925 60.8973 31.844 60.8973 31.0643C60.8973 30.2845 60.7364 29.5438 60.4145 28.8421C60.1088 28.1247 59.6261 27.5399 58.9663 27.0877C58.3066 26.6198 57.4538 26.3859 56.4078 26.3859Z" fill="current"/>
</svg>
