<svg width="21" height="20" viewBox="0 0 21 20" fill="none" xmlns="http://www.w3.org/2000/svg">
<path d="M18.375 15.3917L17 15.7167C16.6917 15.7917 16.45 16.025 16.3834 16.3333L16.0917 17.5583C15.9334 18.225 15.0834 18.4333 14.6417 17.9083L12.15 15.0417C11.95 14.8083 12.0584 14.4417 12.3584 14.3667C13.8334 14.0083 15.1584 13.1833 16.1334 12.0083C16.2917 11.8167 16.575 11.7917 16.75 11.9667L18.6 13.8167C19.2334 14.45 19.0084 15.2417 18.375 15.3917Z" fill="current"/>
<path d="M2.91664 15.3917L4.29164 15.7167C4.59997 15.7917 4.84164 16.025 4.90831 16.3333L5.19997 17.5583C5.35831 18.225 6.20831 18.4333 6.64997 17.9083L9.14164 15.0417C9.34164 14.8083 9.23331 14.4417 8.93331 14.3667C7.45831 14.0083 6.13331 13.1833 5.15831 12.0083C4.99997 11.8167 4.71664 11.7917 4.54164 11.9667L2.69164 13.8167C2.05831 14.45 2.28331 15.2417 2.91664 15.3917Z" fill="current"/>
<path d="M10.6663 1.66663C7.44134 1.66663 4.83301 4.27496 4.83301 7.49996C4.83301 8.70829 5.19134 9.81663 5.80801 10.7416C6.70801 12.075 8.13301 13.0166 9.79134 13.2583C10.0747 13.3083 10.3663 13.3333 10.6663 13.3333C10.9663 13.3333 11.258 13.3083 11.5413 13.2583C13.1997 13.0166 14.6247 12.075 15.5247 10.7416C16.1413 9.81663 16.4997 8.70829 16.4997 7.49996C16.4997 4.27496 13.8913 1.66663 10.6663 1.66663ZM13.2163 7.31663L12.5247 8.00829C12.408 8.12496 12.3413 8.34996 12.383 8.51663L12.583 9.37496C12.7413 10.05 12.383 10.3166 11.783 9.95829L10.9497 9.46663C10.7997 9.37496 10.5497 9.37496 10.3997 9.46663L9.56634 9.95829C8.96634 10.3083 8.60801 10.05 8.76634 9.37496L8.96634 8.51663C8.99967 8.35829 8.94134 8.12496 8.82467 8.00829L8.11634 7.31663C7.70801 6.90829 7.84134 6.49996 8.40801 6.40829L9.29967 6.25829C9.44967 6.23329 9.62467 6.09996 9.69134 5.96663L10.183 4.98329C10.4497 4.44996 10.883 4.44996 11.1497 4.98329L11.6413 5.96663C11.708 6.09996 11.883 6.23329 12.0413 6.25829L12.933 6.40829C13.4913 6.49996 13.6247 6.90829 13.2163 7.31663Z" fill="current"/>
</svg>
