<svg width="21" height="20" viewBox="0 0 21 20" fill="none" xmlns="http://www.w3.org/2000/svg">
<path d="M15.2749 6.47496C15.2165 6.46663 15.1582 6.46663 15.0999 6.47496C13.8082 6.43329 12.7832 5.37496 12.7832 4.07496C12.7832 2.74996 13.8582 1.66663 15.1915 1.66663C16.5165 1.66663 17.5999 2.74163 17.5999 4.07496C17.5915 5.37496 16.5665 6.43329 15.2749 6.47496Z" fill="current"/>
<path d="M17.9917 12.25C17.0583 12.875 15.75 13.1083 14.5417 12.95C14.8583 12.2666 15.025 11.5083 15.0333 10.7083C15.0333 9.87497 14.85 9.0833 14.5 8.39164C15.7333 8.22497 17.0417 8.4583 17.9833 9.0833C19.3 9.94997 19.3 11.375 17.9917 12.25Z" fill="current"/>
<path d="M6.03297 6.47496C6.09131 6.46663 6.14964 6.46663 6.20798 6.47496C7.49964 6.43329 8.52464 5.37496 8.52464 4.07496C8.52464 2.74163 7.44964 1.66663 6.11631 1.66663C4.79131 1.66663 3.71631 2.74163 3.71631 4.07496C3.71631 5.37496 4.74131 6.43329 6.03297 6.47496Z" fill="current"/>
<path d="M6.12494 10.7083C6.12494 11.5167 6.29993 12.2833 6.6166 12.975C5.4416 13.1 4.2166 12.85 3.3166 12.2583C1.99993 11.3833 1.99993 9.95834 3.3166 9.08334C4.20827 8.48334 5.4666 8.24167 6.64993 8.37501C6.30827 9.07501 6.12494 9.86667 6.12494 10.7083Z" fill="current"/>
<path d="M10.7665 13.225C10.6998 13.2167 10.6248 13.2167 10.5498 13.225C9.0165 13.175 7.7915 11.9167 7.7915 10.3667C7.79984 8.78333 9.07484 7.5 10.6665 7.5C12.2498 7.5 13.5332 8.78333 13.5332 10.3667C13.5248 11.9167 12.3082 13.175 10.7665 13.225Z" fill="current"/>
<path d="M8.05801 14.95C6.79967 15.7916 6.79967 17.175 8.05801 18.0083C9.49134 18.9666 11.8413 18.9666 13.2747 18.0083C14.533 17.1666 14.533 15.7833 13.2747 14.95C11.8497 13.9916 9.49967 13.9916 8.05801 14.95Z" fill="current"/>
</svg>
