<svg width="21" height="20" viewBox="0 0 21 20" fill="none" xmlns="http://www.w3.org/2000/svg">
<path d="M17.2497 11.25H4.08301C2.83301 11.25 2.33301 11.7833 2.33301 13.1083V16.475C2.33301 17.8 2.83301 18.3333 4.08301 18.3333H17.2497C18.4997 18.3333 18.9997 17.8 18.9997 16.475V13.1083C18.9997 11.7833 18.4997 11.25 17.2497 11.25Z" fill="current"/>
<path d="M17.2497 1.66663H4.08301C2.83301 1.66663 2.33301 2.19996 2.33301 3.52496V6.89163C2.33301 8.21663 2.83301 8.74996 4.08301 8.74996H17.2497C18.4997 8.74996 18.9997 8.21663 18.9997 6.89163V3.52496C18.9997 2.19996 18.4997 1.66663 17.2497 1.66663Z" fill="current"/>
</svg>
