<svg width="67" height="40" viewBox="0 0 67 40" fill="none" xmlns="http://www.w3.org/2000/svg">
<path d="M60.3557 3.03992C59.8413 3.37151 59.359 3.19251 58.8118 3.10883C58.3619 3.04084 57.6281 3.07037 57.4013 3.54958C57.3441 3.66999 57.3398 3.92266 57.4899 3.9685C57.6446 4.01591 57.9604 3.79039 58.1221 3.75647C58.4476 3.68837 58.9895 3.53146 59.1792 3.87648C59.2778 4.05284 59.3098 4.24433 59.2103 4.39629C59.0613 4.62636 58.8504 4.67315 58.5902 4.73283C58.1053 4.85194 57.6343 4.87579 57.3226 5.31597C57.0216 5.73737 57.0299 6.20145 56.9913 6.68026C56.9453 7.2035 56.9939 7.72107 56.9898 8.24324C56.9899 8.37799 57.0302 8.59883 56.934 8.70906C56.5038 9.20801 56.2552 8.11637 56.2001 7.86701C56.0482 7.20413 55.8198 6.44896 55.0916 6.1865C54.822 6.0909 54.4928 6.08123 54.2185 6.15142C53.9034 6.23122 53.5272 6.46889 53.1917 6.27746C52.3413 5.79387 53.1847 5.03509 53.7498 4.81868C54.0073 4.7224 54.4473 4.88296 54.6521 4.75653C55.1565 4.45014 54.0546 4.29246 53.9085 4.29392C53.5789 4.29735 53.2322 4.38993 52.9324 4.51776C52.7121 4.6114 52.5257 4.75936 52.3125 4.85643C51.9888 5.00473 51.6815 4.90964 51.3879 4.74975C50.915 4.49129 50.9776 3.84201 51.4028 3.55671C51.5718 3.44361 51.7923 3.35211 51.9839 3.30999C52.1687 3.26657 52.5279 3.30279 52.6665 3.16101C52.8917 2.92109 52.5633 2.78309 52.3569 2.7467C52.0302 2.68889 51.3483 3.04427 51.2174 2.55691C51.0047 1.76929 52.0014 1.51671 52.5799 1.4855C53.8955 1.41564 54.7846 2.22462 55.4629 3.23252C55.5288 3.32835 55.6864 3.74924 55.8282 3.78309L55.8595 3.78557C55.9847 3.76071 56.1564 3.31687 56.2167 3.21997C56.6666 2.50113 57.2973 1.80894 58.107 1.4827C58.8268 1.19633 60.0466 1.13884 60.5508 1.85188C60.8405 2.26658 60.8043 2.74725 60.3557 3.03992ZM61.3426 6.29674L61.223 6.29696C60.9371 6.27953 60.6757 6.12853 60.6352 5.82293C60.5815 5.41689 60.9491 5.09774 61.3583 5.09273C61.7523 5.08969 62.0554 5.45484 61.9197 5.85273C61.8383 6.09146 61.5973 6.27908 61.3426 6.29674ZM49.372 1.854L49.2505 1.85664C48.9644 1.83707 48.7051 1.68579 48.6649 1.38233C48.6112 0.97629 48.981 0.656853 49.3859 0.652407C49.7773 0.647511 50.081 1.01694 49.9491 1.40999C49.868 1.65086 49.6267 1.83634 49.372 1.854ZM62.9099 4.2447C62.4017 4.15382 62.1356 3.66652 62.4967 3.24821C62.7387 2.96702 63.298 2.85786 63.5522 3.18803C63.7657 3.46258 63.7365 3.77718 63.5724 3.99398C63.4289 4.18204 63.1845 4.29402 62.9099 4.2447ZM49.2167 3.94545C49.4281 4.22028 49.4013 4.53674 49.2347 4.75168C49.091 4.93761 48.8469 5.05172 48.5745 5.00212C48.064 4.91152 47.7979 4.42422 48.1591 4.00591C48.4007 3.72258 48.9601 3.61342 49.2167 3.94545ZM50.0291 6.8379C49.6049 6.76226 49.3828 6.35622 49.684 6.00433C49.8859 5.77179 50.3524 5.68113 50.566 5.95568C50.7447 6.18474 50.7198 6.44878 50.582 6.62958C50.461 6.78649 50.2585 6.88002 50.0291 6.8379ZM62.3482 1.25467C61.9217 1.17932 61.7018 0.772998 62.0012 0.42353C62.2006 0.189127 62.6693 0.0981858 62.8829 0.37274C63.0641 0.603653 63.0367 0.865837 62.8989 1.04664C62.7801 1.20327 62.5773 1.29466 62.3482 1.25467Z" fill="#FC753F"/>
<path fill-rule="evenodd" clip-rule="evenodd" d="M61.9687 9.99106C60.0083 8.77047 57.4568 8.59126 55.2011 9.07375C51.2065 9.92635 47.4372 12.5996 45.3475 16.0449C44.8967 16.79 45.095 17.4686 45.6362 18.0595C46.8635 19.3986 51.0092 22.0498 59.1637 21.1253C62.5598 20.7391 65.8123 19.2172 65.9761 18.044C66.1645 16.7047 65.7332 12.3394 61.9687 9.99106ZM63.3979 14.6319C63.0762 14.8625 62.5765 14.8031 62.196 14.4893C61.5746 13.9783 61.5007 13.0684 61.9691 12.6732C62.4529 12.2608 63.2614 12.4107 63.6738 13.1335C63.9845 13.6737 63.8554 14.1881 63.5393 14.5115C63.4961 14.5558 63.4487 14.5961 63.3979 14.6319ZM54.6891 15.8714C54.6156 15.8678 54.5504 15.861 54.4825 15.8502C54.0021 15.7688 53.5754 15.424 53.5416 14.8002C53.4872 13.9704 54.1405 13.3818 54.8303 13.4383C55.4934 13.494 55.968 14.2848 55.705 15.0599C55.5441 15.535 55.1194 15.8745 54.6891 15.8714Z" fill="#FC753F"/>
<path d="M1.3082 11.4599C1.47301 11.2785 2.1261 11.3553 2.36861 11.3199C3.77893 11.1184 5.16354 10.4945 6.60498 10.3043C7.38942 10.1984 8.12753 10.2546 8.89091 10.4553C9.51636 10.6141 10.2059 10.9411 10.6461 10.25C11.168 9.42605 10.8876 8.27893 11.2541 7.37968C11.6903 6.31745 12.3666 5.24871 13.237 4.49545C13.5388 4.23369 13.8892 4.01663 14.2228 3.80837C14.6686 3.53514 15.2213 3.29247 15.3009 3.9985C15.3589 4.53551 15.4624 4.88719 15.7004 5.38515C16.1582 6.32429 16.7937 7.33327 16.8372 8.40136C16.8844 9.54392 16.4453 10.7717 15.7208 11.6591C15.2777 12.2001 14.0668 13.0738 14.1088 13.8596C14.1329 14.2165 14.2931 14.5873 14.4562 14.8915C14.8184 15.5713 15.2582 16.1992 15.7416 16.8118C16.0555 17.2112 16.6276 17.7787 16.5447 18.3406C16.1663 21.0232 8.63954 21.6892 9.00326 18.492C9.06463 17.959 9.24361 17.3832 9.28561 16.8878C9.34143 16.3514 9.53601 15.5646 9.2466 15.0697C8.80606 14.3006 7.9384 14.7895 7.24754 14.9103C5.56853 15.1959 3.62376 14.9668 2.27736 13.8574C1.87022 13.523 0.77884 12.036 1.3082 11.4599Z" fill="#FC753F"/>
<path d="M22.0449 19.9994V8.48828H26.8049C27.759 8.48828 28.5938 8.65421 29.3094 8.98606C30.0353 9.30754 30.6368 9.7431 31.1138 10.2927C31.6012 10.8424 31.9642 11.4594 32.2027 12.1438C32.4412 12.8283 32.5605 13.5283 32.5605 14.2438C32.5605 14.9594 32.4412 15.6594 32.2027 16.3438C31.9642 17.0283 31.6012 17.6453 31.1138 18.1949C30.6368 18.7446 30.0353 19.1853 29.3094 19.5172C28.5938 19.8387 27.759 19.9994 26.8049 19.9994H22.0449ZM26.6649 11.1016H25.0316V17.3394H26.6649C27.339 17.3394 27.8886 17.189 28.3138 16.8883C28.739 16.5772 29.0501 16.1831 29.2471 15.7061C29.4546 15.229 29.5583 14.7312 29.5583 14.2127C29.5583 13.6942 29.4546 13.2016 29.2471 12.7349C29.0501 12.2579 28.739 11.869 28.3138 11.5683C27.8886 11.2572 27.339 11.1016 26.6649 11.1016Z" fill="#181536"/>
<path d="M33.9546 19.9994V8.48828H42.2924V11.0705H36.9413V12.9372H41.5924V15.3949H36.9413V17.4172H42.3702V19.9994H33.9546Z" fill="#181536"/>
<path d="M14.8483 40.0004C13.3035 40.0004 11.9519 39.7509 10.7933 39.2519C9.63477 38.7373 8.6693 38.0589 7.89693 37.2168C7.12455 36.3591 6.53722 35.4 6.13495 34.3396C5.74876 33.2792 5.55566 32.1954 5.55566 31.0882C5.55566 29.9809 5.74876 28.9049 6.13495 27.8601C6.53722 26.7997 7.12455 25.8484 7.89693 25.0063C8.6693 24.1642 9.63477 23.4936 10.7933 22.9946C11.9519 22.48 13.3035 22.2227 14.8483 22.2227C16.393 22.2227 17.7447 22.48 18.9033 22.9946C20.0618 23.4936 21.0273 24.1642 21.7997 25.0063C22.5881 25.8484 23.1755 26.7997 23.5617 27.8601C23.9478 28.9049 24.1409 29.9809 24.1409 31.0882C24.1409 32.1954 23.9478 33.2792 23.5617 34.3396C23.1755 35.4 22.5881 36.3591 21.7997 37.2168C21.0273 38.0589 20.0618 38.7373 18.9033 39.2519C17.7447 39.7509 16.393 40.0004 14.8483 40.0004ZM14.8483 36.0004C15.846 36.0004 16.6746 35.7665 17.3344 35.2987C17.9941 34.8152 18.4849 34.1993 18.8067 33.4507C19.1446 32.6866 19.3136 31.8991 19.3136 31.0882C19.3136 30.2772 19.1446 29.4975 18.8067 28.749C18.4849 28.0004 17.9941 27.3922 17.3344 26.9244C16.6746 26.441 15.846 26.1993 14.8483 26.1993C13.8667 26.1993 13.0461 26.441 12.3864 26.9244C11.7266 27.3922 11.2278 28.0004 10.8899 28.749C10.5681 29.4975 10.4071 30.2772 10.4071 31.0882C10.4071 31.8991 10.5681 32.6866 10.8899 33.4507C11.2278 34.1993 11.7266 34.8152 12.3864 35.2987C13.0461 35.7665 13.8667 36.0004 14.8483 36.0004Z" fill="#FC753F"/>
<path d="M28.5373 39.7665V22.4566H35.9232C37.4036 22.4566 38.6989 22.7061 39.8092 23.2051C40.9356 23.6885 41.8689 24.3435 42.6091 25.17C43.3653 25.9965 43.9285 26.9244 44.2986 27.9537C44.6687 28.9829 44.8538 30.0355 44.8538 31.1115C44.8538 32.1876 44.6687 33.2402 44.2986 34.2694C43.9285 35.2987 43.3653 36.2266 42.6091 37.0531C41.8689 37.8796 40.9356 38.5423 39.8092 39.0414C38.6989 39.5248 37.4036 39.7665 35.9232 39.7665H28.5373ZM35.7059 26.3864H33.1716V35.7665H35.7059C36.7519 35.7665 37.6047 35.5404 38.2644 35.0882C38.9242 34.6203 39.4069 34.0277 39.7126 33.3104C40.0345 32.593 40.1954 31.8445 40.1954 31.0648C40.1954 30.285 40.0345 29.5443 39.7126 28.8425C39.4069 28.1252 38.9242 27.5404 38.2644 27.0882C37.6047 26.6203 36.7519 26.3864 35.7059 26.3864Z" fill="#FC753F"/>
<path d="M49.2392 39.7665V22.4566H56.6251C58.1055 22.4566 59.4008 22.7061 60.5111 23.2051C61.6375 23.6885 62.5707 24.3435 63.3109 25.17C64.0672 25.9965 64.6304 26.9244 65.0005 27.9537C65.3706 28.9829 65.5557 30.0355 65.5557 31.1115C65.5557 32.1876 65.3706 33.2402 65.0005 34.2694C64.6304 35.2987 64.0672 36.2266 63.3109 37.0531C62.5707 37.8796 61.6375 38.5423 60.5111 39.0414C59.4008 39.5248 58.1055 39.7665 56.6251 39.7665H49.2392ZM56.4078 26.3864H53.8735V35.7665H56.4078C57.4538 35.7665 58.3066 35.5404 58.9663 35.0882C59.6261 34.6203 60.1088 34.0277 60.4145 33.3104C60.7364 32.593 60.8973 31.8445 60.8973 31.0648C60.8973 30.285 60.7364 29.5443 60.4145 28.8425C60.1088 28.1252 59.6261 27.5404 58.9663 27.0882C58.3066 26.6203 57.4538 26.3864 56.4078 26.3864Z" fill="#FC753F"/>
</svg>
