<svg width="107" height="40" viewBox="0 0 107 40" fill="none" xmlns="http://www.w3.org/2000/svg">
<path d="M1.66017 12.8735C1.81964 12.698 2.45154 12.7723 2.68618 12.738C4.05075 12.5431 5.39044 11.9395 6.78513 11.7554C7.54412 11.653 8.25829 11.7073 8.9969 11.9015C9.60206 12.0552 10.2692 12.3715 10.6951 11.7029C11.2001 10.9056 10.9288 9.79574 11.2834 8.92566C11.7055 7.89788 12.3598 6.86381 13.202 6.13499C13.494 5.88172 13.8331 5.6717 14.1558 5.47019C14.5872 5.20583 15.1219 4.97103 15.199 5.65416C15.2551 6.17375 15.3552 6.51402 15.5855 6.99583C16.0284 7.90451 16.6433 8.88075 16.6854 9.91419C16.7311 11.0197 16.3062 12.2076 15.6052 13.0662C15.1765 13.5897 14.0049 14.4351 14.0455 15.1954C14.0689 15.5407 14.2238 15.8995 14.3816 16.1938C14.7321 16.8515 15.1576 17.4591 15.6254 18.0518C15.9291 18.4383 16.4826 18.9874 16.4024 19.531C16.0362 22.1266 8.75369 22.771 9.10561 19.6775C9.16499 19.1618 9.33816 18.6047 9.3788 18.1254C9.43281 17.6063 9.62108 16.8451 9.34105 16.3662C8.91481 15.6221 8.07529 16.0951 7.40684 16.212C5.7823 16.4883 3.90061 16.2666 2.59789 15.1932C2.20396 14.8697 1.14798 13.4309 1.66017 12.8735Z" fill="#FC753F"/>
<path d="M101.05 2.94169C100.553 3.26252 100.086 3.08932 99.5567 3.00836C99.1214 2.94257 98.4114 2.97115 98.1919 3.43481C98.1366 3.55131 98.1325 3.79579 98.2777 3.84014C98.4274 3.88601 98.7329 3.66781 98.8893 3.63499C99.2043 3.5691 99.7286 3.41728 99.9121 3.75111C100.008 3.92175 100.039 4.10703 99.9422 4.25405C99.7981 4.47666 99.594 4.52194 99.3422 4.57967C98.8731 4.69493 98.4174 4.718 98.1158 5.1439C97.8246 5.55163 97.8325 6.00065 97.7952 6.46394C97.7507 6.97021 97.7977 7.47098 97.7938 7.97621C97.7939 8.10659 97.8329 8.32027 97.7398 8.42693C97.3235 8.90969 97.083 7.85346 97.0297 7.61219C96.8827 6.97081 96.6617 6.24014 95.9572 5.9862C95.6963 5.89369 95.3778 5.88434 95.1124 5.95225C94.8075 6.02946 94.4435 6.25942 94.1189 6.0742C93.2961 5.6063 94.1121 4.87214 94.6589 4.66275C94.908 4.56959 95.3337 4.72494 95.5319 4.60261C96.02 4.30616 94.9538 4.15359 94.8125 4.15501C94.4935 4.15833 94.1581 4.2479 93.8679 4.37158C93.6549 4.46218 93.4744 4.60535 93.2682 4.69927C92.955 4.84276 92.6577 4.75075 92.3736 4.59605C91.9161 4.34597 91.9766 3.71776 92.3881 3.44171C92.5515 3.33228 92.7649 3.24375 92.9502 3.20299C93.129 3.16098 93.4766 3.19602 93.6107 3.05884C93.8286 2.82671 93.5109 2.69318 93.3111 2.65798C92.9951 2.60204 92.3353 2.94589 92.2086 2.47434C92.0028 1.71227 92.9672 1.46789 93.527 1.43769C94.7999 1.37009 95.6601 2.15283 96.3164 3.12804C96.3801 3.22076 96.5326 3.62799 96.6698 3.66075L96.7002 3.66314C96.8213 3.63909 96.9874 3.20965 97.0458 3.1159C97.4811 2.42037 98.0913 1.75064 98.8748 1.43498C99.5712 1.15789 100.751 1.10227 101.239 1.79219C101.52 2.19343 101.485 2.65851 101.05 2.94169ZM102.005 6.09285L101.89 6.09307C101.613 6.07621 101.36 5.93011 101.321 5.63442C101.269 5.24155 101.625 4.93275 102.021 4.9279C102.402 4.92496 102.695 5.27827 102.564 5.66325C102.485 5.89424 102.252 6.07577 102.005 6.09285ZM90.4231 1.79423L90.3056 1.79679C90.0287 1.77786 89.7778 1.63148 89.739 1.33787C89.687 0.944996 90.0448 0.635921 90.4365 0.631619C90.8153 0.626882 91.1091 0.984326 90.9815 1.36463C90.903 1.59768 90.6695 1.77714 90.4231 1.79423ZM103.522 4.10738C103.03 4.01945 102.773 3.54795 103.122 3.14322C103.356 2.87115 103.897 2.76553 104.143 3.08499C104.35 3.35064 104.322 3.65503 104.163 3.8648C104.024 4.04676 103.788 4.1551 103.522 4.10738ZM90.2728 3.81784C90.4774 4.08376 90.4514 4.38995 90.2903 4.59792C90.1512 4.77781 89.915 4.88822 89.6514 4.84023C89.1575 4.75257 88.9001 4.28108 89.2495 3.87634C89.4833 3.6022 90.0245 3.49658 90.2728 3.81784ZM91.0589 6.61646C90.6484 6.54327 90.4335 6.15041 90.725 5.80993C90.9203 5.58493 91.3717 5.49721 91.5783 5.76286C91.7513 5.98449 91.7272 6.23996 91.5939 6.4149C91.4768 6.56672 91.2808 6.65721 91.0589 6.61646ZM102.978 1.21435C102.566 1.14144 102.353 0.748298 102.643 0.410167C102.836 0.183367 103.289 0.0953757 103.496 0.361024C103.671 0.584447 103.645 0.838125 103.511 1.01307C103.396 1.16461 103.2 1.25304 102.978 1.21435Z" fill="#FC753F"/>
<path fill-rule="evenodd" clip-rule="evenodd" d="M102.611 9.66733C100.714 8.48634 98.2456 8.31295 96.0631 8.77978C92.1981 9.60473 88.5511 12.1912 86.5292 15.5248C86.0929 16.2457 86.2848 16.9023 86.8085 17.474C87.9959 18.7697 92.0072 21.3349 99.8972 20.4404C103.183 20.0667 106.33 18.5942 106.489 17.4591C106.671 16.1632 106.254 11.9395 102.611 9.66733ZM103.994 14.1576C103.683 14.3808 103.199 14.3233 102.831 14.0196C102.23 13.5252 102.158 12.6449 102.612 12.2625C103.08 11.8635 103.862 12.0085 104.261 12.7078C104.562 13.2305 104.437 13.7282 104.131 14.0411C104.089 14.084 104.043 14.123 103.994 14.1576ZM95.5678 15.3569C95.4966 15.3535 95.4335 15.3469 95.3678 15.3365C94.903 15.2577 94.4901 14.924 94.4575 14.3204C94.4048 13.5176 95.0369 12.9481 95.7043 13.0028C96.3459 13.0567 96.8051 13.8218 96.5507 14.5718C96.395 15.0314 95.984 15.36 95.5678 15.3569Z" fill="#FC753F"/>
<path d="M19.7988 21.1146V7.06245H23.4238V17.9624H30.0131V21.1146H19.7988Z" fill="#FC753F"/>
<path d="M38.0985 21.3045C37.3811 21.3045 36.6699 21.2032 35.9651 21.0007C35.2602 20.7981 34.6246 20.469 34.0582 20.0132C33.4918 19.5575 33.0386 18.9561 32.6988 18.2092C32.3589 17.4496 32.189 16.5192 32.189 15.4178V7.06245H35.814V15.4178C35.814 16.1014 35.9965 16.6837 36.3616 17.1648C36.7266 17.6459 37.3056 17.8864 38.0985 17.8864C38.8915 17.8864 39.4705 17.6459 39.8355 17.1648C40.2005 16.6837 40.3831 16.1014 40.3831 15.4178V7.06245H44.0081V15.4178C44.0081 16.5192 43.8381 17.4496 43.4983 18.2092C43.1585 18.9561 42.7053 19.5575 42.1389 20.0132C41.5725 20.469 40.9369 20.7981 40.232 21.0007C39.5271 21.2032 38.816 21.3045 38.0985 21.3045Z" fill="#FC753F"/>
<path d="M52.8458 21.3045C51.6626 21.3045 50.6242 21.1019 49.7306 20.6968C48.8369 20.2791 48.0943 19.7284 47.5027 19.0448C46.9111 18.3485 46.4643 17.5699 46.1622 16.7091C45.8601 15.8482 45.7091 14.9684 45.7091 14.0695C45.7091 13.1707 45.8601 12.2972 46.1622 11.449C46.4643 10.5881 46.9111 9.81591 47.5027 9.1323C48.0943 8.44868 48.8369 7.90432 49.7306 7.49921C50.6242 7.08144 51.6626 6.87256 52.8458 6.87256C53.8528 6.87256 54.715 6.99915 55.4324 7.25235C56.1499 7.50554 56.7477 7.83469 57.226 8.2398C57.7043 8.63224 58.0819 9.05634 58.3589 9.51208C58.6484 9.95517 58.8623 10.3793 59.0008 10.7844C59.1518 11.1768 59.2462 11.4996 59.284 11.7528C59.3343 12.006 59.3595 12.1326 59.3595 12.1326H55.7723C55.7723 12.1326 55.7408 12.0313 55.6779 11.8288C55.6149 11.6262 55.4891 11.392 55.3002 11.1262C55.1114 10.8477 54.8219 10.6071 54.4318 10.4046C54.0416 10.202 53.5255 10.1008 52.8836 10.1008C52.1284 10.1008 51.4927 10.297 50.9767 10.6894C50.4732 11.0692 50.0956 11.5629 49.8438 12.1706C49.5921 12.7783 49.4662 13.4112 49.4662 14.0695C49.4662 14.7278 49.5921 15.3608 49.8438 15.9685C50.0956 16.5761 50.4732 17.0762 50.9767 17.4686C51.4927 17.8611 52.1284 18.0573 52.8836 18.0573C53.5255 18.0573 54.0416 17.956 54.4318 17.7535C54.8219 17.5509 55.1114 17.3167 55.3002 17.0509C55.4891 16.785 55.6149 16.5508 55.6779 16.3483C55.7408 16.1457 55.7723 16.0444 55.7723 16.0444H59.3595C59.3595 16.0444 59.3343 16.171 59.284 16.4242C59.2462 16.6774 59.1518 17.0066 59.0008 17.4117C58.8623 17.8041 58.6484 18.2282 58.3589 18.684C58.0819 19.127 57.7043 19.5511 57.226 19.9562C56.7477 20.3487 56.1499 20.6715 55.4324 20.9247C54.715 21.1779 53.8528 21.3045 52.8458 21.3045Z" fill="#FC753F"/>
<path d="M61.0626 21.1146V7.06245H64.6876V12.6833L68.9734 7.06245H73.3536L67.9728 13.7657L73.5236 21.1146H68.9734L64.6876 15.2469V21.1146H61.0626Z" fill="#FC753F"/>
<path d="M79.2109 21.1146V16.4242L74.2832 7.06245H78.2481L81.0234 12.6833L83.78 7.06245H87.7637L82.836 16.4242V21.1146H79.2109Z" fill="#FC753F"/>
<path d="M9.1926 40.0002C7.66861 40.0002 6.33106 39.7418 5.17996 39.2248C4.02886 38.6917 3.07231 37.989 2.31031 37.1167C1.54831 36.2282 0.972762 35.2347 0.583657 34.1363C0.194552 33.0378 0 31.9151 0 30.7681C0 29.6212 0.194552 28.5065 0.583657 27.4242C0.972762 26.3257 1.54831 25.3403 2.31031 24.468C3.07231 23.5957 4.02886 22.901 5.17996 22.3841C6.33106 21.851 7.66861 21.5845 9.1926 21.5845C10.4896 21.5845 11.6002 21.746 12.5243 22.0691C13.4484 22.3922 14.2185 22.8122 14.8346 23.3291C15.4507 23.8299 15.9371 24.3711 16.2938 24.9526C16.6667 25.518 16.9423 26.0592 17.1206 26.5761C17.3152 27.0769 17.4368 27.4888 17.4854 27.8119C17.5502 28.135 17.5827 28.2965 17.5827 28.2965H12.9621C12.9621 28.2965 12.9215 28.1673 12.8405 27.9088C12.7594 27.6504 12.5973 27.3515 12.3541 27.0123C12.1109 26.6569 11.738 26.35 11.2354 26.0915C10.7328 25.833 10.0681 25.7038 9.24124 25.7038C8.26848 25.7038 7.44973 25.9542 6.78501 26.455C6.13651 26.9396 5.65013 27.5696 5.32587 28.345C5.00162 29.1204 4.83949 29.9281 4.83949 30.7681C4.83949 31.6081 5.00162 32.4158 5.32587 33.1912C5.65013 33.9666 6.13651 34.6047 6.78501 35.1055C7.44973 35.6063 8.26848 35.8567 9.24124 35.8567C10.0681 35.8567 10.7328 35.7274 11.2354 35.469C11.738 35.2105 12.1109 34.9117 12.3541 34.5724C12.5973 34.2332 12.7594 33.9343 12.8405 33.6759C12.9215 33.4174 12.9621 33.2882 12.9621 33.2882H17.5827C17.5827 33.2882 17.5502 33.4497 17.4854 33.7728C17.4368 34.0959 17.3152 34.5159 17.1206 35.0328C16.9423 35.5336 16.6667 36.0748 16.2938 36.6563C15.9371 37.2217 15.4507 37.7629 14.8346 38.2798C14.2185 38.7806 13.4484 39.1925 12.5243 39.5156C11.6002 39.8387 10.4896 40.0002 9.1926 40.0002Z" fill="#181536"/>
<path d="M19.7763 39.7579V21.8268H27.7043C29.05 21.8268 30.2335 22.0449 31.2549 22.481C32.2763 22.9172 33.0707 23.5634 33.6382 24.4195C34.2056 25.2595 34.4893 26.3015 34.4893 27.5454C34.4893 28.7569 34.2056 29.7908 33.6382 30.647C33.0869 31.487 32.325 32.1251 31.3522 32.5612L34.8541 39.7579H29.7228L26.6829 33.2639H24.4456V39.7579H19.7763ZM27.6314 25.8249H24.4456V29.5566H27.6314C28.2799 29.5566 28.8068 29.395 29.2121 29.0719C29.6174 28.7488 29.8201 28.2885 29.8201 27.6907C29.8201 27.0769 29.6174 26.6165 29.2121 26.3096C28.8068 25.9865 28.2799 25.8249 27.6314 25.8249Z" fill="#181536"/>
<path d="M42.2027 39.7579V33.7728L35.8554 21.8268H40.9624L44.5373 28.9992L48.0879 21.8268H53.2192L46.8719 33.7728V39.7579H42.2027Z" fill="#181536"/>
<path d="M55.1624 39.7579V21.8268H63.2607C64.8009 21.8268 66.0817 22.1256 67.1031 22.7233C68.1245 23.3049 68.8865 24.0561 69.3891 24.9768C69.9079 25.8976 70.1673 26.8669 70.1673 27.8846C70.1673 28.9023 69.9079 29.8796 69.3891 30.8166C68.8865 31.7374 68.1245 32.4966 67.1031 33.0943C66.0817 33.6759 64.8009 33.9666 63.2607 33.9666H59.8317V39.7579H55.1624ZM63.2364 25.8734H59.8317V29.9443H63.2364C63.9821 29.9443 64.5334 29.7343 64.8901 29.3142C65.2629 28.8781 65.4494 28.4096 65.4494 27.9088C65.4494 27.3919 65.2629 26.9234 64.8901 26.5034C64.5334 26.0834 63.9821 25.8734 63.2364 25.8734Z" fill="#181536"/>
<path d="M76.84 39.7579V25.8492H71.3925V21.8268H86.9567V25.8492H81.5093V39.7579H76.84Z" fill="#181536"/>
<path d="M97.1631 40.0002C95.6067 40.0002 94.2448 39.7418 93.0775 39.2248C91.9102 38.6917 90.9375 37.989 90.1592 37.1167C89.381 36.2282 88.7893 35.2347 88.384 34.1363C87.9948 33.0378 87.8003 31.9151 87.8003 30.7681C87.8003 29.6212 87.9948 28.5065 88.384 27.4242C88.7893 26.3257 89.381 25.3403 90.1592 24.468C90.9375 23.5957 91.9102 22.901 93.0775 22.3841C94.2448 21.851 95.6067 21.5845 97.1631 21.5845C98.7195 21.5845 100.081 21.851 101.249 22.3841C102.416 22.901 103.389 23.5957 104.167 24.468C104.961 25.3403 105.553 26.3257 105.942 27.4242C106.331 28.5065 106.526 29.6212 106.526 30.7681C106.526 31.9151 106.331 33.0378 105.942 34.1363C105.553 35.2347 104.961 36.2282 104.167 37.1167C103.389 37.989 102.416 38.6917 101.249 39.2248C100.081 39.7418 98.7195 40.0002 97.1631 40.0002ZM97.1631 35.8567C98.1683 35.8567 99.0033 35.6144 99.668 35.1297C100.333 34.629 100.827 33.9909 101.151 33.2155C101.492 32.4239 101.662 31.6081 101.662 30.7681C101.662 29.9281 101.492 29.1204 101.151 28.345C100.827 27.5696 100.333 26.9396 99.668 26.455C99.0033 25.9542 98.1683 25.7038 97.1631 25.7038C96.1742 25.7038 95.3473 25.9542 94.6826 26.455C94.0179 26.9396 93.5153 27.5696 93.1748 28.345C92.8506 29.1204 92.6884 29.9281 92.6884 30.7681C92.6884 31.6081 92.8506 32.4239 93.1748 33.2155C93.5153 33.9909 94.0179 34.629 94.6826 35.1297C95.3473 35.6144 96.1742 35.8567 97.1631 35.8567Z" fill="#181536"/>
</svg>
